<svg width="406" height="395" viewBox="0 0 406 395" fill="none" xmlns="http://www.w3.org/2000/svg">
<circle cx="126.357" cy="192.803" r="92" transform="rotate(60 126.357 192.803)" stroke="white"/>
<path d="M241.22 374.747C223.278 385.106 200.458 379.146 190.244 361.454C180.03 343.763 186.278 321.02 204.22 310.662C222.161 300.303 244.981 306.263 255.196 323.954C265.41 341.646 259.161 364.389 241.22 374.747Z" stroke="white"/>
<path d="M210.57 65.6625C196.453 73.8127 178.526 69.1614 170.522 55.2977C162.518 41.4341 167.453 23.5832 181.57 15.433C195.686 7.28283 213.613 11.9341 221.618 25.7978C229.622 39.6614 224.686 57.5123 210.57 65.6625Z" stroke="white"/>
<circle cx="261.921" cy="148.601" r="15.5" transform="rotate(60 261.921 148.601)" stroke="white"/>
<circle cx="352.635" cy="88.7209" r="38" transform="rotate(60 352.635 88.7209)" stroke="white"/>
<circle cx="352.718" cy="246.866" r="9" transform="rotate(60 352.718 246.866)" stroke="white"/>
</svg>
