<svg width="1920" height="2244" viewBox="0 0 1920 2244" fill="none" xmlns="http://www.w3.org/2000/svg">
<path d="M-24 2045.83C-20.2285 2045.84 -16.4062 2045.53 -12.5605 2044.88C23.9277 2038.73 48.5586 2004.39 42.4551 1968.17L42.4219 1967.98L42.3711 1967.68C68.5156 1963.28 86.1719 1938.73 81.8125 1912.86C81.748 1912.48 81.6797 1912.1 81.6055 1911.73L81.498 1911.18C97.8438 1912.23 114.576 1911.42 131.438 1908.58C196.844 1897.55 250.369 1858.26 281.439 1805.45C310.553 1816.8 343.053 1820.67 376.156 1815.09C413.309 1808.82 445.846 1791.57 470.957 1767.24C488.998 1793.21 521.104 1807.9 554.508 1802.27C582.664 1797.52 605.219 1779.44 616.721 1755.65C637.08 1758.06 657.893 1758.62 678.947 1757.18C687.586 1776.54 708.66 1788.38 730.744 1784.66C731.377 1784.55 732.006 1784.43 732.629 1784.3C733.686 1784.08 734.727 1783.83 735.75 1783.54C758.428 1819.14 801.033 1839.63 845.412 1832.15C867.107 1828.49 886.211 1818.66 901.213 1804.77C932.82 1903.65 1033.42 1966.8 1139.16 1948.98C1173.98 1943.11 1205.4 1929.13 1231.78 1909.31C1271.44 1966.11 1337.36 2003.41 1412.12 2003.7C1468.03 2003.92 1519.16 1983.41 1558.16 1949.42C1569.11 1970.75 1591.41 1985.4 1617.2 1985.51C1637.32 1985.58 1655.39 1976.78 1667.64 1962.81C1676.38 1972.36 1688.99 1978.38 1703.03 1978.43C1707.81 1978.45 1712.42 1977.78 1716.78 1976.51C1721.26 2019.81 1745.04 2057.46 1779.45 2080.77C1774.14 2092 1771.15 2104.53 1771.1 2117.75C1770.91 2164.52 1807.55 2202.87 1853.89 2205.59C1857.47 2226.77 1875.95 2242.94 1898.26 2243.03C1923.21 2243.13 1943.51 2223.07 1943.61 2198.23C1943.65 2186.46 1939.15 2175.73 1931.75 2167.69C1937.19 2159.8 1941.37 2150.99 1944 2141.53V2094.67C1942.85 2090.54 1941.41 2086.54 1939.69 2082.68C1941.15 2081.74 1942.58 2080.78 1944 2079.8V1611.64C1911.72 1562.12 1858.67 1526.51 1795.35 1518.37C1717.82 1508.4 1644.78 1542.16 1601.16 1600.45C1567.64 1549.74 1512.96 1513.31 1447.77 1504.93C1422.67 1501.71 1398.02 1502.89 1374.61 1507.9L1374.89 1505.96C1375.05 1504.78 1375.21 1503.6 1375.36 1502.42C1385.94 1420.15 1367.11 1340.84 1327 1274.95C1343.11 1258.16 1354.16 1236.28 1357.35 1211.48C1360.95 1183.54 1353.94 1156.66 1339.44 1134.85C1363.83 1151.69 1392.51 1163.12 1423.96 1167.17C1484.06 1174.9 1541.22 1153.96 1581.59 1115C1610.72 1174.86 1668.62 1219.39 1739.78 1228.54C1780.32 1233.75 1819.6 1226.76 1853.92 1210.44C1873.05 1248.32 1904.62 1279.43 1944 1297.83V568.057C1934.32 566.483 1924.38 565.665 1914.26 565.665C1842.3 565.665 1780.05 606.965 1750.15 667.029C1728.48 649.898 1701.07 639.665 1671.26 639.665C1616.5 639.665 1569.85 674.175 1552.01 722.548C1516.67 683.336 1465.36 658.665 1408.26 658.665C1376.73 658.665 1346.98 666.183 1320.7 679.514C1310.2 658.282 1288.2 643.665 1262.76 643.665C1258.48 643.665 1254.3 644.078 1250.25 644.867L1250.25 644.382V644.205L1250.26 643.665C1250.26 564.291 1192.82 498.25 1117 484.356C1133.65 457.397 1143.26 425.65 1143.26 391.665C1143.26 361.444 1135.66 332.992 1122.27 308.104C1138.56 313.021 1155.85 315.665 1173.76 315.665C1255.95 315.665 1325.09 259.957 1345.29 184.34C1347.08 184.554 1348.91 184.665 1350.76 184.665C1366.17 184.665 1379.79 177.002 1388.02 165.278C1415.02 189.749 1450.89 204.665 1490.26 204.665C1543.96 204.665 1591.17 176.899 1618.21 134.983C1636.98 147.418 1659.52 154.665 1683.76 154.665C1714.44 154.665 1742.4 143.052 1763.44 124C1767.79 219.906 1846.77 296.483 1944 297.651V0H-24V334.907C-21.3633 336.664 -18.6738 338.37 -15.9336 340.023C40.3672 373.979 106.232 378.344 163.482 357.589C182.277 394.336 211.244 426.485 249.225 449.392C305.125 483.108 369.627 490.213 427.906 474.349C437.021 507.748 458.543 537.871 490.594 557.202C519.541 574.661 552.268 580.417 583.23 575.828C561.166 649.216 590.756 731.18 659.742 772.788C661.273 773.711 662.812 774.608 664.359 775.479C659.533 780.534 655.184 786.191 651.426 792.422C623.654 838.468 638.674 898.434 684.973 926.358C685.762 926.834 686.553 927.297 687.35 927.748C688.334 928.305 689.324 928.844 690.318 929.363C686.127 934.47 682.252 939.941 678.74 945.764C668.223 963.203 662.016 982.043 659.811 1001.05C633.252 995.786 605.605 1002.19 584.205 1018.48C564.373 988.294 537.615 961.943 504.582 942.02C430.895 897.577 343.482 895.678 271.166 929.274C273.906 900.122 260.137 870.548 233.305 854.365C201.717 835.313 162.162 840.931 137.195 865.68C133.047 862.685 128.742 859.838 124.283 857.148C106.318 846.312 87.248 838.893 67.8379 834.703C64.2676 772.131 31.9414 712.146 -24 675.313V2045.83Z" fill="#ECE3CE"/>
</svg>
