<svg width="250" height="250" viewBox="0 0 250 250" fill="none" xmlns="http://www.w3.org/2000/svg">
<path d="M112.763 4.83139C113.668 4.74695 114.521 4.82121 115.325 5.05417C116.118 5.29997 116.828 5.67784 117.457 6.1878C118.073 6.69886 118.575 7.31537 118.962 8.03735C119.349 8.75933 119.584 9.56657 119.668 10.4591C119.751 11.3516 119.669 12.1884 119.422 12.9696C119.176 13.7508 118.797 14.4496 118.286 15.0659C117.763 15.6833 117.134 16.1804 116.399 16.557C115.654 16.9464 114.829 17.1834 113.925 17.2678C113.114 17.3435 112.333 17.2861 111.581 17.0957C110.829 16.9054 110.163 16.5706 109.586 16.0915L109.774 15.8252C110.388 16.3127 111.04 16.6368 111.731 16.7974C112.421 16.9581 113.142 17.0033 113.893 16.9331C114.739 16.8541 115.511 16.628 116.211 16.2547C116.912 15.8931 117.507 15.417 117.997 14.8264C118.487 14.2475 118.852 13.5856 119.091 12.8407C119.318 12.1087 119.393 11.3258 119.315 10.492C119.238 9.65819 119.018 8.89682 118.658 8.20788C118.287 7.53178 117.806 6.94885 117.215 6.45909C116.626 5.98107 115.953 5.62339 115.196 5.38605C114.441 5.16045 113.64 5.08712 112.795 5.16608C112.043 5.23626 111.343 5.41416 110.694 5.6998C110.047 5.99717 109.467 6.44228 108.953 7.03512L108.719 6.80824C109.198 6.23044 109.789 5.77249 110.492 5.4344C111.196 5.10805 111.953 4.90705 112.763 4.83139Z" fill="black"/>
<path d="M96.2839 7.68008C97.1659 7.46357 98.0214 7.41144 98.8506 7.52368C99.671 7.65019 100.429 7.91947 101.126 8.33151C101.81 8.74637 102.397 9.28238 102.887 9.93955C103.376 10.5967 103.727 11.3606 103.941 12.2311C104.155 13.1017 104.197 13.9415 104.068 14.7505C103.938 15.5595 103.666 16.3064 103.251 16.9912C102.825 17.6788 102.276 18.2628 101.605 18.7434C100.925 19.2383 100.144 19.594 99.2615 19.8105C98.3795 20.027 97.5283 20.072 96.7078 19.9455C95.8787 19.8332 95.1218 19.5697 94.437 19.1548C93.7408 18.7428 93.148 18.2082 92.6588 17.551C92.1696 16.8938 91.8181 16.13 91.6044 15.2594C91.3907 14.3889 91.3486 13.5491 91.4779 12.7401C91.6072 11.9311 91.885 11.1828 92.3113 10.4952C92.7262 9.81038 93.2736 9.22056 93.9537 8.72571C94.6252 8.24513 95.4019 7.89658 96.2839 7.68008ZM96.364 8.00653C95.5393 8.20898 94.807 8.54055 94.1671 9.00124C93.5272 9.46194 93.0071 10.0147 92.6067 10.6595C92.2091 11.3157 91.9515 12.0226 91.8339 12.7802C91.7076 13.552 91.7456 14.3503 91.9481 15.1751C92.1505 15.9998 92.485 16.7192 92.9515 17.3334C93.4094 17.9618 93.9651 18.4691 94.6185 18.8552C95.2748 19.2528 95.9931 19.5076 96.7736 19.6196C97.5541 19.7317 98.3567 19.6865 99.1814 19.484C100.006 19.2816 100.738 18.95 101.378 18.4893C102.018 18.0286 102.537 17.4701 102.935 16.8139C103.335 16.1691 103.598 15.4608 103.725 14.6889C103.842 13.9314 103.8 13.1402 103.597 12.3155C103.395 11.4908 103.065 10.7642 102.607 10.1357C102.14 9.52158 101.579 9.01571 100.923 8.61814C100.269 8.23203 99.5523 7.98295 98.7718 7.87092C97.9914 7.75888 97.1888 7.80409 96.364 8.00653Z" fill="black"/>
<path d="M83.0403 11.6971L87.7984 23.1309L87.5207 23.2465L74.3599 15.75L74.5396 15.6753L79.1413 26.7335L78.8146 26.8694L74.0566 15.4355L74.3343 15.32L87.495 22.8164L87.3154 22.8912L82.7136 11.833L83.0403 11.6971Z" fill="black"/>
<path d="M64.6107 20.4686L70.6691 30.8828L74.6451 28.5698L74.8142 28.8604L66.5562 33.6643L66.3872 33.3738L70.3632 31.0608L64.3049 20.6466L64.6107 20.4686Z" fill="black"/>
<path d="M56.6511 25.3229L59.5738 38.6604L59.2922 38.8747L47.2175 32.5002L47.5413 32.2538L59.332 38.4887L59.1912 38.5959L56.3273 25.5692L56.6511 25.3229ZM57.4049 29.44L57.4676 29.8146L51.3428 34.4745L50.9984 34.3141L57.4049 29.44Z" fill="black"/>
<path d="M38.9304 40.2975C39.5722 39.655 40.2767 39.1667 41.0438 38.8327C41.8109 38.5153 42.599 38.3523 43.4079 38.3435C44.2086 38.343 44.9885 38.4969 45.7476 38.8051C46.5067 39.1132 47.2033 39.5841 47.8375 40.2176C48.4717 40.8511 48.9433 41.5472 49.2523 42.306C49.5613 43.0648 49.716 43.8445 49.7165 44.6451C49.7086 45.4541 49.5422 46.2382 49.2173 46.9973C48.8925 47.7731 48.4092 48.4823 47.7673 49.1248C47.1922 49.7006 46.5544 50.1555 45.854 50.4894C45.1537 50.8234 44.4282 50.9906 43.6776 50.991L43.6524 50.6658C44.4363 50.6487 45.1451 50.4815 45.7788 50.1642C46.4125 49.847 46.996 49.4213 47.5295 48.8872C48.1297 48.2864 48.5797 47.619 48.8795 46.8849C49.1877 46.1591 49.3416 45.4126 49.3412 44.6453C49.3491 43.8864 49.2069 43.1442 48.9146 42.4188C48.6223 41.71 48.1799 41.0597 47.5875 40.4679C46.995 39.8761 46.3401 39.4303 45.6226 39.1304C44.9052 38.8472 44.1629 38.7059 43.3956 38.7063C42.6367 38.715 41.8903 38.8697 41.1566 39.1704C40.4312 39.4794 39.7684 39.9343 39.1682 40.5351C38.6347 41.0691 38.2097 41.6532 37.8931 42.2872C37.5849 42.9295 37.4227 43.6427 37.4064 44.4267L37.0811 44.4018C37.0807 43.6512 37.243 42.9214 37.5678 42.2123C37.9011 41.5115 38.3552 40.8733 38.9304 40.2975Z" fill="black"/>
<path d="M29.79 50.833L39.3203 58.2041L42.1345 54.5655L42.4004 54.7712L36.5555 62.3282L36.2896 62.1226L39.1038 58.484L29.5735 51.1129L29.79 50.833Z" fill="black"/>
<path d="M23.025 60.2093L33.7923 66.3279L33.6437 66.5894L21.7807 66.6243L21.8594 66.4859L27.9097 76.6799L27.7611 76.9414L16.9938 70.8227L17.1686 70.5151L27.4898 76.3802L27.4199 76.5033L21.4797 66.4736L21.5846 66.2891L33.25 66.2436L33.1714 66.382L22.8501 60.5169L23.025 60.2093Z" fill="black"/>
<path d="M19.6535 80.7858L17.1769 87.2448L16.8631 87.1245L19.3396 80.6654L19.6535 80.7858ZM13.9062 78.6768L11.0812 86.0444L10.7674 85.9241L13.719 78.2261L25.2825 82.6598L22.4259 90.11L22.112 89.9897L24.8419 82.8699L13.9062 78.6768Z" fill="black"/>
<path d="M7.31652 98.2396C7.52408 97.3555 7.86609 96.5695 8.34254 95.8818C8.82778 95.2082 9.41202 94.6548 10.0953 94.2215C10.7758 93.7998 11.5199 93.5201 12.3276 93.3826C13.1352 93.2451 13.9754 93.2788 14.8481 93.4836C15.7207 93.6885 16.4881 94.0322 17.1502 94.5148C17.8123 94.9973 18.3542 95.5788 18.776 96.2594C19.1951 96.9514 19.4663 97.7057 19.5896 98.5221C19.7217 99.3527 19.684 100.21 19.4764 101.094C19.2905 101.887 18.9876 102.609 18.5678 103.262C18.1481 103.914 17.6192 104.438 16.9812 104.834L16.7886 104.57C17.4462 104.143 17.9609 103.628 18.3327 103.025C18.7045 102.421 18.9767 101.752 19.1492 101.017C19.3433 100.191 19.3746 99.3863 19.2432 98.6043C19.1233 97.825 18.8612 97.1093 18.457 96.4571C18.0643 95.8076 17.5528 95.2514 16.9224 94.7884C16.3009 94.3396 15.5824 94.0195 14.7672 93.8281C13.9519 93.6367 13.1604 93.6023 12.3926 93.725C11.6335 93.8618 10.9279 94.1323 10.2757 94.5365C9.63504 94.9434 9.08185 95.4677 8.61618 96.1096C8.16199 96.7541 7.83785 97.4897 7.64377 98.3165C7.47125 99.0513 7.41726 99.7716 7.48177 100.477C7.55777 101.186 7.79518 101.878 8.19398 102.553L7.90433 102.703C7.50892 102.065 7.26273 101.359 7.16576 100.585C7.08027 99.8137 7.13053 99.0319 7.31652 98.2396Z" fill="black"/>
<path d="M4.7745 114.771C4.84978 113.866 5.07247 113.038 5.4426 112.288C5.8235 111.55 6.32 110.917 6.93209 110.388C7.54321 109.87 8.23809 109.484 9.01674 109.23C9.7954 108.975 10.6314 108.885 11.5247 108.959C12.418 109.033 13.2276 109.26 13.9534 109.64C14.6793 110.02 15.3009 110.516 15.8181 111.127C16.3344 111.75 16.7136 112.456 16.9557 113.245C17.2085 114.047 17.2973 114.901 17.222 115.806C17.1468 116.711 16.9187 117.532 16.5378 118.27C16.1677 119.02 15.677 119.654 15.0659 120.172C14.4538 120.701 13.7584 121.092 12.9798 121.347C12.2011 121.602 11.3652 121.692 10.4719 121.618C9.57854 121.544 8.76896 121.317 8.04309 120.937C7.31723 120.557 6.69615 120.055 6.17986 119.432C5.66259 118.821 5.27753 118.115 5.02469 117.313C4.78263 116.523 4.69923 115.676 4.7745 114.771ZM5.10949 114.799C5.03911 115.645 5.12054 116.445 5.35378 117.198C5.58702 117.951 5.94563 118.62 6.42959 119.205C6.92531 119.79 7.51357 120.259 8.19437 120.612C8.88595 120.977 9.65489 121.195 10.5012 121.265C11.3475 121.336 12.1359 121.247 12.8666 121.001C13.608 120.766 14.2657 120.401 14.8396 119.904C15.4253 119.408 15.8953 118.808 16.2498 118.104C16.6042 117.4 16.8167 116.625 16.887 115.778C16.9574 114.932 16.876 114.132 16.6428 113.379C16.4095 112.626 16.045 111.956 15.5493 111.371C15.0654 110.786 14.4776 110.311 13.786 109.946C13.1052 109.593 12.3416 109.382 11.4954 109.312C10.6491 109.241 9.8552 109.323 9.11377 109.557C8.38311 109.804 7.72495 110.176 7.1393 110.671C6.5654 111.168 6.10122 111.768 5.74676 112.473C5.3923 113.177 5.17988 113.952 5.10949 114.799Z" fill="black"/>
<path d="M4.37161 128.604L16.7251 127.73L16.7463 128.03L5.45318 138.123L5.43944 137.928L17.387 137.083L17.412 137.436L5.05852 138.31L5.03729 138.01L16.3304 127.917L16.3441 128.111L4.39658 128.957L4.37161 128.604Z" fill="black"/>
<path d="M6.82451 148.867L18.6248 146.435L17.6966 141.93L18.0258 141.862L19.9537 151.219L19.6245 151.287L18.6963 146.782L6.89591 149.213L6.82451 148.867Z" fill="black"/>
<path d="M8.8956 157.956L22.4702 159.427L22.5837 159.763L12.6997 169.183L12.5691 168.797L22.2304 159.602L22.2872 159.77L9.02619 158.341L8.8956 157.956ZM13.0387 158.551L13.4138 158.611L15.8836 165.9L15.622 166.175L13.0387 158.551Z" fill="black"/>
<path d="M17.4566 179.521C17.0516 178.708 16.8127 177.885 16.74 177.052C16.6831 176.223 16.7792 175.424 17.0282 174.655C17.2824 173.895 17.6764 173.205 18.21 172.583C18.7436 171.962 19.4115 171.451 20.2139 171.051C21.0162 170.651 21.8262 170.426 22.6438 170.374C23.4615 170.322 24.2499 170.424 25.0091 170.678C25.7736 170.943 26.464 171.35 27.0804 171.899C27.7126 172.454 28.2312 173.138 28.6362 173.951C28.9991 174.679 29.2275 175.428 29.3214 176.199C29.4153 176.969 29.343 177.71 29.1047 178.422L28.7883 178.342C29.0215 177.593 29.0884 176.868 28.9892 176.167C28.8899 175.465 28.672 174.776 28.3353 174.101C27.9566 173.341 27.4669 172.702 26.8663 172.184C26.2763 171.661 25.6175 171.278 24.8899 171.034C24.1729 170.785 23.424 170.684 22.6433 170.73C21.8784 170.782 21.1212 170.994 20.3717 171.368C19.6221 171.741 18.9911 172.22 18.4787 172.805C17.982 173.395 17.6119 174.054 17.3682 174.782C17.1351 175.504 17.0444 176.261 17.0961 177.052C17.1583 177.838 17.3787 178.611 17.7574 179.371C18.0941 180.047 18.5126 180.636 19.013 181.137C19.524 181.634 20.1485 182.015 20.8866 182.279L20.7596 182.58C20.0478 182.341 19.4075 181.955 18.8386 181.422C18.2802 180.883 17.8195 180.25 17.4566 179.521Z" fill="black"/>
<path d="M24.5373 191.538L34.5569 184.847L32.0023 181.022L32.2819 180.835L37.5874 188.78L37.3079 188.967L34.7534 185.141L24.7338 191.832L24.5373 191.538Z" fill="black"/>
<path d="M31.273 200.93L40.4986 192.668L40.6992 192.892L36.9592 204.15L36.853 204.032L48.4419 201.538L48.6426 201.762L39.417 210.024L39.181 209.76L48.0243 201.841L48.1188 201.946L36.7206 204.388L36.579 204.229L40.2462 193.155L40.3525 193.274L31.5091 201.194L31.273 200.93Z" fill="black"/>
<path d="M49.7119 210.675L55.0478 215.078L54.8338 215.337L49.4979 210.935L49.7119 210.675ZM45.8844 215.453L51.9709 220.475L51.757 220.734L45.3976 215.487L53.279 205.935L59.4337 211.013L59.2198 211.272L53.338 206.419L45.8844 215.453Z" fill="black"/>
<path d="M62.3351 227.922C61.5629 227.444 60.9265 226.869 60.426 226.199C59.9418 225.525 59.6029 224.795 59.4095 224.009C59.2261 223.23 59.1976 222.435 59.3241 221.626C59.4507 220.816 59.7498 220.031 60.2216 219.268C60.6934 218.506 61.2633 217.888 61.9314 217.414C62.5995 216.94 63.3232 216.611 64.1025 216.427C64.8919 216.25 65.6933 216.233 66.5065 216.376C67.336 216.515 68.1369 216.823 68.9091 217.301C69.6011 217.729 70.1897 218.246 70.6749 218.852C71.1601 219.457 71.4887 220.125 71.6607 220.856L71.3498 220.955C71.154 220.196 70.8292 219.544 70.3755 218.999C69.9218 218.455 69.374 217.984 68.7322 217.587C68.0101 217.14 67.2575 216.854 66.4743 216.73C65.6973 216.596 64.9354 216.617 64.1885 216.793C63.4478 216.958 62.7578 217.266 62.1184 217.717C61.4952 218.163 60.9632 218.743 60.5225 219.455C60.0817 220.167 59.7974 220.906 59.6694 221.673C59.5577 222.436 59.5897 223.191 59.7655 223.938C59.9475 224.675 60.2686 225.366 60.729 226.012C61.1956 226.647 61.7899 227.189 62.512 227.636C63.1539 228.033 63.8196 228.313 64.5092 228.477C65.205 228.63 65.9363 228.625 66.7033 228.461L66.7534 228.784C66.0228 228.956 65.2752 228.965 64.5106 228.81C63.7522 228.646 63.0271 228.35 62.3351 227.922Z" fill="black"/>
<path d="M77.1981 235.589C76.364 235.23 75.6501 234.756 75.0565 234.166C74.4783 233.571 74.0358 232.898 73.7289 232.15C73.4329 231.406 73.2879 230.624 73.294 229.805C73.3001 228.986 73.4805 228.165 73.835 227.341C74.1896 226.518 74.6624 225.823 75.2535 225.255C75.8446 224.688 76.512 224.256 77.2559 223.96C78.0107 223.669 78.8008 223.534 79.6262 223.556C80.4671 223.571 81.3046 223.758 82.1388 224.118C82.9729 224.477 83.679 224.954 84.2572 225.55C84.8508 226.14 85.2957 226.806 85.5917 227.55C85.8986 228.299 86.049 229.083 86.0429 229.902C86.0368 230.721 85.8564 231.543 85.5019 232.366C85.1473 233.189 84.6745 233.884 84.0834 234.452C83.4924 235.019 82.8194 235.448 82.0647 235.74C81.3208 236.036 80.5284 236.176 79.6875 236.161C78.862 236.139 78.0323 235.949 77.1981 235.589ZM77.3311 235.281C78.1111 235.617 78.8952 235.794 79.6834 235.812C80.4717 235.831 81.22 235.703 81.9282 235.431C82.6411 235.147 83.2729 234.738 83.8237 234.205C84.3899 233.666 84.841 233.006 85.1769 232.226C85.5128 231.446 85.6799 230.67 85.6781 229.899C85.6919 229.122 85.5546 228.382 85.2663 227.68C84.9826 226.967 84.5632 226.33 84.0082 225.77C83.4532 225.21 82.7857 224.762 82.0058 224.426C81.2258 224.09 80.4417 223.913 79.6535 223.895C78.8652 223.876 78.1146 224.009 77.4017 224.293C76.6935 224.566 76.0562 224.972 75.49 225.511C74.9392 226.045 74.4959 226.701 74.16 227.481C73.8241 228.261 73.6493 229.04 73.6355 229.817C73.6372 230.589 73.78 231.331 74.0636 232.044C74.352 232.746 74.7737 233.377 75.3287 233.937C75.8837 234.497 76.5512 234.945 77.3311 235.281Z" fill="black"/>
<path d="M90.1834 240.372L93.2837 228.382L93.5749 228.457L99.5518 242.374L99.3634 242.325L102.362 230.729L102.704 230.818L99.6041 242.808L99.3129 242.733L93.336 228.816L93.5244 228.864L90.5259 240.461L90.1834 240.372Z" fill="black"/>
<path d="M110.175 244.491L111.624 232.53L107.057 231.977L107.097 231.643L116.582 232.792L116.541 233.125L111.975 232.573L110.527 244.533L110.175 244.491Z" fill="black"/>
<path d="M119.451 245.417L125.163 233.016L125.517 233.015L131.304 245.382L130.897 245.383L125.253 233.299L125.429 233.298L119.858 245.416L119.451 245.417ZM121.332 241.679L121.508 241.342L129.204 241.319L129.382 241.654L121.332 241.679Z" fill="black"/>
<path d="M142.619 244.161C141.72 244.287 140.863 244.251 140.05 244.055C139.247 243.845 138.52 243.5 137.869 243.019C137.23 242.537 136.701 241.944 136.281 241.24C135.862 240.537 135.59 239.741 135.466 238.853C135.342 237.965 135.386 237.126 135.597 236.334C135.808 235.542 136.155 234.827 136.638 234.188C137.132 233.548 137.737 233.023 138.454 232.613C139.181 232.19 139.995 231.916 140.894 231.79C141.7 231.678 142.483 231.7 143.243 231.856C144.003 232.012 144.683 232.316 145.282 232.768L145.106 233.043C144.47 232.584 143.804 232.29 143.107 232.161C142.41 232.031 141.688 232.019 140.94 232.123C140.099 232.241 139.338 232.502 138.656 232.906C137.972 233.299 137.399 233.802 136.937 234.414C136.473 235.015 136.139 235.693 135.934 236.448C135.74 237.189 135.701 237.975 135.817 238.804C135.932 239.634 136.186 240.384 136.577 241.056C136.979 241.715 137.486 242.275 138.098 242.737C138.708 243.188 139.397 243.515 140.164 243.718C140.929 243.909 141.732 243.945 142.573 243.828C143.32 243.724 144.012 243.514 144.647 243.2C145.28 242.873 145.839 242.402 146.325 241.787L146.57 242.003C146.117 242.601 145.548 243.086 144.861 243.456C144.172 243.814 143.425 244.049 142.619 244.161Z" fill="black"/>
<path d="M156.262 241.268L153.106 229.641L148.666 230.846L148.578 230.522L157.798 228.019L157.886 228.343L153.447 229.548L156.604 241.176L156.262 241.268Z" fill="black"/>
<path d="M167.313 237.87L162.415 226.496L162.691 226.377L172.175 233.504L172.028 233.567L173.35 221.786L173.626 221.667L178.525 233.042L178.2 233.182L173.504 222.279L173.634 222.223L172.324 233.805L172.129 233.889L162.796 226.89L162.942 226.827L167.638 237.73L167.313 237.87Z" fill="black"/>
<path d="M182.415 223.49L188.286 219.832L188.464 220.117L182.593 223.776L182.415 223.49ZM185.728 228.639L192.424 224.465L192.602 224.751L185.605 229.111L179.055 218.601L185.827 214.381L186.005 214.666L179.533 218.699L185.728 228.639Z" fill="black"/>
<path d="M202.78 217.007C202.081 217.587 201.334 218.008 200.539 218.269C199.746 218.514 198.946 218.603 198.14 218.536C197.343 218.462 196.58 218.237 195.853 217.859C195.126 217.482 194.476 216.948 193.904 216.259C193.331 215.569 192.926 214.832 192.689 214.048C192.452 213.263 192.37 212.473 192.444 211.676C192.528 210.871 192.766 210.106 193.16 209.38C193.556 208.638 194.103 207.977 194.802 207.396C195.428 206.877 196.105 206.483 196.834 206.216C197.562 205.948 198.3 205.849 199.047 205.919L199.042 206.245C198.26 206.189 197.539 206.289 196.878 206.546C196.218 206.803 195.597 207.173 195.016 207.655C194.363 208.198 193.853 208.82 193.486 209.523C193.112 210.217 192.889 210.946 192.818 211.71C192.74 212.465 192.812 213.217 193.036 213.967C193.261 214.7 193.641 215.388 194.176 216.033C194.711 216.677 195.321 217.182 196.008 217.547C196.696 217.896 197.422 218.105 198.186 218.176C198.942 218.238 199.7 218.154 200.458 217.922C201.209 217.682 201.911 217.291 202.565 216.748C203.146 216.266 203.623 215.724 203.997 215.123C204.364 214.512 204.592 213.817 204.681 213.038L205.002 213.093C204.933 213.84 204.704 214.552 204.314 215.227C203.917 215.894 203.406 216.487 202.78 217.007Z" fill="black"/>
<path d="M214.778 205.356C214.172 206.033 213.495 206.558 212.747 206.934C211.999 207.292 211.221 207.498 210.413 207.551C209.614 207.595 208.827 207.484 208.052 207.218C207.277 206.951 206.556 206.519 205.888 205.921C205.22 205.323 204.712 204.654 204.362 203.913C204.012 203.172 203.815 202.402 203.771 201.602C203.735 200.794 203.858 200.002 204.141 199.226C204.423 198.434 204.867 197.7 205.473 197.023C206.079 196.347 206.756 195.829 207.505 195.47C208.253 195.095 209.026 194.885 209.826 194.841C210.633 194.788 211.424 194.895 212.199 195.162C212.974 195.428 213.695 195.86 214.363 196.458C215.03 197.056 215.539 197.726 215.889 198.466C216.239 199.207 216.432 199.982 216.468 200.79C216.512 201.589 216.393 202.385 216.111 203.178C215.828 203.953 215.384 204.679 214.778 205.356ZM214.527 205.132C215.094 204.499 215.511 203.812 215.779 203.071C216.048 202.329 216.165 201.579 216.132 200.821C216.089 200.055 215.903 199.326 215.573 198.634C215.241 197.926 214.759 197.288 214.127 196.722C213.494 196.155 212.812 195.75 212.08 195.506C211.347 195.246 210.602 195.141 209.845 195.191C209.079 195.233 208.342 195.428 207.635 195.776C206.927 196.124 206.29 196.615 205.723 197.247C205.157 197.88 204.74 198.567 204.471 199.309C204.203 200.05 204.09 200.804 204.132 201.57C204.166 202.328 204.348 203.061 204.68 203.77C205.01 204.462 205.492 205.091 206.124 205.657C206.757 206.224 207.439 206.637 208.172 206.898C208.904 207.141 209.653 207.242 210.419 207.2C211.176 207.15 211.909 206.951 212.616 206.603C213.324 206.255 213.961 205.764 214.527 205.132Z" fill="black"/>
<path d="M223.441 194.565L213.059 187.812L213.223 187.56L228.319 186.32L228.212 186.483L218.172 179.952L218.365 179.655L228.746 186.408L228.582 186.66L213.487 187.9L213.593 187.737L223.634 194.268L223.441 194.565Z" fill="black"/>
<path d="M233.705 176.92L222.826 171.742L220.849 175.896L220.546 175.752L224.651 167.125L224.955 167.269L222.978 171.423L233.857 176.6L233.705 176.92Z" fill="black"/>
<path d="M237.536 168.422L227.595 159.062L227.707 158.726L241.272 157.173L241.144 157.559L227.892 159.067L227.948 158.899L237.664 168.036L237.536 168.422ZM234.59 165.449L234.327 165.175L236.753 157.872L237.127 157.81L234.59 165.449Z" fill="black"/>
<path d="M243.712 146.058C243.545 146.95 243.239 147.751 242.794 148.46C242.34 149.154 241.781 149.734 241.119 150.198C240.458 150.65 239.727 150.963 238.927 151.137C238.126 151.311 237.285 151.316 236.404 151.151C235.523 150.986 234.741 150.677 234.058 150.225C233.374 149.773 232.806 149.217 232.354 148.556C231.904 147.884 231.599 147.143 231.439 146.333C231.269 145.509 231.268 144.651 231.435 143.758C231.584 142.959 231.854 142.223 232.244 141.552C232.634 140.881 233.138 140.334 233.757 139.91L233.962 140.164C233.324 140.62 232.834 141.158 232.49 141.778C232.146 142.398 231.904 143.078 231.765 143.82C231.609 144.655 231.614 145.46 231.781 146.235C231.936 147.008 232.23 147.711 232.664 148.344C233.086 148.975 233.622 149.508 234.273 149.942C234.914 150.362 235.646 150.649 236.469 150.803C237.292 150.957 238.085 150.956 238.846 150.798C239.598 150.627 240.291 150.325 240.924 149.891C241.545 149.456 242.074 148.907 242.51 148.244C242.935 147.58 243.225 146.83 243.381 145.996C243.52 145.254 243.542 144.532 243.445 143.83C243.337 143.125 243.068 142.445 242.639 141.789L242.922 141.626C243.346 142.245 243.624 142.939 243.756 143.708C243.876 144.474 243.862 145.258 243.712 146.058Z" fill="black"/>
<path d="M245.311 132.204L233.283 131.498L233.014 136.09L232.678 136.071L233.238 126.534L233.573 126.553L233.304 131.145L245.332 131.851L245.311 132.204Z" fill="black"/>
<path d="M245.604 120.646L233.262 121.673L233.237 121.373L243.01 114.649L243.023 114.807L232.275 109.807L232.25 109.507L244.592 108.481L244.621 108.834L232.791 109.818L232.779 109.677L243.344 114.603L243.361 114.815L233.757 121.436L233.744 121.278L245.575 120.294L245.604 120.646Z" fill="black"/>
<path d="M236.772 101.755L235.171 95.0249L235.498 94.9471L237.099 101.677L236.772 101.755ZM242.707 100.252L240.88 92.5753L241.207 92.4975L243.116 100.518L231.068 103.385L229.221 95.6223L229.548 95.5445L231.313 102.963L242.707 100.252Z" fill="black"/>
<path d="M237.103 80.3854C237.431 81.2324 237.592 82.0742 237.587 82.9109C237.567 83.7408 237.397 84.5274 237.077 85.2707C236.753 86.0029 236.297 86.6538 235.708 87.2231C235.119 87.7925 234.406 88.2389 233.57 88.5623C232.734 88.8858 231.907 89.0352 231.088 89.0105C230.269 88.9859 229.493 88.8117 228.761 88.488C228.025 88.1533 227.375 87.6837 226.812 87.0794C226.235 86.4683 225.782 85.7392 225.454 84.8922C225.16 84.1332 225.003 83.3659 224.981 82.5903C224.959 81.8146 225.1 81.0836 225.403 80.3971L225.711 80.5057C225.409 81.2295 225.275 81.9453 225.309 82.6531C225.342 83.361 225.495 84.0669 225.768 84.7709C226.074 85.5629 226.502 86.2446 227.052 86.816C227.591 87.3916 228.211 87.8345 228.913 88.1447C229.604 88.4592 230.34 88.6297 231.122 88.6561C231.888 88.6757 232.662 88.5345 233.443 88.2323C234.224 87.9302 234.896 87.5118 235.461 86.9772C236.01 86.4358 236.44 85.8143 236.75 85.1125C237.05 84.415 237.21 83.6699 237.233 82.8773C237.244 82.0889 237.096 81.2987 236.79 80.5067C236.517 79.8027 236.155 79.1776 235.704 78.6314C235.241 78.0896 234.655 77.6525 233.944 77.3202L234.099 77.0329C234.785 77.3364 235.387 77.7802 235.904 78.3643C236.41 78.9527 236.809 79.6264 237.103 80.3854Z" fill="black"/>
<path d="M229.874 65.3033C230.323 66.0929 230.606 66.9019 230.724 67.7302C230.826 68.5541 230.773 69.3571 230.567 70.1393C230.354 70.9112 229.998 71.6221 229.5 72.2719C229.001 72.9217 228.361 73.4681 227.582 73.911C226.803 74.3538 226.006 74.6233 225.193 74.7194C224.379 74.8154 223.586 74.7572 222.814 74.5447C222.037 74.3219 221.325 73.953 220.68 73.438C220.018 72.9185 219.463 72.264 219.014 71.4744C218.566 70.6848 218.29 69.8781 218.188 69.0542C218.07 68.2259 218.118 67.4257 218.33 66.6538C218.537 65.8716 218.89 65.1556 219.389 64.5058C219.888 63.856 220.527 63.3097 221.306 62.8668C222.085 62.4239 222.882 62.1544 223.696 62.0584C224.509 61.9623 225.305 62.0256 226.083 62.2484C226.855 62.4609 227.571 62.8269 228.233 63.3464C228.878 63.8614 229.425 64.5137 229.874 65.3033ZM229.582 65.4694C229.162 64.7311 228.643 64.1169 228.026 63.6268C227.408 63.1367 226.735 62.7869 226.005 62.5774C225.265 62.3737 224.515 62.3185 223.754 62.4118C222.977 62.5007 222.219 62.7549 221.481 63.1744C220.743 63.594 220.142 64.1119 219.678 64.7281C219.198 65.34 218.861 66.0129 218.668 66.7468C218.464 67.4866 218.415 68.2472 218.52 69.0286C218.625 69.8101 218.887 70.57 219.307 71.3083C219.726 72.0467 220.245 72.6609 220.862 73.151C221.48 73.6411 222.159 73.988 222.899 74.1916C223.628 74.4011 224.381 74.4614 225.158 74.3726C225.919 74.2793 226.669 74.0229 227.407 73.6033C228.146 73.1838 228.755 72.6681 229.235 72.0562C229.698 71.44 230.032 70.762 230.236 70.0222C230.429 69.2883 230.473 68.5306 230.368 67.7491C230.263 66.9676 230.001 66.2077 229.582 65.4694Z" fill="black"/>
<path d="M222.398 53.6568L212.694 61.3511L212.507 61.1154L216.133 46.4097L216.254 46.5622L206.868 54.0036L206.648 53.7264L216.353 46.0321L216.539 46.2678L212.914 60.9735L212.793 60.821L222.178 53.3796L222.398 53.6568Z" fill="black"/>
<path d="M208.936 38.3151L200.567 46.9825L203.876 50.1776L203.642 50.4195L196.77 43.7834L197.003 43.5416L200.312 46.7367L208.681 38.0694L208.936 38.3151Z" fill="black"/>
<path d="M202.097 31.9811L190.061 38.4283L189.778 38.2158L192.62 24.8608L192.946 25.1052L190.16 38.1489L190.019 38.0426L201.772 31.7367L202.097 31.9811ZM198.341 33.8285L197.998 33.9909L191.845 29.368L191.906 28.993L198.341 33.8285Z" fill="black"/>
<path d="M182.859 19.0105C183.652 19.4529 184.313 19.9976 184.844 20.6446C185.358 21.2962 185.73 22.01 185.959 22.7859C186.178 23.5562 186.242 24.3485 186.152 25.1628C186.063 25.9772 185.8 26.7758 185.363 27.5586C184.926 28.3415 184.385 28.9849 183.739 29.489C183.093 29.9931 182.385 30.3545 181.615 30.5732C180.835 30.786 180.035 30.8397 179.216 30.734C178.381 30.6329 177.567 30.3612 176.774 29.9188C176.063 29.5223 175.452 29.0327 174.939 28.4498C174.427 27.867 174.069 27.2145 173.864 26.4925L174.17 26.3796C174.4 27.1292 174.754 27.7656 175.232 28.2888C175.71 28.812 176.278 29.2575 176.938 29.6252C177.679 30.0389 178.444 30.2899 179.232 30.3783C180.014 30.4771 180.775 30.4216 181.513 30.2121C182.245 30.0129 182.92 29.6738 183.539 29.1949C184.141 28.7205 184.646 28.1176 185.054 27.3863C185.462 26.6549 185.712 25.9033 185.805 25.1313C185.882 24.3639 185.816 23.6111 185.607 22.873C185.391 22.1452 185.039 21.4692 184.55 20.8452C184.055 20.2314 183.436 19.7177 182.695 19.3041C182.036 18.9363 181.358 18.6866 180.661 18.5548C179.959 18.4333 179.229 18.4716 178.47 18.6696L178.406 18.3499C179.128 18.1449 179.874 18.1021 180.645 18.2214C181.41 18.351 182.148 18.614 182.859 19.0105Z" fill="black"/>
<path d="M170.231 13.0883L165.736 24.2668L170.004 25.9828L169.879 26.2947L161.015 22.7307L161.14 22.4188L165.408 24.1348L169.903 12.9563L170.231 13.0883Z" fill="black"/>
<path d="M159.367 9.13426L156.415 21.1616L156.123 21.0899L152.856 9.68555L153.01 9.72351L144.851 18.3231L144.559 18.2514L147.512 6.22409L147.855 6.30844L145.025 17.8375L144.888 17.8037L152.919 9.35487L153.125 9.40549L156.348 20.6169L156.193 20.5789L159.023 9.04991L159.367 9.13426Z" fill="black"/>
<path d="M138.647 11.4991L131.758 10.8767L131.788 10.5419L138.678 11.1643L138.647 11.4991ZM139.11 5.39456L131.251 4.68462L131.282 4.34984L139.493 5.09161L138.378 17.4257L130.432 16.7078L130.462 16.3731L138.056 17.0591L139.11 5.39456Z" fill="black"/>
<g clip-path="url(#clip0_1815_3117)">
<path d="M139.763 121.98C138.217 114.06 130.342 108.933 122.173 110.528C114.006 112.123 108.638 119.837 110.184 127.756C111.731 135.675 119.606 140.803 127.774 139.208C135.942 137.613 141.31 129.899 139.763 121.98Z" fill="#53C1DE"/>
<path fill-rule="evenodd" clip-rule="evenodd" d="M167.807 88.866C168.528 75.9508 167.998 52.3653 152.647 47.3316C137.369 42.3189 122.326 60.5788 114.59 71.2866C103.44 64.3584 82.1413 53.2606 69.829 63.7218C57.5688 74.139 66.1971 95.7503 71.8075 107.509C59.6538 113.555 39.1232 125.473 42.1628 141.039C45.1938 156.56 68.8079 160.554 82.2664 161.594C81.4935 174.671 81.7795 197.579 97.0723 202.597C112.467 207.646 128.037 189.712 135.84 178.891C147.107 185.942 167.68 196.915 179.947 186.493C192.253 176.036 184.257 154.226 178.632 142.395C190.318 136.437 210.778 124.024 207.784 108.697C204.774 93.2803 181.138 89.9226 167.807 88.866ZM175.417 136.172C172.064 130.147 167.899 123.858 163.057 117.466C165.013 109.92 166.414 102.636 167.203 95.8453C176.98 96.6406 198.473 98.6247 200.71 110.078C202.967 121.639 184.631 131.459 175.417 136.172ZM175.242 181.248C166.09 189.024 148.123 178.197 139.807 173.008C143.507 167.147 147.047 160.483 150.352 153.205C158.224 150.953 165.569 148.349 172.128 145.472C176.096 153.843 184.436 173.436 175.242 181.248ZM99.4468 195.963C88.0438 192.224 88.8883 171.567 89.4546 161.935C96.5224 162.065 104.236 161.646 112.386 160.71C118.188 166.067 124.109 170.876 129.928 174.964C125.047 181.735 110.903 199.721 99.4468 195.963ZM49.2375 139.657C46.9715 128.053 66.0263 118.196 74.9978 113.746C78.347 119.877 82.4001 126.18 87.0305 132.45C85.0767 140.113 83.675 147.594 82.8744 154.616C73.3463 153.872 51.505 151.269 49.2375 139.657ZM74.5331 68.9666C83.7244 61.1575 102.496 72.1389 110.589 77.1513C106.756 83.1004 103.114 89.7321 99.786 96.8348C92.1333 99.0559 84.8962 101.636 78.3354 104.481C73.8134 94.9962 65.3516 76.7673 74.5331 68.9666ZM144.408 95.8618C149.819 95.4766 155.05 95.3478 160.009 95.472C159.448 100.186 158.575 105.171 157.409 110.335C153.281 105.341 148.951 100.502 144.408 95.8618ZM116.506 81.085C120.439 83.8754 124.454 87.0648 128.48 90.5895C121.901 91.5642 115.368 92.8384 108.904 94.4078C111.319 89.6654 113.869 85.1996 116.506 81.085ZM89.5139 123.588C86.5282 119.252 83.8557 114.938 81.5376 110.721C86.0629 108.772 90.9385 106.95 96.0647 105.289C93.5889 111.288 91.4031 117.396 89.5139 123.588ZM105.801 154.344C100.262 154.816 94.9913 155.02 90.0725 154.945C90.6408 150.081 91.5132 144.971 92.6725 139.72C96.8048 144.796 101.188 149.677 105.801 154.344ZM133.89 169.066C129.851 166.212 125.749 162.985 121.667 159.449C128.275 158.418 134.846 157.135 141.348 155.571C138.953 160.451 136.455 164.973 133.89 169.066ZM160.578 126.204C163.747 130.664 166.537 135.033 168.898 139.244C164.303 141.244 159.286 143.112 153.947 144.814C156.417 138.7 158.643 132.493 160.578 126.204ZM145.119 147.401C135.223 150.055 125.127 152.019 114.968 153.348C107.688 146.386 100.954 138.883 94.8502 130.921C97.4922 121.27 100.876 111.809 104.977 102.637C114.876 99.9401 124.98 97.9652 135.168 96.7462C142.369 103.711 149.052 111.183 155.216 119.032C152.525 128.688 149.118 138.171 145.119 147.401ZM150.274 53.9643C161.727 57.7224 161.136 79.1279 160.621 88.486C153.45 88.2905 145.765 88.6034 137.814 89.4183C132.036 84.0239 126.205 79.2315 120.506 75.211C126.179 67.3684 138.932 50.2433 150.274 53.9643Z" fill="#53C1DE"/>
</g>
<defs>
<clipPath id="clip0_1815_3117">
<rect width="180" height="180" fill="white" transform="translate(19.4189 53.918) rotate(-11.0495)"/>
</clipPath>
</defs>
</svg>
