<svg width="351" height="440" viewBox="0 0 351 440" fill="none" xmlns="http://www.w3.org/2000/svg">
<path d="M108.582 8.4489C110.175 8.3002 111.679 8.43098 113.094 8.84125C114.49 9.27412 115.742 9.93961 116.848 10.8377C117.933 11.7377 118.817 12.8235 119.499 14.095C120.181 15.3665 120.595 16.7881 120.742 18.3599C120.889 19.9317 120.745 21.4055 120.31 22.7813C119.875 24.1571 119.208 25.3876 118.308 26.4731C117.387 27.5604 116.28 28.4357 114.986 29.099C113.673 29.7848 112.22 30.2021 110.628 30.3508C109.2 30.4841 107.825 30.3831 106.5 30.0478C105.175 29.7125 104.004 29.123 102.986 28.2792L103.318 27.8102C104.4 28.6688 105.548 29.2396 106.764 29.5225C107.979 29.8053 109.249 29.885 110.572 29.7614C112.062 29.6223 113.422 29.2241 114.654 28.5666C115.888 27.9299 116.936 27.0914 117.799 26.0512C118.663 25.0317 119.306 23.866 119.725 22.5542C120.127 21.265 120.259 19.8862 120.122 18.4178C119.984 16.9494 119.598 15.6086 118.964 14.3953C118.31 13.2046 117.463 12.178 116.423 11.3155C115.385 10.4736 114.199 9.84371 112.867 9.42572C111.536 9.02841 110.126 8.89928 108.637 9.03833C107.314 9.16193 106.081 9.47524 104.939 9.97827C103.798 10.502 102.776 11.2859 101.873 12.3299L101.46 11.9304C102.303 10.9128 103.344 10.1063 104.582 9.51088C105.822 8.93615 107.155 8.58215 108.582 8.4489Z" fill="black"/>
<path d="M79.5516 13.4669C81.1049 13.0856 82.6116 12.9938 84.0718 13.1914C85.5167 13.4142 86.8522 13.8884 88.0784 14.6141C89.2844 15.3447 90.3182 16.2887 91.1798 17.446C92.0413 18.6034 92.6603 19.9487 93.0366 21.4818C93.413 23.0149 93.4873 24.4939 93.2595 25.9186C93.0318 27.3434 92.5526 28.6587 91.822 29.8647C91.0712 31.0757 90.1046 32.1043 88.9221 32.9507C87.7244 33.8222 86.3489 34.4485 84.7956 34.8298C83.2423 35.2111 81.7432 35.2904 80.2982 35.0676C78.8381 34.8699 77.505 34.4058 76.299 33.6752C75.0729 32.9495 74.029 32.008 73.1674 30.8506C72.3058 29.6933 71.6869 28.348 71.3105 26.8149C70.9342 25.2818 70.8599 23.8028 71.0877 22.3781C71.3154 20.9533 71.8047 19.6355 72.5554 18.4245C73.286 17.2186 74.2502 16.1798 75.4479 15.3083C76.6304 14.462 77.9983 13.8481 79.5516 13.4669ZM79.6927 14.0418C78.2403 14.3983 76.9506 14.9822 75.8237 15.7936C74.6968 16.6049 73.7807 17.5784 73.0756 18.7139C72.3755 19.8696 71.9218 21.1146 71.7146 22.4488C71.4921 23.808 71.5592 25.2139 71.9157 26.6664C72.2723 28.1188 72.8613 29.3858 73.6829 30.4674C74.4893 31.5742 75.4679 32.4676 76.6187 33.1475C77.7744 33.8477 79.0395 34.2964 80.414 34.4938C81.7885 34.6911 83.202 34.6114 84.6545 34.2549C86.1069 33.8984 87.3966 33.3144 88.5235 32.5031C89.6504 31.6918 90.5639 30.7082 91.2641 29.5525C91.9692 28.417 92.433 27.1695 92.6554 25.8102C92.8626 24.4761 92.788 23.0828 92.4315 21.6303C92.0749 20.1779 91.4935 18.8983 90.6871 17.7916C89.8655 16.7099 88.8768 15.819 87.7211 15.1189C86.5703 14.4389 85.3077 14.0002 83.9331 13.8029C82.5586 13.6056 81.1452 13.6852 79.6927 14.0418Z" fill="black"/>
<path d="M56.2194 20.545L64.5989 40.6813L64.1099 40.8848L40.9322 27.6828L41.2487 27.5511L49.3528 47.0258L48.7775 47.2652L40.398 27.1289L40.887 26.9254L64.0647 40.1274L63.7482 40.2591L55.6441 20.7844L56.2194 20.545Z" fill="black"/>
<path d="M23.7559 35.9958L34.4253 54.3364L41.4276 50.2629L41.7253 50.7746L27.1821 59.235L26.8844 58.7233L33.8867 54.6498L23.2173 36.3092L23.7559 35.9958Z" fill="black"/>
<path d="M9.73206 44.5502L14.8792 68.0392L14.3832 68.4165L-6.88169 57.1903L-6.31136 56.7563L14.4533 67.7368L14.2054 67.9255L9.16173 44.9841L9.73206 44.5502ZM11.0595 51.8009L11.17 52.4607L0.383437 60.6673L-0.222978 60.3849L11.0595 51.8009Z" fill="black"/>
<path d="M-21.4824 70.9271C-20.3521 69.7955 -19.1114 68.9356 -17.7605 68.3473C-16.4095 67.7885 -15.0217 67.5013 -13.597 67.4858C-12.1869 67.4851 -10.8135 67.756 -9.47661 68.2987C-8.13972 68.8415 -6.91284 69.6707 -5.79596 70.7863C-4.67907 71.902 -3.84854 73.1279 -3.30437 74.4642C-2.76019 75.8005 -2.48771 77.1737 -2.48694 78.5837C-2.50085 80.0084 -2.79385 81.3893 -3.36595 82.7262C-3.93802 84.0924 -4.78923 85.3414 -5.91957 86.4729C-6.93248 87.4869 -8.05566 88.288 -9.28911 88.8762C-10.5226 89.4644 -11.8002 89.7589 -13.1221 89.7596L-13.1665 89.1868C-11.7859 89.1567 -10.5376 88.8622 -9.42161 88.3035C-8.30564 87.7447 -7.27791 86.9951 -6.3384 86.0546C-5.28146 84.9965 -4.48896 83.821 -3.96091 82.5282C-3.41816 81.2501 -3.14716 79.9354 -3.14789 78.5841C-3.13394 77.2475 -3.38434 75.9404 -3.89911 74.6629C-4.41387 73.4147 -5.19295 72.2694 -6.23635 71.2272C-7.27975 70.1849 -8.43317 69.3998 -9.69661 68.8717C-10.96 68.373 -12.2674 68.124 -13.6187 68.1248C-14.9552 68.1402 -16.2696 68.4126 -17.5619 68.9421C-18.8394 69.4862 -20.0067 70.2873 -21.0636 71.3454C-22.0031 72.286 -22.7516 73.3145 -23.3092 74.4311C-23.852 75.5624 -24.1377 76.8183 -24.1663 78.199L-24.7392 78.1552C-24.7399 76.8333 -24.4542 75.548 -23.882 74.2992C-23.2952 73.0651 -22.4953 71.9411 -21.4824 70.9271Z" fill="black"/>
<path d="M-2.49099 371.071L6.90613 378.824L6.52939 379.28L-2.86773 371.527L-2.49099 371.071ZM-9.23155 379.485L1.48742 388.329L1.11067 388.786L-10.089 379.546L3.79113 362.722L14.6303 371.665L14.2535 372.121L3.89505 363.575L-9.23155 379.485Z" fill="black"/>
<path d="M19.7468 401.449C18.3868 400.607 17.2661 399.596 16.3847 398.415C15.5319 397.227 14.9351 395.942 14.5945 394.558C14.2715 393.186 14.2214 391.787 14.4442 390.361C14.667 388.936 15.1938 387.552 16.0247 386.209C16.8556 384.867 17.8593 383.778 19.0359 382.943C20.2124 382.108 21.487 381.529 22.8595 381.206C24.2497 380.894 25.6609 380.864 27.0932 381.115C28.5541 381.36 29.9645 381.903 31.3244 382.745C32.5431 383.499 33.5797 384.409 34.4342 385.476C35.2887 386.542 35.8674 387.719 36.1702 389.006L35.6227 389.18C35.2778 387.842 34.7059 386.694 33.9069 385.736C33.1079 384.777 32.1432 383.948 31.0129 383.248C29.7412 382.461 28.4157 381.958 27.0365 381.739C25.6681 381.503 24.3263 381.54 23.0109 381.849C21.7065 382.141 20.4912 382.684 19.3652 383.477C18.2676 384.263 17.3308 385.283 16.5546 386.537C15.7784 387.791 15.2776 389.094 15.0522 390.444C14.8555 391.788 14.9119 393.118 15.2214 394.433C15.5419 395.731 16.1075 396.948 16.9183 398.085C17.74 399.205 18.7867 400.158 20.0584 400.945C21.1887 401.645 22.3611 402.139 23.5756 402.426C24.801 402.696 26.089 402.687 27.4397 402.4L27.528 402.967C26.2412 403.27 24.9246 403.286 23.5781 403.014C22.2426 402.725 20.9655 402.203 19.7468 401.449Z" fill="black"/>
<path d="M45.9303 414.957C44.4613 414.324 43.2041 413.489 42.1586 412.45C41.1404 411.401 40.3611 410.217 39.8206 408.899C39.2993 407.589 39.044 406.213 39.0547 404.77C39.0655 403.327 39.383 401.881 40.0075 400.431C40.6319 398.981 41.4646 397.756 42.5055 396.757C43.5465 395.758 44.722 394.998 46.0321 394.476C47.3613 393.963 48.7527 393.726 50.2064 393.764C51.6873 393.791 53.1623 394.121 54.6313 394.754C56.1002 395.386 57.3438 396.227 58.362 397.276C59.4075 398.315 60.191 399.489 60.7123 400.799C61.2527 402.117 61.5176 403.498 61.5068 404.941C61.4961 406.383 61.1785 407.83 60.5541 409.28C59.9297 410.73 59.097 411.954 58.056 412.953C57.0151 413.952 55.83 414.708 54.5009 415.222C53.1908 415.743 51.7952 415.99 50.3143 415.963C48.8606 415.925 47.3993 415.589 45.9303 414.957ZM46.1645 414.413C47.538 415.005 48.919 415.317 50.3072 415.349C51.6954 415.382 53.0131 415.158 54.2605 414.677C55.516 414.177 56.6287 413.458 57.5986 412.519C58.5958 411.569 59.3902 410.407 59.9818 409.033C60.5733 407.66 60.8676 406.294 60.8645 404.935C60.8888 403.566 60.647 402.263 60.1391 401.027C59.6395 399.771 58.901 398.65 57.9236 397.664C56.9462 396.678 55.7707 395.889 54.3971 395.297C53.0235 394.706 51.6426 394.394 50.2544 394.361C48.8662 394.329 47.5443 394.562 46.2888 395.062C45.0415 395.543 43.9192 396.258 42.922 397.208C41.9521 398.147 41.1714 399.304 40.5798 400.677C39.9882 402.051 39.6803 403.422 39.6561 404.791C39.6591 406.15 39.9105 407.457 40.4101 408.712C40.9179 409.948 41.6606 411.06 42.638 412.046C43.6154 413.033 44.7909 413.821 46.1645 414.413Z" fill="black"/>
<path d="M68.8073 423.383L74.2674 402.267L74.7802 402.4L85.3062 426.909L84.9743 426.823L90.255 406.401L90.8583 406.557L85.3982 427.673L84.8854 427.54L74.3595 403.031L74.6913 403.117L69.4106 423.539L68.8073 423.383Z" fill="black"/>
<path d="M104.024 430.638L106.574 409.574L98.532 408.6L98.6032 408.013L115.306 410.035L115.235 410.623L107.193 409.649L104.642 430.713L104.024 430.638Z" fill="black"/>
<path d="M120.366 432.271L130.426 410.43L131.049 410.428L141.241 432.208L140.525 432.21L130.584 410.928L130.895 410.927L121.083 432.268L120.366 432.271ZM123.68 425.686L123.99 425.093L137.543 425.053L137.857 425.644L123.68 425.686Z" fill="black"/>
<path d="M161.177 430.057C159.593 430.278 158.084 430.216 156.652 429.87C155.237 429.501 153.957 428.893 152.811 428.046C151.686 427.196 150.754 426.152 150.015 424.913C149.276 423.674 148.797 422.272 148.579 420.709C148.361 419.145 148.438 417.666 148.81 416.272C149.182 414.878 149.793 413.619 150.642 412.493C151.513 411.365 152.579 410.441 153.842 409.719C155.122 408.974 156.554 408.491 158.138 408.271C159.558 408.073 160.937 408.111 162.276 408.386C163.614 408.66 164.811 409.196 165.866 409.993L165.556 410.476C164.436 409.668 163.263 409.15 162.036 408.922C160.809 408.695 159.537 408.673 158.22 408.857C156.739 409.063 155.398 409.523 154.197 410.236C152.993 410.928 151.984 411.813 151.17 412.892C150.353 413.949 149.764 415.143 149.404 416.473C149.062 417.779 148.993 419.162 149.196 420.623C149.4 422.083 149.847 423.405 150.536 424.588C151.243 425.748 152.136 426.735 153.214 427.55C154.289 428.343 155.502 428.919 156.852 429.276C158.2 429.612 159.614 429.677 161.095 429.471C162.412 429.287 163.629 428.918 164.747 428.364C165.862 427.789 166.848 426.959 167.703 425.875L168.134 426.255C167.337 427.31 166.334 428.163 165.125 428.814C163.912 429.445 162.596 429.859 161.177 430.057Z" fill="black"/>
<path d="M185.211 424.961L179.652 404.484L171.834 406.606L171.679 406.035L187.916 401.627L188.071 402.198L180.253 404.321L185.812 424.798L185.211 424.961Z" fill="black"/>
<path d="M204.681 418.975L196.054 398.943L196.541 398.734L213.243 411.285L212.985 411.395L215.313 390.649L215.8 390.439L224.427 410.471L223.854 410.717L215.585 391.516L215.814 391.417L213.506 411.816L213.162 411.964L196.726 399.638L196.984 399.527L205.254 418.728L204.681 418.975Z" fill="black"/>
<path d="M231.286 393.646L241.625 387.202L241.938 387.705L231.599 394.148L231.286 393.646ZM237.12 402.713L248.913 395.363L249.226 395.866L236.904 403.545L225.369 385.034L237.295 377.602L237.608 378.105L226.211 385.207L237.12 402.713Z" fill="black"/>
<path d="M267.156 382.223C265.926 383.245 264.611 383.986 263.211 384.446C261.814 384.876 260.405 385.033 258.985 384.916C257.581 384.786 256.239 384.389 254.958 383.724C253.678 383.059 252.533 382.12 251.525 380.905C250.517 379.69 249.804 378.392 249.386 377.011C248.968 375.63 248.825 374.238 248.955 372.834C249.101 371.416 249.522 370.069 250.215 368.791C250.912 367.484 251.876 366.319 253.106 365.298C254.209 364.382 255.402 363.689 256.685 363.218C257.968 362.747 259.267 362.573 260.583 362.695L260.574 363.269C259.197 363.171 257.926 363.348 256.763 363.801C255.6 364.253 254.507 364.904 253.484 365.753C252.334 366.708 251.435 367.805 250.789 369.043C250.13 370.265 249.738 371.549 249.613 372.895C249.475 374.224 249.603 375.549 249.997 376.869C250.393 378.159 251.062 379.372 252.004 380.507C252.946 381.642 254.022 382.531 255.231 383.174C256.442 383.788 257.721 384.157 259.066 384.282C260.398 384.391 261.732 384.242 263.068 383.835C264.391 383.412 265.628 382.723 266.778 381.768C267.801 380.919 268.642 379.964 269.301 378.904C269.947 377.828 270.348 376.604 270.505 375.232L271.071 375.329C270.949 376.645 270.545 377.898 269.859 379.089C269.16 380.263 268.259 381.308 267.156 382.223Z" fill="black"/>
<path d="M288.293 361.697C287.226 362.888 286.034 363.814 284.717 364.475C283.399 365.107 282.028 365.469 280.607 365.562C279.199 365.64 277.813 365.444 276.448 364.975C275.084 364.506 273.813 363.745 272.637 362.692C271.461 361.639 270.565 360.46 269.949 359.155C269.333 357.85 268.986 356.494 268.909 355.086C268.845 353.663 269.062 352.268 269.561 350.902C270.057 349.507 270.839 348.213 271.906 347.022C272.973 345.83 274.166 344.919 275.485 344.287C276.802 343.626 278.164 343.257 279.572 343.179C280.994 343.086 282.387 343.274 283.751 343.743C285.116 344.212 286.386 344.973 287.562 346.027C288.738 347.08 289.634 348.259 290.25 349.563C290.866 350.868 291.206 352.232 291.27 353.655C291.348 355.063 291.138 356.465 290.641 357.86C290.143 359.226 289.36 360.505 288.293 361.697ZM287.852 361.302C288.85 360.188 289.585 358.978 290.057 357.672C290.529 356.366 290.736 355.046 290.677 353.71C290.603 352.361 290.275 351.077 289.693 349.859C289.109 348.611 288.26 347.489 287.146 346.491C286.032 345.493 284.831 344.78 283.542 344.351C282.252 343.892 280.94 343.707 279.606 343.795C278.257 343.869 276.959 344.213 275.713 344.826C274.467 345.439 273.345 346.302 272.347 347.417C271.35 348.531 270.615 349.741 270.142 351.046C269.67 352.352 269.471 353.68 269.545 355.029C269.604 356.364 269.925 357.656 270.509 358.903C271.091 360.122 271.939 361.23 273.053 362.227C274.167 363.225 275.369 363.953 276.66 364.412C277.948 364.841 279.267 365.018 280.617 364.944C281.95 364.856 283.24 364.505 284.486 363.892C285.732 363.279 286.854 362.416 287.852 361.302Z" fill="black"/>
<path d="M303.555 342.686L285.272 330.793L285.561 330.349L312.145 328.165L311.958 328.452L294.277 316.95L294.616 316.428L312.899 328.321L312.61 328.765L286.026 330.949L286.213 330.661L303.894 342.163L303.555 342.686Z" fill="black"/>
<path d="M321.636 311.603L302.477 302.485L298.996 309.8L298.461 309.545L305.691 294.353L306.226 294.607L302.745 301.922L321.904 311.04L321.636 311.603Z" fill="black"/>
<path d="M328.385 296.632L310.879 280.147L311.075 279.555L334.965 276.82L334.739 277.5L311.401 280.156L311.499 279.86L328.611 295.951L328.385 296.632ZM323.197 291.395L322.733 290.913L327.006 278.051L327.666 277.941L323.197 291.395Z" fill="black"/>
<path d="M339.264 257.236C338.969 258.808 338.43 260.218 337.647 261.466C336.848 262.69 335.864 263.71 334.697 264.527C333.533 265.324 332.246 265.875 330.836 266.182C329.427 266.488 327.946 266.496 326.394 266.206C324.842 265.915 323.465 265.372 322.261 264.576C321.058 263.78 320.058 262.8 319.262 261.637C318.469 260.453 317.931 259.148 317.649 257.721C317.35 256.27 317.348 254.759 317.642 253.187C317.906 251.778 318.381 250.483 319.067 249.301C319.754 248.12 320.642 247.155 321.733 246.409L322.093 246.856C320.97 247.661 320.106 248.608 319.5 249.699C318.894 250.79 318.469 251.989 318.224 253.296C317.949 254.766 317.958 256.184 318.252 257.549C318.525 258.91 319.044 260.148 319.807 261.264C320.55 262.375 321.494 263.312 322.64 264.076C323.77 264.816 325.059 265.322 326.509 265.593C327.958 265.865 329.354 265.862 330.695 265.585C332.019 265.283 333.239 264.751 334.354 263.988C335.449 263.221 336.38 262.254 337.148 261.087C337.895 259.917 338.406 258.597 338.682 257.127C338.926 255.82 338.964 254.549 338.794 253.312C338.603 252.072 338.13 250.874 337.375 249.718L337.872 249.431C338.619 250.522 339.109 251.744 339.341 253.098C339.553 254.448 339.527 255.827 339.264 257.236Z" fill="black"/>
<path d="M342.081 232.831L320.899 231.588L320.424 239.675L319.833 239.64L320.819 222.844L321.41 222.879L320.935 230.966L342.117 232.209L342.081 232.831Z" fill="black"/>
<path d="M342.596 212.468L320.861 214.276L320.817 213.748L338.029 201.905L338.052 202.184L319.123 193.379L319.079 192.851L340.814 191.043L340.866 191.664L320.031 193.397L320.011 193.149L338.616 201.825L338.647 202.197L321.733 213.859L321.71 213.58L342.545 211.847L342.596 212.468Z" fill="black"/>
<path d="M327.042 179.188L324.222 167.337L324.797 167.2L327.617 179.051L327.042 179.188ZM337.493 176.541L334.277 163.023L334.852 162.886L338.213 177.011L316.995 182.059L313.743 168.389L314.319 168.252L317.427 181.316L337.493 176.541Z" fill="black"/>
<path d="M327.622 141.548C328.199 143.04 328.483 144.522 328.474 145.996C328.438 147.457 328.139 148.842 327.576 150.151C327.006 151.441 326.202 152.587 325.165 153.59C324.127 154.593 322.872 155.379 321.4 155.948C319.928 156.518 318.471 156.781 317.028 156.738C315.586 156.694 314.22 156.388 312.931 155.818C311.634 155.228 310.49 154.401 309.499 153.337C308.481 152.261 307.684 150.977 307.106 149.485C306.589 148.148 306.312 146.797 306.273 145.431C306.235 144.065 306.483 142.777 307.017 141.568L307.559 141.76C307.027 143.034 306.791 144.295 306.85 145.542C306.91 146.788 307.179 148.032 307.659 149.271C308.198 150.666 308.952 151.867 309.921 152.873C310.87 153.887 311.962 154.667 313.198 155.213C314.414 155.767 315.711 156.067 317.088 156.114C318.437 156.148 319.8 155.899 321.175 155.367C322.551 154.835 323.736 154.098 324.73 153.157C325.697 152.203 326.454 151.109 327.001 149.873C327.528 148.645 327.811 147.332 327.85 145.936C327.869 144.548 327.609 143.156 327.07 141.761C326.59 140.522 325.953 139.421 325.157 138.459C324.343 137.505 323.31 136.735 322.059 136.15L322.331 135.644C323.54 136.178 324.6 136.96 325.51 137.989C326.401 139.025 327.105 140.211 327.622 141.548Z" fill="black"/>
<path d="M314.887 114.979C315.677 116.369 316.176 117.794 316.384 119.253C316.563 120.704 316.471 122.118 316.107 123.495C315.733 124.855 315.106 126.107 314.227 127.251C313.349 128.396 312.223 129.358 310.851 130.138C309.478 130.918 308.075 131.392 306.642 131.561C305.21 131.731 303.813 131.628 302.454 131.254C301.084 130.861 299.831 130.212 298.695 129.305C297.53 128.39 296.552 127.237 295.762 125.847C294.972 124.456 294.487 123.035 294.307 121.584C294.1 120.126 294.183 118.716 294.557 117.357C294.921 115.979 295.542 114.719 296.421 113.574C297.3 112.43 298.425 111.468 299.798 110.688C301.17 109.908 302.573 109.433 304.006 109.264C305.439 109.095 306.84 109.206 308.21 109.599C309.569 109.973 310.832 110.617 311.997 111.532C313.133 112.439 314.097 113.588 314.887 114.979ZM314.372 115.271C313.633 113.971 312.72 112.889 311.632 112.026C310.544 111.163 309.358 110.547 308.073 110.178C306.771 109.819 305.449 109.722 304.109 109.886C302.74 110.043 301.406 110.49 300.106 111.229C298.806 111.968 297.747 112.88 296.93 113.966C296.085 115.043 295.492 116.228 295.152 117.521C294.793 118.824 294.706 120.163 294.891 121.539C295.076 122.916 295.538 124.254 296.276 125.554C297.015 126.854 297.929 127.936 299.016 128.799C300.104 129.662 301.3 130.273 302.602 130.632C303.887 131.001 305.214 131.107 306.582 130.951C307.922 130.786 309.242 130.335 310.543 129.596C311.843 128.857 312.916 127.949 313.761 126.871C314.578 125.786 315.165 124.592 315.524 123.289C315.864 121.997 315.942 120.662 315.758 119.286C315.573 117.91 315.111 116.571 314.372 115.271Z" fill="black"/>
<path d="M301.716 94.46L284.626 108.01L284.297 107.595L290.682 81.697L290.895 81.9655L274.366 95.0707L273.979 94.5824L291.069 81.032L291.398 81.4471L285.013 107.345L284.8 107.077L301.329 93.9717L301.716 94.46Z" fill="black"/>
<path d="M278.001 67.4352L263.263 82.6994L269.09 88.3264L268.679 88.7523L256.575 77.0655L256.986 76.6396L262.814 82.2666L277.553 67.0024L278.001 67.4352Z" fill="black"/>
<path d="M265.952 56.2748L244.755 67.629L244.257 67.2547L249.262 43.7351L249.835 44.1656L244.93 67.1369L244.681 66.9497L265.379 55.8444L265.952 56.2748ZM259.337 59.5282L258.733 59.8143L247.897 51.6729L248.003 51.0124L259.337 59.5282Z" fill="black"/>
<path d="M232.064 33.4269C233.461 34.2061 234.626 35.1654 235.56 36.3049C236.466 37.4524 237.121 38.7094 237.524 40.076C237.909 41.4324 238.023 42.8277 237.865 44.2619C237.707 45.6961 237.244 47.1025 236.475 48.4812C235.706 49.8599 234.753 50.9931 233.615 51.8809C232.478 52.7687 231.231 53.4051 229.874 53.7901C228.5 54.165 227.091 54.2595 225.649 54.0734C224.179 53.8954 222.745 53.4168 221.348 52.6376C220.097 51.9395 219.02 51.0771 218.118 50.0507C217.216 49.0242 216.584 47.8752 216.223 46.6035L216.762 46.4047C217.167 47.7249 217.791 48.8457 218.633 49.7671C219.474 50.6885 220.476 51.4731 221.637 52.1206C222.943 52.8492 224.29 53.2913 225.678 53.447C227.055 53.6209 228.394 53.5233 229.694 53.1543C230.984 52.8034 232.173 52.2063 233.262 51.3628C234.323 50.5273 235.212 49.4656 235.931 48.1776C236.649 46.8897 237.09 45.5659 237.254 44.2064C237.389 42.8549 237.272 41.5292 236.903 40.2292C236.524 38.9475 235.904 37.7571 235.042 36.6581C234.171 35.5772 233.082 34.6725 231.776 33.9439C230.615 33.2964 229.421 32.8565 228.195 32.6244C226.958 32.4105 225.672 32.4779 224.336 32.8266L224.222 32.2635C225.493 31.9026 226.808 31.8271 228.165 32.0373C229.513 32.2655 230.812 32.7288 232.064 33.4269Z" fill="black"/>
<path d="M209.818 22.9955L201.903 42.6821L209.419 45.7041L209.198 46.2534L193.588 39.9769L193.809 39.4276L201.325 42.4496L209.24 22.7631L209.818 22.9955Z" fill="black"/>
<path d="M190.678 16.0294L185.479 37.2108L184.964 37.0846L179.211 17.0003L179.483 17.0671L165.114 32.2119L164.6 32.0857L169.799 10.9042L170.404 11.0528L165.42 31.3567L165.178 31.2973L179.322 16.4179L179.685 16.507L185.361 36.2516L185.089 36.1848L190.073 15.8808L190.678 16.0294Z" fill="black"/>
<path d="M154.179 20.1913L142.046 19.0952L142.099 18.5057L154.232 19.6018L154.179 20.1913ZM154.994 9.44056L141.154 8.19027L141.207 7.60068L155.668 8.90703L153.705 30.6288L139.71 29.3645L139.764 28.7749L153.138 29.9832L154.994 9.44056Z" fill="black"/>
<g clip-path="url(#clip0_1806_2960)">
<rect x="-23.9307" y="226.893" width="218.75" height="218.75" transform="rotate(-47.8733 -23.9307 226.893)" fill="#FFCA28"/>
<path d="M200.09 250.426L202.99 231.332C206.777 233.056 219.123 233.446 225.896 225.958C232.668 218.47 231.722 211.294 229.011 208.842C221.622 202.16 212.102 207.45 207.529 209.99C206.784 210.404 206.17 210.746 205.718 210.95C205.487 211.055 205.15 211.226 204.718 211.445C199.464 214.119 180.078 223.981 163.39 208.888C145.009 192.263 158.939 172.612 162.567 168.601C164.94 165.976 176.675 153.648 194.168 158.045L191.775 176.948C184.331 174.834 178.813 177.517 176.463 180.116C170.658 186.534 174.154 192.126 176.296 194.063C182.306 199.499 191.306 194.962 198.906 191.131C200.894 190.129 202.786 189.175 204.504 188.46C213.342 184.785 226.851 179.825 242.475 193.955C250.301 201.033 257.034 219.055 242.089 235.579C222.014 257.776 203.367 251.607 200.09 250.426Z" fill="#3E3E3E"/>
<path d="M149.256 309.788L152.616 290.193C156.438 291.876 165.286 292.987 170.26 287.487C175.235 281.987 172.132 274.062 169.422 271.611L116.143 223.425L129.991 208.113L183.27 256.3C190.843 262.698 201.854 280.067 185.586 298.054C170.629 314.592 154.582 312.578 149.256 309.788Z" fill="#3E3E3E"/>
</g>
<defs>
<clipPath id="clip0_1806_2960">
<rect width="250" height="250" fill="white" transform="translate(-46 228) rotate(-47.8733)"/>
</clipPath>
</defs>
</svg>
