<svg width="82" height="82" viewBox="0 0 82 82" fill="none" xmlns="http://www.w3.org/2000/svg">
<path d="M72.3869 77.5257C63.701 86.2116 41.457 78.0501 22.7034 59.2966C3.94989 40.543 -4.2116 18.299 4.47424 9.61311L10.1932 3.89415C14.1413 -0.0539741 20.6469 0.0503895 24.7237 4.12725L33.5819 12.9854C37.6588 17.0623 37.7631 23.5678 33.815 27.5159L32.5866 28.7443C30.455 30.876 30.2464 34.3147 32.2271 36.715C34.1376 39.0302 36.1973 41.3362 38.4306 43.5694C40.6638 45.8027 42.9698 47.8624 45.285 49.7729C47.6853 51.7536 51.124 51.545 53.2557 49.4134L54.4841 48.185C58.4322 44.2369 64.9377 44.3412 69.0146 48.4181L77.8728 57.2763C81.9496 61.3532 82.054 67.8587 78.1059 71.8068L72.3869 77.5257Z" stroke="#2B3F6C" stroke-width="1.5"/>
</svg>
