<svg width="163" height="350" viewBox="0 0 163 350" fill="none" xmlns="http://www.w3.org/2000/svg">
<path d="M158.084 6.61103C159.351 6.49265 160.549 6.59676 161.675 6.92338C162.787 7.268 163.783 7.79781 164.664 8.51279C165.528 9.22932 166.232 10.0937 166.774 11.106C167.317 12.1182 167.647 13.25 167.764 14.5013C167.881 15.7527 167.766 16.926 167.42 18.0213C167.074 19.1165 166.543 20.0962 165.826 20.9604C165.093 21.826 164.212 22.5229 163.181 23.0509C162.136 23.5969 160.98 23.9291 159.712 24.0475C158.576 24.1536 157.48 24.0732 156.426 23.8063C155.371 23.5394 154.439 23.07 153.629 22.3983L153.893 22.0248C154.754 22.7084 155.668 23.1628 156.636 23.388C157.604 23.6132 158.614 23.6766 159.668 23.5782C160.854 23.4675 161.937 23.1505 162.918 22.6271C163.9 22.1201 164.734 21.4526 165.421 20.6245C166.109 19.8128 166.621 18.8848 166.955 17.8405C167.274 16.8142 167.379 15.7165 167.27 14.5475C167.161 13.3785 166.854 12.311 166.348 11.345C165.828 10.3971 165.154 9.57982 164.326 8.89315C163.499 8.22295 162.555 7.72146 161.495 7.38869C160.435 7.07239 159.313 6.96959 158.127 7.08028C157.074 7.17868 156.092 7.42811 155.183 7.82858C154.275 8.24552 153.461 8.86958 152.742 9.70077L152.413 9.38268C153.085 8.57257 153.914 7.9305 154.899 7.45649C155.886 6.99893 156.948 6.71711 158.084 6.61103Z" fill="black"/>
<path d="M134.955 10.609C136.192 10.3055 137.391 10.2324 138.554 10.3898C139.704 10.5671 140.767 10.9447 141.743 11.5224C142.703 12.104 143.526 12.8555 144.212 13.7769C144.898 14.6983 145.391 15.7693 145.691 16.9899C145.99 18.2104 146.049 19.3878 145.868 20.5221C145.687 21.6564 145.305 22.7036 144.724 23.6637C144.126 24.6277 143.356 25.4466 142.415 26.1204C141.461 26.8142 140.366 27.3129 139.13 27.6165C137.893 27.92 136.7 27.9831 135.549 27.8057C134.387 27.6484 133.326 27.2789 132.366 26.6972C131.389 26.1195 130.558 25.3699 129.872 24.4486C129.186 23.5272 128.694 22.4562 128.394 21.2356C128.094 20.0151 128.035 18.8377 128.217 17.7034C128.398 16.5691 128.787 15.52 129.385 14.5559C129.967 13.5958 130.734 12.7689 131.688 12.0751C132.629 11.4013 133.718 10.9126 134.955 10.609ZM135.067 11.0667C133.911 11.3506 132.884 11.8155 131.987 12.4614C131.09 13.1073 130.361 13.8823 129.799 14.7863C129.242 15.7064 128.881 16.6975 128.716 17.7597C128.539 18.8418 128.592 19.9611 128.876 21.1174C129.16 22.2737 129.629 23.2824 130.283 24.1435C130.925 25.0246 131.704 25.7358 132.62 26.2772C133.54 26.8346 134.547 27.1918 135.642 27.3489C136.736 27.506 137.861 27.4426 139.017 27.1588C140.174 26.8749 141.2 26.41 142.098 25.7641C142.995 25.1182 143.722 24.3352 144.279 23.4151C144.841 22.5111 145.21 21.518 145.387 20.4358C145.552 19.3737 145.493 18.2644 145.209 17.1081C144.925 15.9518 144.462 14.9331 143.82 14.052C143.166 13.1909 142.379 12.4817 141.459 11.9243C140.543 11.3829 139.537 11.0337 138.443 10.8766C137.349 10.7195 136.224 10.7829 135.067 11.0667Z" fill="black"/>
<path d="M116.363 16.2482L123.034 32.279L122.645 32.441L104.193 21.9307L104.445 21.8258L110.897 37.3299L110.439 37.5205L103.768 21.4897L104.157 21.3277L122.609 31.8381L122.357 31.9429L115.905 16.4388L116.363 16.2482Z" fill="black"/>
<path d="M90.5038 28.5556L98.9979 43.1568L104.573 39.9139L104.81 40.3212L93.2315 47.0567L92.9945 46.6493L98.5691 43.4063L90.075 28.8051L90.5038 28.5556Z" fill="black"/>
<path d="M79.3275 35.3747L83.4252 54.0746L83.0304 54.375L66.1011 45.4376L66.5551 45.0922L83.0862 53.8339L82.8888 53.9841L78.8735 35.7201L79.3275 35.3747ZM80.3843 41.1471L80.4723 41.6724L71.8849 48.2058L71.4022 47.9809L80.3843 41.1471Z" fill="black"/>
<path d="M54.4651 56.3843C55.365 55.4834 56.3527 54.7988 57.4282 54.3305C58.5037 53.8856 59.6086 53.6569 60.7428 53.6446C61.8654 53.644 62.9588 53.8597 64.0231 54.2918C65.0874 54.7239 66.0642 55.384 66.9534 56.2722C67.8425 57.1604 68.5037 58.1364 68.9369 59.2002C69.3702 60.2641 69.5871 61.3573 69.5877 62.4798C69.5766 63.6141 69.3434 64.7134 68.8879 65.7777C68.4325 66.8654 67.7548 67.8597 66.8549 68.7606C66.0486 69.5678 65.1544 70.2056 64.1724 70.6739C63.1904 71.1421 62.1733 71.3765 61.1209 71.3771L61.0855 70.9211C62.1847 70.8971 63.1785 70.6627 64.0669 70.2179C64.9554 69.7731 65.7735 69.1763 66.5215 68.4275C67.363 67.5851 67.9939 66.6493 68.4143 65.6201C68.8464 64.6025 69.0621 63.5559 69.0615 62.4801C69.0726 61.416 68.8733 60.3754 68.4635 59.3584C68.0537 58.3647 67.4334 57.4529 66.6028 56.6232C65.7721 55.7934 64.8538 55.1683 63.848 54.7479C62.8422 54.3509 61.8013 54.1527 60.7256 54.1533C59.6615 54.1656 58.6151 54.3825 57.5863 54.804C56.5692 55.2372 55.64 55.875 54.7985 56.7173C54.0506 57.4661 53.4547 58.2849 53.0108 59.1739C52.5787 60.0745 52.3512 61.0744 52.3284 62.1735L51.8724 62.1387C51.8718 61.0863 52.0992 60.0631 52.5547 59.0689C53.0219 58.0864 53.6587 57.1915 54.4651 56.3843Z" fill="black"/>
<path d="M41.6363 71.1706L54.9982 81.5052L58.9439 76.4038L59.3167 76.6921L51.1218 87.2875L50.749 86.9991L54.6947 81.8977L41.3328 71.563L41.6363 71.1706Z" fill="black"/>
<path d="M32.1386 84.337L47.2349 92.9156L47.0265 93.2823L30.3941 93.3313L30.5044 93.1372L38.9871 107.43L38.7788 107.796L23.6825 99.2177L23.9276 98.7863L38.3985 107.01L38.3004 107.182L29.9721 93.12L30.1191 92.8612L46.4746 92.7975L46.3643 92.9916L31.8935 84.7683L32.1386 84.337Z" fill="black"/>
<path d="M27.4011 113.208L23.9288 122.264L23.4888 122.095L26.961 113.039L27.4011 113.208ZM19.343 110.251L15.3823 120.581L14.9423 120.412L19.0806 109.619L35.2932 115.835L31.2881 126.281L30.848 126.112L34.6755 116.13L19.343 110.251Z" fill="black"/>
<path d="M10.0974 137.699C10.3884 136.46 10.8679 135.358 11.5359 134.394C12.2163 133.449 13.0354 132.673 13.9933 132.066C14.9475 131.474 15.9908 131.082 17.1231 130.89C18.2555 130.697 19.4335 130.744 20.657 131.031C21.8805 131.319 22.9564 131.8 23.8847 132.477C24.813 133.154 25.5728 133.969 26.1642 134.923C26.7517 135.893 27.132 136.951 27.3049 138.095C27.4901 139.26 27.4372 140.462 27.1462 141.702C26.8854 142.813 26.4608 143.826 25.8723 144.74C25.2838 145.655 24.5423 146.39 23.6478 146.945L23.3777 146.575C24.2997 145.977 25.0213 145.254 25.5426 144.408C26.0639 143.562 26.4455 142.624 26.6874 141.594C26.9595 140.435 27.0034 139.307 26.8192 138.211C26.651 137.118 26.2836 136.115 25.7169 135.2C25.1663 134.29 24.4491 133.51 23.5653 132.861C22.6939 132.231 21.6866 131.783 20.5436 131.514C19.4006 131.246 18.2908 131.198 17.2143 131.37C16.1501 131.561 15.1608 131.941 14.2464 132.507C13.3481 133.078 12.5725 133.813 11.9196 134.713C11.2828 135.617 10.8283 136.648 10.5562 137.807C10.3143 138.837 10.2386 139.847 10.3291 140.837C10.4356 141.83 10.7685 142.8 11.3276 143.747L10.9215 143.957C10.3671 143.062 10.022 142.073 9.88602 140.988C9.76616 139.906 9.83662 138.81 10.0974 137.699Z" fill="black"/>
<path d="M6.52894 160.902C6.63447 159.633 6.94671 158.473 7.46564 157.42C7.99968 156.386 8.6958 155.498 9.55399 154.757C10.4108 154.031 11.3851 153.49 12.4768 153.133C13.5685 152.776 14.7406 152.649 15.993 152.753C17.2455 152.857 18.3806 153.176 19.3983 153.709C20.416 154.241 21.2874 154.936 22.0127 155.793C22.7366 156.666 23.2682 157.656 23.6076 158.763C23.9621 159.888 24.0865 161.084 23.981 162.353C23.8755 163.622 23.5557 164.774 23.0216 165.808C22.5027 166.86 21.8148 167.749 20.958 168.474C20.0998 169.216 19.1249 169.765 18.0332 170.122C16.9415 170.48 15.7694 170.606 14.5169 170.502C13.2644 170.398 12.1294 170.079 11.1117 169.547C10.094 169.014 9.22319 168.311 8.49932 167.438C7.77408 166.581 7.23421 165.59 6.87971 164.466C6.54033 163.359 6.4234 162.171 6.52894 160.902ZM6.99861 160.941C6.89993 162.128 7.0141 163.249 7.34112 164.305C7.66813 165.361 8.17091 166.299 8.84945 167.118C9.54448 167.94 10.3692 168.597 11.3238 169.091C12.2934 169.604 13.3715 169.909 14.558 170.008C15.7446 170.106 16.8501 169.983 17.8745 169.636C18.914 169.308 19.8361 168.796 20.6407 168.099C21.4618 167.404 22.1209 166.563 22.6179 165.575C23.1148 164.588 23.4126 163.501 23.5113 162.314C23.61 161.128 23.4958 160.007 23.1688 158.95C22.8418 157.894 22.3308 156.956 21.6358 156.135C20.9572 155.315 20.1331 154.649 19.1635 154.137C18.209 153.643 17.1385 153.346 15.9519 153.248C14.7654 153.149 13.6523 153.264 12.6128 153.592C11.5884 153.938 10.6656 154.459 9.8445 155.154C9.03987 155.851 8.38906 156.692 7.89209 157.68C7.39512 158.667 7.0973 159.754 6.99861 160.941Z" fill="black"/>
<path d="M5.96464 180.323L23.2848 179.097L23.3146 179.518L7.48106 193.669L7.4618 193.397L24.2129 192.211L24.2479 192.706L6.92773 193.932L6.89796 193.511L22.7315 179.36L22.7507 179.632L5.99966 180.818L5.96464 180.323Z" fill="black"/>
<path d="M9.40606 208.753L25.9507 205.344L24.6493 199.028L25.1109 198.933L27.8139 212.052L27.3523 212.147L26.0508 205.83L9.50618 209.239L9.40606 208.753Z" fill="black"/>
<path d="M12.3157 221.517L31.3479 223.58L31.5071 224.05L17.6492 237.257L17.4661 236.717L31.0118 223.825L31.0914 224.06L12.4988 222.057L12.3157 221.517ZM18.1245 222.351L18.6505 222.435L22.1132 232.654L21.7465 233.04L18.1245 222.351Z" fill="black"/>
<path d="M24.3272 251.773C23.7594 250.633 23.4245 249.479 23.3226 248.31C23.2428 247.149 23.3775 246.029 23.7266 244.949C24.0831 243.885 24.6354 242.917 25.3835 242.045C26.1317 241.174 27.0682 240.458 28.1931 239.897C29.318 239.337 30.4536 239.02 31.6 238.948C32.7464 238.876 33.8518 239.018 34.9162 239.374C35.9881 239.745 36.9561 240.316 37.8203 241.086C38.7066 241.864 39.4337 242.823 40.0016 243.963C40.5105 244.984 40.8307 246.035 40.9623 247.114C41.0939 248.194 40.9926 249.233 40.6585 250.231L40.2149 250.12C40.5418 249.07 40.6356 248.053 40.4965 247.069C40.3573 246.086 40.0518 245.12 39.5798 244.173C39.0488 243.107 38.3623 242.211 37.5202 241.485C36.6929 240.752 35.7692 240.215 34.7491 239.873C33.7439 239.524 32.6939 239.382 31.5993 239.447C30.5268 239.52 29.4652 239.818 28.4143 240.341C27.3634 240.865 26.4787 241.537 25.7602 242.357C25.0639 243.184 24.545 244.108 24.2034 245.128C23.8765 246.14 23.7493 247.201 23.8218 248.311C23.909 249.413 24.2181 250.497 24.7491 251.562C25.221 252.51 25.8078 253.335 26.5094 254.039C27.2258 254.735 28.1014 255.268 29.1363 255.64L28.9582 256.061C27.9603 255.727 27.0625 255.186 26.2648 254.438C25.4819 253.682 24.8361 252.794 24.3272 251.773Z" fill="black"/>
<path d="M34.2647 268.639L48.3126 259.258L44.731 253.895L45.1229 253.633L52.5616 264.773L52.1696 265.034L48.5881 259.671L34.5402 269.052L34.2647 268.639Z" fill="black"/>
<path d="M43.7228 281.826L56.6575 270.242L56.9388 270.557L51.6951 286.341L51.5462 286.175L67.7945 282.678L68.0758 282.992L55.1411 294.576L54.8101 294.207L67.209 283.103L67.3414 283.251L51.3606 286.674L51.162 286.452L56.3037 270.926L56.4526 271.092L44.0538 282.196L43.7228 281.826Z" fill="black"/>
<path d="M69.5934 295.506L77.0746 301.678L76.7747 302.042L69.2935 295.869L69.5934 295.506ZM64.2271 302.205L72.7607 309.245L72.4607 309.609L63.5445 302.253L74.5947 288.859L83.2239 295.979L82.924 296.342L74.6774 289.539L64.2271 302.205Z" fill="black"/>
<path d="M87.3093 319.699C86.2266 319.029 85.3344 318.223 84.6327 317.283C83.9537 316.338 83.4787 315.315 83.2074 314.213C82.9503 313.121 82.9104 312.007 83.0878 310.872C83.2652 309.737 83.6846 308.635 84.3461 307.567C85.0076 306.498 85.8067 305.631 86.7433 304.966C87.68 304.301 88.6947 303.84 89.7874 303.583C90.8941 303.335 92.0176 303.311 93.1579 303.511C94.3209 303.706 95.4438 304.138 96.5264 304.808C97.4966 305.409 98.3219 306.134 99.0022 306.983C99.6825 307.832 100.143 308.768 100.384 309.793L99.9484 309.931C99.6738 308.867 99.2185 307.953 98.5824 307.189C97.9463 306.426 97.1783 305.766 96.2784 305.209C95.266 304.582 94.2108 304.182 93.1127 304.008C92.0234 303.82 90.9551 303.849 89.9079 304.095C88.8695 304.328 87.902 304.76 87.0055 305.391C86.1317 306.017 85.3859 306.829 84.7679 307.828C84.15 308.826 83.7513 309.863 83.5719 310.938C83.4153 312.008 83.4602 313.067 83.7066 314.114C83.9617 315.147 84.412 316.116 85.0575 317.021C85.7117 317.912 86.545 318.671 87.5574 319.298C88.4573 319.855 89.3906 320.248 90.3575 320.477C91.333 320.692 92.3584 320.685 93.4337 320.456L93.504 320.908C92.4796 321.149 91.4314 321.161 90.3595 320.945C89.2962 320.715 88.2795 320.299 87.3093 319.699Z" fill="black"/>
<path d="M108.17 330.46C107.001 329.957 106 329.292 105.167 328.465C104.357 327.63 103.736 326.687 103.306 325.638C102.891 324.595 102.688 323.499 102.696 322.35C102.705 321.202 102.958 320.05 103.455 318.896C103.952 317.742 104.615 316.767 105.444 315.971C106.272 315.176 107.208 314.571 108.251 314.156C109.309 313.747 110.417 313.558 111.574 313.588C112.753 313.61 113.928 313.873 115.097 314.376C116.267 314.88 117.257 315.549 118.067 316.385C118.9 317.211 119.523 318.146 119.938 319.189C120.369 320.239 120.579 321.338 120.571 322.486C120.562 323.635 120.31 324.786 119.812 325.941C119.315 327.095 118.652 328.07 117.824 328.865C116.995 329.661 116.052 330.263 114.993 330.671C113.95 331.086 112.839 331.283 111.66 331.261C110.503 331.231 109.34 330.964 108.17 330.46ZM108.357 330.027C109.45 330.498 110.55 330.747 111.655 330.773C112.76 330.799 113.809 330.62 114.802 330.238C115.801 329.84 116.687 329.267 117.46 328.519C118.253 327.763 118.886 326.838 119.357 325.744C119.828 324.651 120.062 323.563 120.06 322.482C120.079 321.392 119.886 320.355 119.482 319.371C119.084 318.371 118.496 317.479 117.718 316.693C116.94 315.908 116.004 315.28 114.911 314.809C113.817 314.338 112.718 314.09 111.613 314.064C110.507 314.038 109.455 314.224 108.456 314.622C107.463 315.004 106.569 315.574 105.775 316.33C105.003 317.078 104.382 317.999 103.911 319.092C103.44 320.186 103.194 321.277 103.175 322.367C103.178 323.449 103.378 324.489 103.775 325.489C104.18 326.473 104.771 327.358 105.549 328.143C106.327 328.928 107.263 329.556 108.357 330.027Z" fill="black"/>
<path d="M126.4 337.175L130.746 320.364L131.155 320.47L139.535 339.982L139.27 339.914L143.474 323.656L143.955 323.78L139.608 340.59L139.2 340.485L130.82 320.973L131.084 321.041L126.88 337.299L126.4 337.175Z" fill="black"/>
<path d="M154.451 342.953L156.482 326.183L150.079 325.408L150.136 324.94L163.433 326.55L163.377 327.018L156.974 326.243L154.944 343.013L154.451 342.953Z" fill="black"/>
<g clip-path="url(#clip0_1806_2959)">
<path d="M104.289 241.318L111.455 84.7324L260.274 103.518L228.305 256.972L163.948 267.747L104.289 241.318Z" fill="#E44D26"/>
<path d="M134.21 178.95L135.445 119.26L231.558 131.392L226.109 149.603L151.7 140.21L152.06 162.304L220.269 170.914L206.633 229.039L167.862 236.744L132.223 219.647L133.036 188.251L151.639 190.599L152.782 206.493L170.602 215.042L189.987 211.189L196.218 186.777L134.21 178.95Z" fill="white"/>
</g>
<defs>
<clipPath id="clip0_1806_2959">
<rect width="200" height="200" fill="white" transform="translate(89 63) rotate(7.19433)"/>
</clipPath>
</defs>
</svg>
