<svg width="351" height="350" viewBox="0 0 351 350" fill="none" xmlns="http://www.w3.org/2000/svg">
<path d="M158.084 6.61103C159.351 6.49265 160.549 6.59676 161.675 6.92338C162.787 7.268 163.783 7.79781 164.664 8.51279C165.528 9.22932 166.232 10.0937 166.774 11.106C167.317 12.1182 167.647 13.25 167.764 14.5013C167.881 15.7527 167.766 16.926 167.42 18.0213C167.074 19.1165 166.543 20.0962 165.826 20.9604C165.093 21.826 164.212 22.5229 163.181 23.0509C162.136 23.5969 160.98 23.9291 159.712 24.0475C158.576 24.1536 157.48 24.0732 156.426 23.8063C155.371 23.5394 154.439 23.07 153.629 22.3983L153.893 22.0248C154.754 22.7084 155.668 23.1628 156.636 23.388C157.604 23.6132 158.614 23.6766 159.668 23.5782C160.854 23.4675 161.937 23.1505 162.918 22.6271C163.9 22.1201 164.734 21.4526 165.421 20.6245C166.109 19.8128 166.621 18.8848 166.955 17.8405C167.274 16.8142 167.379 15.7165 167.27 14.5475C167.161 13.3785 166.854 12.311 166.348 11.345C165.828 10.3971 165.154 9.57982 164.326 8.89315C163.499 8.22295 162.555 7.72146 161.495 7.38869C160.435 7.07239 159.313 6.96959 158.127 7.08028C157.074 7.17868 156.092 7.42811 155.183 7.82858C154.275 8.24552 153.461 8.86958 152.742 9.70077L152.413 9.38268C153.085 8.57257 153.914 7.9305 154.899 7.45649C155.886 6.99893 156.948 6.71711 158.084 6.61103Z" fill="black"/>
<path d="M134.955 10.609C136.192 10.3055 137.391 10.2324 138.554 10.3898C139.704 10.5671 140.767 10.9447 141.743 11.5224C142.703 12.104 143.526 12.8555 144.212 13.7769C144.898 14.6983 145.391 15.7693 145.691 16.9899C145.99 18.2104 146.049 19.3878 145.868 20.5221C145.687 21.6564 145.305 22.7036 144.724 23.6637C144.126 24.6277 143.356 25.4466 142.415 26.1204C141.461 26.8142 140.366 27.3129 139.13 27.6165C137.893 27.92 136.7 27.9831 135.549 27.8057C134.387 27.6484 133.326 27.2789 132.366 26.6972C131.389 26.1195 130.558 25.3699 129.872 24.4486C129.186 23.5272 128.694 22.4562 128.394 21.2356C128.094 20.0151 128.035 18.8377 128.217 17.7034C128.398 16.5691 128.787 15.52 129.385 14.5559C129.967 13.5958 130.734 12.7689 131.688 12.0751C132.629 11.4013 133.718 10.9126 134.955 10.609ZM135.067 11.0667C133.911 11.3506 132.884 11.8155 131.987 12.4614C131.09 13.1073 130.361 13.8823 129.799 14.7863C129.242 15.7064 128.881 16.6975 128.716 17.7597C128.539 18.8418 128.592 19.9611 128.876 21.1174C129.16 22.2737 129.629 23.2824 130.283 24.1435C130.925 25.0246 131.704 25.7358 132.62 26.2772C133.54 26.8346 134.547 27.1918 135.642 27.3489C136.736 27.506 137.861 27.4426 139.017 27.1588C140.174 26.8749 141.2 26.41 142.098 25.7641C142.995 25.1182 143.722 24.3352 144.279 23.4151C144.841 22.5111 145.21 21.518 145.387 20.4358C145.552 19.3737 145.493 18.2644 145.209 17.1081C144.925 15.9518 144.462 14.9331 143.82 14.052C143.166 13.1909 142.379 12.4817 141.459 11.9243C140.543 11.3829 139.537 11.0337 138.443 10.8766C137.349 10.7195 136.224 10.7829 135.067 11.0667Z" fill="black"/>
<path d="M116.363 16.2482L123.034 32.279L122.645 32.441L104.193 21.9307L104.445 21.8258L110.897 37.3299L110.439 37.5205L103.768 21.4897L104.157 21.3277L122.609 31.8381L122.357 31.9429L115.905 16.4388L116.363 16.2482Z" fill="black"/>
<path d="M90.5038 28.5556L98.9979 43.1568L104.573 39.9139L104.81 40.3212L93.2315 47.0567L92.9945 46.6493L98.5691 43.4063L90.075 28.8051L90.5038 28.5556Z" fill="black"/>
<path d="M79.3275 35.3747L83.4252 54.0746L83.0304 54.375L66.1011 45.4376L66.5551 45.0922L83.0862 53.8339L82.8888 53.9841L78.8735 35.7201L79.3275 35.3747ZM80.3843 41.1471L80.4723 41.6724L71.8849 48.2058L71.4022 47.9809L80.3843 41.1471Z" fill="black"/>
<path d="M54.4651 56.3843C55.365 55.4834 56.3527 54.7988 57.4282 54.3305C58.5037 53.8856 59.6086 53.6569 60.7428 53.6446C61.8654 53.644 62.9588 53.8597 64.0231 54.2918C65.0874 54.7239 66.0642 55.384 66.9534 56.2722C67.8425 57.1604 68.5037 58.1364 68.9369 59.2002C69.3702 60.2641 69.5871 61.3573 69.5877 62.4798C69.5766 63.6141 69.3434 64.7134 68.8879 65.7777C68.4325 66.8654 67.7548 67.8597 66.8549 68.7606C66.0486 69.5678 65.1544 70.2056 64.1724 70.6739C63.1904 71.1421 62.1733 71.3765 61.1209 71.3771L61.0855 70.9211C62.1847 70.8971 63.1785 70.6627 64.0669 70.2179C64.9554 69.7731 65.7735 69.1763 66.5215 68.4275C67.363 67.5851 67.9939 66.6493 68.4143 65.6201C68.8464 64.6025 69.0621 63.5559 69.0615 62.4801C69.0726 61.416 68.8733 60.3754 68.4635 59.3584C68.0537 58.3647 67.4334 57.4529 66.6028 56.6232C65.7721 55.7934 64.8538 55.1683 63.848 54.7479C62.8422 54.3509 61.8013 54.1527 60.7256 54.1533C59.6615 54.1656 58.6151 54.3825 57.5863 54.804C56.5692 55.2372 55.64 55.875 54.7985 56.7173C54.0506 57.4661 53.4547 58.2849 53.0108 59.1739C52.5787 60.0745 52.3512 61.0744 52.3284 62.1735L51.8724 62.1387C51.8718 61.0863 52.0992 60.0631 52.5547 59.0689C53.0219 58.0864 53.6587 57.1915 54.4651 56.3843Z" fill="black"/>
<path d="M41.6363 71.1706L54.9982 81.5052L58.9439 76.4038L59.3167 76.6921L51.1218 87.2875L50.749 86.9991L54.6947 81.8977L41.3328 71.563L41.6363 71.1706Z" fill="black"/>
<path d="M32.1386 84.337L47.2349 92.9156L47.0265 93.2823L30.3941 93.3313L30.5044 93.1372L38.9871 107.43L38.7788 107.796L23.6825 99.2177L23.9276 98.7863L38.3985 107.01L38.3004 107.182L29.9721 93.12L30.1191 92.8612L46.4746 92.7975L46.3643 92.9916L31.8935 84.7683L32.1386 84.337Z" fill="black"/>
<path d="M27.4011 113.208L23.9288 122.264L23.4888 122.095L26.961 113.039L27.4011 113.208ZM19.343 110.251L15.3823 120.581L14.9423 120.412L19.0806 109.619L35.2932 115.835L31.2881 126.281L30.848 126.112L34.6755 116.13L19.343 110.251Z" fill="black"/>
<path d="M10.0974 137.699C10.3884 136.46 10.8679 135.358 11.5359 134.394C12.2163 133.449 13.0354 132.673 13.9933 132.066C14.9475 131.474 15.9908 131.082 17.1231 130.89C18.2555 130.697 19.4335 130.744 20.657 131.031C21.8805 131.319 22.9564 131.8 23.8847 132.477C24.813 133.154 25.5728 133.969 26.1642 134.923C26.7517 135.893 27.132 136.951 27.3049 138.095C27.4901 139.26 27.4372 140.462 27.1462 141.702C26.8854 142.813 26.4608 143.826 25.8723 144.74C25.2838 145.655 24.5423 146.39 23.6478 146.945L23.3777 146.575C24.2997 145.977 25.0213 145.254 25.5426 144.408C26.0639 143.562 26.4455 142.624 26.6874 141.594C26.9595 140.435 27.0034 139.307 26.8192 138.211C26.651 137.118 26.2836 136.115 25.7169 135.2C25.1663 134.29 24.4491 133.51 23.5653 132.861C22.6939 132.231 21.6866 131.783 20.5436 131.514C19.4006 131.246 18.2908 131.198 17.2143 131.37C16.1501 131.561 15.1608 131.941 14.2464 132.507C13.3481 133.078 12.5725 133.813 11.9196 134.713C11.2828 135.617 10.8283 136.648 10.5562 137.807C10.3143 138.837 10.2386 139.847 10.3291 140.837C10.4356 141.83 10.7685 142.8 11.3276 143.747L10.9215 143.957C10.3671 143.062 10.022 142.073 9.88602 140.988C9.76616 139.906 9.83662 138.81 10.0974 137.699Z" fill="black"/>
<path d="M6.52894 160.902C6.63447 159.633 6.94671 158.473 7.46564 157.42C7.99968 156.386 8.6958 155.498 9.55399 154.757C10.4108 154.031 11.3851 153.49 12.4768 153.133C13.5685 152.776 14.7406 152.649 15.993 152.753C17.2455 152.857 18.3806 153.176 19.3983 153.709C20.416 154.241 21.2874 154.936 22.0127 155.793C22.7366 156.666 23.2682 157.656 23.6076 158.763C23.9621 159.888 24.0865 161.084 23.981 162.353C23.8755 163.622 23.5557 164.774 23.0216 165.808C22.5027 166.86 21.8148 167.749 20.958 168.474C20.0998 169.216 19.1249 169.765 18.0332 170.122C16.9415 170.48 15.7694 170.606 14.5169 170.502C13.2644 170.398 12.1294 170.079 11.1117 169.547C10.094 169.014 9.22319 168.311 8.49932 167.438C7.77408 166.581 7.23421 165.59 6.87971 164.466C6.54033 163.359 6.4234 162.171 6.52894 160.902ZM6.99861 160.941C6.89993 162.128 7.0141 163.249 7.34112 164.305C7.66813 165.361 8.17091 166.299 8.84945 167.118C9.54448 167.94 10.3692 168.597 11.3238 169.091C12.2934 169.604 13.3715 169.909 14.558 170.008C15.7446 170.106 16.8501 169.983 17.8745 169.636C18.914 169.308 19.8361 168.796 20.6407 168.099C21.4618 167.404 22.1209 166.563 22.6179 165.575C23.1148 164.588 23.4126 163.501 23.5113 162.314C23.61 161.128 23.4958 160.007 23.1688 158.95C22.8418 157.894 22.3308 156.956 21.6358 156.135C20.9572 155.315 20.1331 154.649 19.1635 154.137C18.209 153.643 17.1385 153.346 15.9519 153.248C14.7654 153.149 13.6523 153.264 12.6128 153.592C11.5884 153.938 10.6656 154.459 9.8445 155.154C9.03987 155.851 8.38906 156.692 7.89209 157.68C7.39512 158.667 7.0973 159.754 6.99861 160.941Z" fill="black"/>
<path d="M5.96464 180.323L23.2848 179.097L23.3146 179.518L7.48106 193.669L7.4618 193.397L24.2129 192.211L24.2479 192.706L6.92773 193.932L6.89796 193.511L22.7315 179.36L22.7507 179.632L5.99966 180.818L5.96464 180.323Z" fill="black"/>
<path d="M9.40606 208.753L25.9507 205.344L24.6493 199.028L25.1109 198.933L27.8139 212.052L27.3523 212.147L26.0508 205.83L9.50618 209.239L9.40606 208.753Z" fill="black"/>
<path d="M12.3157 221.517L31.3479 223.58L31.5071 224.05L17.6492 237.257L17.4661 236.717L31.0118 223.825L31.0914 224.06L12.4988 222.057L12.3157 221.517ZM18.1245 222.351L18.6505 222.435L22.1132 232.654L21.7465 233.04L18.1245 222.351Z" fill="black"/>
<path d="M24.3272 251.773C23.7594 250.633 23.4245 249.479 23.3226 248.31C23.2428 247.149 23.3775 246.029 23.7266 244.949C24.0831 243.885 24.6354 242.917 25.3835 242.045C26.1317 241.174 27.0682 240.458 28.1931 239.897C29.318 239.337 30.4536 239.02 31.6 238.948C32.7464 238.876 33.8518 239.018 34.9162 239.374C35.9881 239.745 36.9561 240.316 37.8203 241.086C38.7066 241.864 39.4337 242.823 40.0016 243.963C40.5105 244.984 40.8307 246.035 40.9623 247.114C41.0939 248.194 40.9926 249.233 40.6585 250.231L40.2149 250.12C40.5418 249.07 40.6356 248.053 40.4965 247.069C40.3573 246.086 40.0518 245.12 39.5798 244.173C39.0488 243.107 38.3623 242.211 37.5202 241.485C36.6929 240.752 35.7692 240.215 34.7491 239.873C33.7439 239.524 32.6939 239.382 31.5993 239.447C30.5268 239.52 29.4652 239.818 28.4143 240.341C27.3634 240.865 26.4787 241.537 25.7602 242.357C25.0639 243.184 24.545 244.108 24.2034 245.128C23.8765 246.14 23.7493 247.201 23.8218 248.311C23.909 249.413 24.2181 250.497 24.7491 251.562C25.221 252.51 25.8078 253.335 26.5094 254.039C27.2258 254.735 28.1014 255.268 29.1363 255.64L28.9582 256.061C27.9603 255.727 27.0625 255.186 26.2648 254.438C25.4819 253.682 24.8361 252.794 24.3272 251.773Z" fill="black"/>
<path d="M34.2647 268.639L48.3126 259.258L44.731 253.895L45.1229 253.633L52.5616 264.773L52.1696 265.034L48.5881 259.671L34.5402 269.052L34.2647 268.639Z" fill="black"/>
<path d="M43.7228 281.826L56.6575 270.242L56.9388 270.557L51.6951 286.341L51.5462 286.175L67.7945 282.678L68.0758 282.992L55.1411 294.576L54.8101 294.207L67.209 283.103L67.3414 283.251L51.3606 286.674L51.162 286.452L56.3037 270.926L56.4526 271.092L44.0538 282.196L43.7228 281.826Z" fill="black"/>
<path d="M69.5934 295.506L77.0746 301.678L76.7747 302.042L69.2935 295.869L69.5934 295.506ZM64.2271 302.205L72.7607 309.245L72.4607 309.609L63.5445 302.253L74.5947 288.859L83.2239 295.979L82.924 296.342L74.6774 289.539L64.2271 302.205Z" fill="black"/>
<path d="M87.3093 319.699C86.2266 319.029 85.3344 318.223 84.6327 317.283C83.9537 316.338 83.4787 315.315 83.2074 314.213C82.9503 313.121 82.9104 312.007 83.0878 310.872C83.2652 309.737 83.6846 308.635 84.3461 307.567C85.0076 306.498 85.8067 305.631 86.7433 304.966C87.68 304.301 88.6947 303.84 89.7874 303.583C90.8941 303.335 92.0176 303.311 93.1579 303.511C94.3209 303.706 95.4438 304.138 96.5264 304.808C97.4966 305.409 98.3219 306.134 99.0022 306.983C99.6825 307.832 100.143 308.768 100.384 309.793L99.9484 309.931C99.6738 308.867 99.2185 307.953 98.5824 307.189C97.9463 306.426 97.1783 305.766 96.2784 305.209C95.266 304.582 94.2108 304.182 93.1127 304.008C92.0234 303.82 90.9551 303.849 89.9079 304.095C88.8695 304.328 87.902 304.76 87.0055 305.391C86.1317 306.017 85.3859 306.829 84.7679 307.828C84.15 308.826 83.7513 309.863 83.5719 310.938C83.4153 312.008 83.4602 313.067 83.7066 314.114C83.9617 315.147 84.412 316.116 85.0575 317.021C85.7117 317.912 86.545 318.671 87.5574 319.298C88.4573 319.855 89.3906 320.248 90.3575 320.477C91.333 320.692 92.3584 320.685 93.4337 320.456L93.504 320.908C92.4796 321.149 91.4314 321.161 90.3595 320.945C89.2962 320.715 88.2795 320.299 87.3093 319.699Z" fill="black"/>
<path d="M108.17 330.46C107.001 329.957 106 329.292 105.167 328.465C104.357 327.63 103.736 326.687 103.306 325.638C102.891 324.595 102.688 323.499 102.696 322.35C102.705 321.202 102.958 320.05 103.455 318.896C103.952 317.742 104.615 316.767 105.444 315.971C106.272 315.176 107.208 314.571 108.251 314.156C109.309 313.747 110.417 313.558 111.574 313.588C112.753 313.61 113.928 313.873 115.097 314.376C116.267 314.88 117.257 315.549 118.067 316.385C118.9 317.211 119.523 318.146 119.938 319.189C120.369 320.239 120.579 321.338 120.571 322.486C120.562 323.635 120.31 324.786 119.812 325.941C119.315 327.095 118.652 328.07 117.824 328.865C116.995 329.661 116.052 330.263 114.993 330.671C113.95 331.086 112.839 331.283 111.66 331.261C110.503 331.231 109.34 330.964 108.17 330.46ZM108.357 330.027C109.45 330.498 110.55 330.747 111.655 330.773C112.76 330.799 113.809 330.62 114.802 330.238C115.801 329.84 116.687 329.267 117.46 328.519C118.253 327.763 118.886 326.838 119.357 325.744C119.828 324.651 120.062 323.563 120.06 322.482C120.079 321.392 119.886 320.355 119.482 319.371C119.084 318.371 118.496 317.479 117.718 316.693C116.94 315.908 116.004 315.28 114.911 314.809C113.817 314.338 112.718 314.09 111.613 314.064C110.507 314.038 109.455 314.224 108.456 314.622C107.463 315.004 106.569 315.574 105.775 316.33C105.003 317.078 104.382 317.999 103.911 319.092C103.44 320.186 103.194 321.277 103.175 322.367C103.178 323.449 103.378 324.489 103.775 325.489C104.18 326.473 104.771 327.358 105.549 328.143C106.327 328.928 107.263 329.556 108.357 330.027Z" fill="black"/>
<path d="M126.4 337.175L130.746 320.364L131.155 320.47L139.535 339.982L139.27 339.914L143.474 323.656L143.955 323.78L139.608 340.59L139.2 340.485L130.82 320.973L131.084 321.041L126.88 337.299L126.4 337.175Z" fill="black"/>
<path d="M154.451 342.953L156.482 326.183L150.079 325.408L150.136 324.94L163.433 326.55L163.377 327.018L156.974 326.243L154.944 343.013L154.451 342.953Z" fill="black"/>
<path d="M167.476 344.253L175.485 326.865L175.982 326.864L184.095 344.203L183.525 344.205L175.611 327.262L175.859 327.261L168.047 344.251L167.476 344.253ZM170.115 339.011L170.361 338.539L181.151 338.507L181.401 338.977L170.115 339.011Z" fill="black"/>
<path d="M199.982 342.492C198.721 342.667 197.52 342.618 196.38 342.343C195.254 342.049 194.234 341.565 193.322 340.891C192.426 340.214 191.684 339.383 191.096 338.396C190.508 337.41 190.127 336.294 189.953 335.049C189.779 333.805 189.841 332.627 190.137 331.517C190.433 330.408 190.919 329.405 191.595 328.509C192.288 327.611 193.137 326.875 194.143 326.3C195.162 325.707 196.302 325.323 197.563 325.147C198.693 324.99 199.791 325.02 200.857 325.239C201.923 325.457 202.875 325.884 203.715 326.518L203.468 326.903C202.577 326.259 201.643 325.847 200.666 325.666C199.689 325.485 198.676 325.468 197.628 325.614C196.449 325.778 195.381 326.144 194.425 326.712C193.467 327.263 192.664 327.968 192.015 328.826C191.365 329.668 190.896 330.618 190.61 331.677C190.337 332.717 190.282 333.818 190.444 334.981C190.607 336.144 190.962 337.196 191.511 338.138C192.074 339.061 192.784 339.847 193.643 340.495C194.499 341.127 195.464 341.586 196.539 341.87C197.612 342.138 198.738 342.189 199.917 342.025C200.965 341.879 201.934 341.585 202.825 341.143C203.712 340.686 204.497 340.025 205.178 339.162L205.521 339.465C204.886 340.305 204.088 340.984 203.125 341.502C202.16 342.004 201.112 342.334 199.982 342.492Z" fill="black"/>
<path d="M219.13 338.43L214.704 322.128L208.48 323.818L208.357 323.363L221.284 319.854L221.407 320.309L215.183 321.998L219.609 338.3L219.13 338.43Z" fill="black"/>
<path d="M234.646 333.66L227.778 317.712L228.165 317.545L241.462 327.537L241.257 327.626L243.11 311.109L243.498 310.942L250.366 326.89L249.91 327.086L243.327 311.799L243.509 311.721L241.671 327.96L241.398 328.078L228.313 318.265L228.518 318.177L235.102 333.463L234.646 333.66Z" fill="black"/>
<path d="M255.843 313.485L264.074 308.356L264.323 308.756L256.092 313.885L255.843 313.485ZM260.487 320.704L269.876 314.853L270.126 315.253L260.315 321.366L251.132 306.63L260.626 300.713L260.876 301.113L251.802 306.767L260.487 320.704Z" fill="black"/>
<path d="M284.412 304.384C283.433 305.197 282.386 305.787 281.271 306.153C280.159 306.496 279.038 306.621 277.907 306.528C276.789 306.424 275.721 306.107 274.701 305.578C273.682 305.049 272.771 304.301 271.968 303.334C271.165 302.367 270.597 301.334 270.265 300.234C269.933 299.135 269.818 298.026 269.922 296.908C270.038 295.78 270.373 294.707 270.925 293.69C271.48 292.649 272.247 291.722 273.227 290.909C274.105 290.18 275.054 289.628 276.076 289.253C277.097 288.878 278.131 288.74 279.179 288.837L279.172 289.294C278.076 289.216 277.064 289.357 276.138 289.717C275.212 290.077 274.342 290.596 273.528 291.272C272.612 292.032 271.897 292.905 271.382 293.891C270.857 294.864 270.545 295.886 270.446 296.957C270.336 298.015 270.438 299.07 270.751 300.121C271.067 301.148 271.6 302.114 272.35 303.017C273.099 303.921 273.956 304.628 274.918 305.14C275.883 305.629 276.9 305.923 277.972 306.023C279.032 306.11 280.094 305.991 281.158 305.667C282.211 305.33 283.195 304.781 284.111 304.021C284.926 303.345 285.595 302.585 286.12 301.741C286.634 300.885 286.953 299.91 287.078 298.818L287.529 298.895C287.432 299.943 287.11 300.941 286.564 301.888C286.008 302.823 285.29 303.655 284.412 304.384Z" fill="black"/>
<path d="M301.252 288.03C300.402 288.979 299.453 289.716 298.405 290.242C297.355 290.745 296.264 291.034 295.132 291.108C294.011 291.17 292.908 291.014 291.822 290.64C290.735 290.267 289.724 289.661 288.788 288.822C287.852 287.984 287.138 287.045 286.648 286.007C286.157 284.968 285.881 283.888 285.819 282.768C285.769 281.634 285.942 280.524 286.338 279.436C286.734 278.326 287.356 277.296 288.206 276.347C289.055 275.399 290.005 274.673 291.055 274.17C292.103 273.644 293.188 273.35 294.309 273.288C295.44 273.214 296.55 273.364 297.636 273.737C298.722 274.111 299.733 274.717 300.67 275.555C301.606 276.394 302.319 277.332 302.81 278.371C303.3 279.409 303.571 280.495 303.622 281.629C303.683 282.749 303.516 283.865 303.121 284.976C302.724 286.064 302.101 287.082 301.252 288.03ZM300.9 287.716C301.695 286.829 302.28 285.866 302.656 284.826C303.032 283.787 303.197 282.735 303.15 281.672C303.09 280.598 302.829 279.576 302.366 278.606C301.901 277.613 301.226 276.719 300.339 275.925C299.452 275.13 298.495 274.562 297.469 274.221C296.442 273.856 295.397 273.708 294.336 273.779C293.261 273.838 292.228 274.111 291.236 274.599C290.244 275.087 289.351 275.775 288.557 276.662C287.763 277.549 287.178 278.512 286.801 279.551C286.425 280.591 286.267 281.648 286.326 282.722C286.373 283.785 286.629 284.813 287.093 285.807C287.557 286.776 288.232 287.659 289.119 288.453C290.006 289.247 290.963 289.827 291.99 290.192C293.016 290.534 294.066 290.675 295.14 290.616C296.202 290.545 297.229 290.266 298.221 289.778C299.213 289.29 300.106 288.603 300.9 287.716Z" fill="black"/>
<path d="M313.413 272.882L298.858 263.414L299.088 263.06L320.252 261.322L320.103 261.551L306.027 252.394L306.297 251.978L320.852 261.446L320.622 261.799L299.458 263.538L299.607 263.309L313.684 272.466L313.413 272.882Z" fill="black"/>
<path d="M327.815 248.123L312.562 240.864L309.791 246.687L309.365 246.485L315.121 234.39L315.547 234.593L312.775 240.416L328.028 247.675L327.815 248.123Z" fill="black"/>
<path d="M333.195 236.189L319.257 223.065L319.414 222.594L338.433 220.417L338.253 220.958L319.673 223.073L319.751 222.837L333.374 235.648L333.195 236.189ZM329.064 232.02L328.695 231.637L332.096 221.396L332.622 221.31L329.064 232.02Z" fill="black"/>
<path d="M341.859 204.812C341.624 206.064 341.195 207.186 340.572 208.18C339.935 209.154 339.152 209.967 338.223 210.617C337.296 211.251 336.272 211.69 335.15 211.934C334.027 212.178 332.848 212.185 331.613 211.953C330.378 211.722 329.281 211.29 328.323 210.656C327.365 210.022 326.569 209.242 325.935 208.316C325.304 207.373 324.876 206.334 324.651 205.199C324.413 204.044 324.411 202.84 324.646 201.589C324.856 200.467 325.234 199.436 325.78 198.495C326.326 197.555 327.034 196.787 327.902 196.192L328.189 196.549C327.295 197.189 326.607 197.944 326.125 198.812C325.642 199.681 325.304 200.635 325.109 201.676C324.89 202.846 324.897 203.974 325.131 205.061C325.349 206.145 325.761 207.131 326.369 208.019C326.96 208.903 327.712 209.65 328.625 210.258C329.524 210.847 330.55 211.25 331.704 211.466C332.858 211.682 333.969 211.68 335.037 211.459C336.091 211.219 337.062 210.795 337.95 210.187C338.821 209.577 339.563 208.807 340.174 207.878C340.769 206.947 341.176 205.896 341.395 204.725C341.59 203.685 341.62 202.673 341.485 201.689C341.333 200.701 340.956 199.747 340.355 198.827L340.751 198.599C341.345 199.467 341.735 200.44 341.92 201.518C342.089 202.593 342.069 203.691 341.859 204.812Z" fill="black"/>
<path d="M344.103 185.368L327.24 184.379L326.862 190.817L326.392 190.79L327.176 177.418L327.647 177.446L327.269 183.884L344.132 184.873L344.103 185.368Z" fill="black"/>
<path d="M344.513 169.139L327.209 170.578L327.174 170.158L340.877 160.73L340.895 160.952L325.826 153.942L325.791 153.522L343.095 152.083L343.136 152.577L326.549 153.956L326.532 153.759L341.344 160.666L341.369 160.963L327.904 170.247L327.885 170.024L344.472 168.645L344.513 169.139Z" fill="black"/>
<path d="M332.127 142.627L329.882 133.192L330.34 133.083L332.585 142.518L332.127 142.627ZM340.448 140.52L337.887 129.757L338.345 129.648L341.021 140.893L324.129 144.913L321.54 134.029L321.998 133.92L324.473 144.321L340.448 140.52Z" fill="black"/>
<path d="M332.585 112.645C333.044 113.833 333.27 115.013 333.263 116.186C333.234 117.35 332.996 118.453 332.548 119.495C332.094 120.521 331.454 121.434 330.628 122.232C329.802 123.031 328.803 123.656 327.631 124.11C326.459 124.563 325.299 124.773 324.151 124.738C323.003 124.704 321.915 124.46 320.889 124.006C319.856 123.536 318.945 122.878 318.156 122.031C317.346 121.174 316.711 120.152 316.252 118.964C315.84 117.9 315.619 116.824 315.588 115.737C315.558 114.649 315.755 113.624 316.181 112.662L316.612 112.814C316.189 113.829 316.001 114.832 316.048 115.825C316.095 116.817 316.31 117.807 316.691 118.794C317.121 119.905 317.721 120.86 318.492 121.661C319.248 122.468 320.117 123.089 321.101 123.524C322.07 123.965 323.102 124.204 324.198 124.241C325.273 124.269 326.357 124.071 327.452 123.647C328.547 123.224 329.491 122.637 330.282 121.887C331.052 121.128 331.655 120.257 332.09 119.273C332.51 118.295 332.735 117.25 332.766 116.139C332.782 115.034 332.575 113.926 332.145 112.815C331.763 111.828 331.256 110.952 330.622 110.186C329.974 109.427 329.152 108.814 328.156 108.348L328.372 107.945C329.335 108.371 330.178 108.993 330.903 109.812C331.612 110.637 332.173 111.581 332.585 112.645Z" fill="black"/>
<path d="M322.438 91.4779C323.067 92.5849 323.465 93.7191 323.63 94.8805C323.773 96.0356 323.699 97.1615 323.41 98.2581C323.112 99.3404 322.613 100.337 321.913 101.248C321.214 102.159 320.318 102.925 319.225 103.546C318.132 104.167 317.016 104.545 315.875 104.68C314.734 104.814 313.623 104.733 312.54 104.435C311.45 104.122 310.452 103.605 309.547 102.883C308.62 102.155 307.842 101.237 307.212 100.13C306.583 99.0229 306.197 97.8918 306.055 96.7367C305.889 95.5754 305.955 94.4536 306.253 93.3713C306.543 92.2746 307.038 91.2708 307.737 90.3597C308.437 89.4486 309.333 88.6826 310.426 88.0617C311.518 87.4408 312.635 87.0629 313.776 86.9283C314.917 86.7936 316.032 86.8824 317.123 87.1947C318.205 87.4927 319.21 88.0058 320.137 88.7341C321.042 89.4562 321.809 90.3708 322.438 91.4779ZM322.028 91.7107C321.44 90.6755 320.713 89.8144 319.847 89.1272C318.981 88.4401 318.037 87.9496 317.014 87.6559C315.977 87.3704 314.925 87.293 313.858 87.4238C312.768 87.5484 311.706 87.9048 310.671 88.493C309.636 89.0813 308.793 89.8074 308.143 90.6714C307.47 91.5292 306.998 92.4726 306.727 93.5017C306.441 94.5388 306.372 95.6053 306.519 96.7009C306.666 97.7966 307.034 98.862 307.622 99.8972C308.21 100.932 308.938 101.793 309.804 102.481C310.67 103.168 311.621 103.654 312.658 103.94C313.681 104.233 314.737 104.318 315.827 104.193C316.894 104.063 317.945 103.703 318.98 103.115C320.015 102.527 320.869 101.804 321.542 100.946C322.192 100.082 322.66 99.1311 322.945 98.094C323.217 97.0649 323.279 96.0026 323.131 94.9069C322.984 93.8113 322.617 92.7459 322.028 91.7107Z" fill="black"/>
<path d="M311.943 75.129L298.337 85.9167L298.075 85.5863L303.158 64.9682L303.328 65.182L290.169 75.6152L289.861 75.2265L303.467 64.4388L303.729 64.7692L298.645 85.3874L298.476 85.1735L311.635 74.7403L311.943 75.129Z" fill="black"/>
<path d="M293.052 53.602L281.319 65.7541L285.959 70.2338L285.631 70.5728L275.995 61.2688L276.322 60.9298L280.962 65.4095L292.695 53.2574L293.052 53.602Z" fill="black"/>
<path d="M283.449 44.7076L266.574 53.7469L266.177 53.4489L270.162 34.7246L270.618 35.0673L266.713 53.3551L266.515 53.2061L282.993 44.3649L283.449 44.7076ZM278.183 47.2977L277.702 47.5255L269.075 41.0439L269.16 40.5181L278.183 47.2977Z" fill="black"/>
<path d="M256.457 26.5103C257.569 27.1305 258.497 27.8943 259.24 28.8014C259.962 29.715 260.483 30.7157 260.804 31.8037C261.11 32.8835 261.201 33.9944 261.075 35.1362C260.949 36.2779 260.58 37.3976 259.968 38.4952C259.356 39.5928 258.597 40.495 257.692 41.2017C256.786 41.9085 255.793 42.4152 254.714 42.7217C253.619 43.0202 252.498 43.0954 251.35 42.9473C250.179 42.8055 249.038 42.4245 247.926 41.8042C246.929 41.2484 246.072 40.5619 245.354 39.7447C244.636 38.9275 244.133 38.0127 243.845 37.0004L244.275 36.8421C244.597 37.8931 245.094 38.7854 245.764 39.5189C246.434 40.2525 247.231 40.8771 248.155 41.3926C249.195 41.9726 250.267 42.3246 251.372 42.4486C252.469 42.587 253.535 42.5093 254.57 42.2155C255.597 41.9362 256.544 41.4608 257.41 40.7893C258.255 40.1241 258.963 39.2789 259.535 38.2535C260.107 37.2282 260.458 36.1743 260.588 35.092C260.696 34.016 260.603 32.9606 260.309 31.9257C260.008 30.9052 259.514 29.9576 258.828 29.0826C258.134 28.2221 257.267 27.5019 256.227 26.9219C255.303 26.4063 254.353 26.0561 253.376 25.8714C252.392 25.701 251.368 25.7547 250.304 26.0323L250.213 25.5841C251.226 25.2967 252.272 25.2366 253.353 25.4039C254.426 25.5856 255.46 25.9544 256.457 26.5103Z" fill="black"/>
<path d="M238.734 18.1978L232.432 33.8706L238.416 36.2765L238.24 36.7138L225.812 31.7169L225.988 31.2796L231.972 33.6855L238.274 18.0127L238.734 18.1978Z" fill="black"/>
<path d="M223.479 12.6477L219.34 29.5105L218.931 29.41L214.35 13.4206L214.567 13.4738L203.128 25.5309L202.718 25.4303L206.857 8.56745L207.339 8.68572L203.371 24.85L203.179 24.8027L214.438 12.957L214.728 13.0279L219.247 28.7469L219.03 28.6937L222.998 12.5294L223.479 12.6477Z" fill="black"/>
<path d="M194.405 15.9599L184.746 15.0873L184.788 14.6179L194.448 15.4905L194.405 15.9599ZM195.054 7.40104L184.036 6.40567L184.078 5.93629L195.59 6.97629L194.028 24.2694L182.887 23.2628L182.929 22.7934L193.577 23.7553L195.054 7.40104Z" fill="black"/>
<g clip-path="url(#clip0_1815_2964)">
<path d="M104.289 241.318L111.455 84.7324L260.274 103.518L228.305 256.972L163.948 267.747L104.289 241.318Z" fill="#E44D26"/>
<path d="M246.307 114.355L184.299 106.527L165.122 258.447L216.685 249.207L246.307 114.355Z" fill="#F16529"/>
<path d="M134.21 178.95L135.445 119.26L231.558 131.392L226.109 149.603L151.7 140.21L152.06 162.304L220.269 170.914L206.633 229.039L167.862 236.744L132.223 219.647L133.036 188.251L151.639 190.599L152.782 206.493L170.602 215.042L189.987 211.189L196.218 186.777L134.21 178.95Z" fill="white"/>
</g>
<defs>
<clipPath id="clip0_1815_2964">
<rect width="200" height="200" fill="white" transform="translate(89 63) rotate(7.19433)"/>
</clipPath>
</defs>
</svg>
