<svg width="217" height="217" viewBox="0 0 217 217" fill="none" xmlns="http://www.w3.org/2000/svg">
<path d="M97.8554 3.95183C98.6403 3.87854 99.3815 3.943 100.079 4.14521C100.767 4.35856 101.384 4.68656 101.929 5.1292C102.464 5.5728 102.9 6.10794 103.236 6.73461C103.572 7.36129 103.776 8.06198 103.849 8.83668C103.921 9.61138 103.85 10.3378 103.636 11.0158C103.421 11.6939 103.092 12.3004 102.649 12.8354C102.195 13.3713 101.649 13.8027 101.011 14.1296C100.364 14.4677 99.6483 14.6734 98.8634 14.7466C98.16 14.8123 97.4819 14.7625 96.8289 14.5973C96.176 14.4321 95.5988 14.1415 95.0972 13.7256L95.2607 13.4944C95.7938 13.9176 96.3599 14.199 96.959 14.3384C97.5581 14.4778 98.1839 14.517 98.8362 14.4561C99.5702 14.3876 100.241 14.1913 100.848 13.8673C101.456 13.5534 101.973 13.1402 102.398 12.6275C102.824 12.125 103.141 11.5505 103.347 10.9039C103.545 10.2685 103.61 9.58897 103.543 8.86523C103.475 8.1415 103.285 7.48064 102.972 6.88263C102.65 6.29578 102.232 5.78979 101.72 5.36468C101.208 4.94976 100.624 4.63929 99.9671 4.43328C99.3113 4.23746 98.6164 4.17381 97.8825 4.24234C97.2301 4.30326 96.6225 4.45768 96.0595 4.70561C95.4975 4.96374 94.9938 5.35009 94.5483 5.86467L94.3448 5.66774C94.7607 5.16621 95.2737 4.76871 95.8838 4.47525C96.4948 4.19198 97.152 4.01751 97.8554 3.95183Z" fill="black"/>
<path d="M83.516 6.42971C84.2816 6.24178 85.0242 6.19653 85.7439 6.29396C86.4561 6.40377 87.1143 6.6375 87.7186 6.99516C88.313 7.35525 88.8226 7.82051 89.2472 8.39094C89.6719 8.96137 89.9769 9.6244 90.1624 10.38C90.3479 11.1357 90.3845 11.8646 90.2723 12.5668C90.16 13.269 89.9238 13.9173 89.5638 14.5117C89.1937 15.1086 88.7173 15.6156 88.1345 16.0327C87.5442 16.4622 86.8662 16.771 86.1006 16.9589C85.3351 17.1468 84.5962 17.1859 83.884 17.0761C83.1644 16.9786 82.5073 16.7499 81.9129 16.3898C81.3086 16.0321 80.7941 15.5681 80.3695 14.9977C79.9448 14.4272 79.6397 13.7642 79.4543 13.0086C79.2688 12.2529 79.2322 11.524 79.3444 10.8218C79.4567 10.1196 79.6978 9.47004 80.0678 8.87321C80.4279 8.27881 80.9031 7.76685 81.4934 7.33732C82.0763 6.92018 82.7505 6.61764 83.516 6.42971ZM83.5856 6.71308C82.8697 6.8888 82.2341 7.1766 81.6787 7.57649C81.1232 7.97637 80.6718 8.45615 80.3242 9.01583C79.9791 9.58546 79.7555 10.1991 79.6534 10.8566C79.5438 11.5266 79.5768 12.2195 79.7525 12.9354C79.9283 13.6512 80.2186 14.2757 80.6235 14.8088C81.021 15.3543 81.5033 15.7946 82.0705 16.1297C82.6401 16.4748 83.2636 16.696 83.9411 16.7933C84.6186 16.8905 85.3152 16.8513 86.0311 16.6755C86.7469 16.4998 87.3826 16.212 87.938 15.8121C88.4934 15.4122 88.9437 14.9275 89.2888 14.3579C89.6363 13.7982 89.8649 13.1834 89.9745 12.5134C90.0767 11.8558 90.0399 11.1691 89.8641 10.4533C89.6884 9.73739 89.4018 9.10671 89.0044 8.56123C88.5994 8.02813 88.1122 7.58904 87.5425 7.24395C86.9753 6.9088 86.353 6.69261 85.6756 6.59536C84.9981 6.49811 84.3015 6.53735 83.5856 6.71308Z" fill="black"/>
<path d="M71.9851 9.92814L76.1151 19.8527L75.8741 19.953L64.4505 13.4461L64.6065 13.3812L68.6008 22.9797L68.3172 23.0977L64.1872 13.1731L64.4283 13.0728L75.8518 19.5797L75.6959 19.6446L71.7016 10.0461L71.9851 9.92814Z" fill="black"/>
<path d="M55.9589 17.5573L61.2176 26.5968L64.6688 24.5891L64.8155 24.8413L57.6476 29.0112L57.5009 28.759L60.9521 26.7513L55.6934 17.7117L55.9589 17.5573Z" fill="black"/>
<path d="M49.0253 21.7866L51.5622 33.3636L51.3178 33.5496L40.8369 28.0165L41.118 27.8026L51.3523 33.2146L51.2301 33.3076L48.7442 22.0005L49.0253 21.7866ZM49.6796 25.3603L49.734 25.6855L44.4177 29.7302L44.1188 29.591L49.6796 25.3603Z" fill="black"/>
<path d="M33.6183 34.8065C34.1754 34.2488 34.7869 33.825 35.4528 33.535C36.1186 33.2596 36.8026 33.118 37.5048 33.1104C38.1998 33.11 38.8767 33.2436 39.5357 33.5111C40.1946 33.7786 40.7993 34.1873 41.3497 34.7371C41.9002 35.287 42.3096 35.8913 42.5778 36.5499C42.846 37.2085 42.9803 37.8853 42.9807 38.5803C42.9738 39.2825 42.8294 39.963 42.5474 40.6219C42.2655 41.2953 41.8459 41.9109 41.2888 42.4686C40.7896 42.9684 40.236 43.3632 39.6281 43.6531C39.0201 43.943 38.3904 44.0882 37.7389 44.0885L37.717 43.8062C38.3975 43.7913 39.0127 43.6462 39.5628 43.3708C40.1128 43.0954 40.6193 42.726 41.0824 42.2624C41.6033 41.7409 41.9939 41.1616 42.2542 40.5244C42.5217 39.8944 42.6553 39.2464 42.6549 38.5804C42.6618 37.9217 42.5383 37.2774 42.2846 36.6478C42.0309 36.0326 41.6469 35.4681 41.1327 34.9544C40.6184 34.4407 40.0499 34.0537 39.4272 33.7935C38.8045 33.5477 38.1602 33.425 37.4942 33.4253C36.8354 33.4329 36.1876 33.5672 35.5507 33.8282C34.921 34.0964 34.3457 34.4912 33.8248 35.0127C33.3617 35.4763 32.9928 35.9832 32.718 36.5336C32.4505 37.0911 32.3096 37.7101 32.2955 38.3906L32.0132 38.3691C32.0128 37.7175 32.1536 37.084 32.4356 36.4686C32.7249 35.8603 33.1191 35.3063 33.6183 34.8065Z" fill="black"/>
<path d="M25.6642 43.9752L33.9365 50.3733L36.3793 47.215L36.6101 47.3935L31.5367 53.9531L31.3059 53.7745L33.7486 50.6163L25.4763 44.2181L25.6642 43.9752Z" fill="black"/>
<path d="M19.7737 52.1422L29.1197 57.4531L28.9908 57.6801L18.6937 57.7105L18.762 57.5903L24.0136 66.4387L23.8847 66.6657L14.5386 61.3547L14.6904 61.0877L23.6492 66.1786L23.5885 66.2854L18.4324 57.5797L18.5235 57.4195L28.6491 57.38L28.5808 57.5002L19.622 52.4092L19.7737 52.1422Z" fill="black"/>
<path d="M16.8312 70.036L14.6815 75.6425L14.4091 75.538L16.5588 69.9316L16.8312 70.036ZM11.8425 68.2055L9.39046 74.6005L9.11803 74.4961L11.68 67.8142L21.7171 71.6627L19.2376 78.1295L18.9652 78.025L21.3347 71.845L11.8425 68.2055Z" fill="black"/>
<path d="M6.11265 85.2167C6.29281 84.4493 6.58967 83.7671 7.00323 83.1701C7.42442 82.5854 7.93154 82.1051 8.5246 81.729C9.11531 81.3629 9.76119 81.1202 10.4622 81.0008C11.1633 80.8815 11.8926 80.9107 12.65 81.0885C13.4075 81.2664 14.0736 81.5647 14.6483 81.9835C15.223 82.4024 15.6934 82.9072 16.0595 83.4979C16.4232 84.0986 16.6586 84.7532 16.7657 85.4619C16.8804 86.1829 16.8476 86.9271 16.6675 87.6946C16.506 88.3823 16.2431 89.0094 15.8788 89.5758C15.5145 90.1423 15.0554 90.5971 14.5016 90.9403L14.3344 90.7118C14.9052 90.341 15.352 89.8938 15.6747 89.3702C15.9974 88.8465 16.2337 88.2657 16.3834 87.6279C16.5519 86.9103 16.5791 86.2121 16.465 85.5333C16.3609 84.8569 16.1334 84.2356 15.7826 83.6695C15.4417 83.1057 14.9977 82.6229 14.4506 82.2211C13.9111 81.8315 13.2875 81.5537 12.5798 81.3875C11.8722 81.2214 11.1851 81.1916 10.5187 81.298C9.85983 81.4168 9.24736 81.6516 8.68125 82.0024C8.12512 82.3556 7.64495 82.8107 7.24075 83.3678C6.84651 83.9273 6.56516 84.5658 6.3967 85.2834C6.24695 85.9213 6.20008 86.5465 6.25609 87.1591C6.32205 87.774 6.52812 88.3744 6.87428 88.9605L6.62286 89.0908C6.27965 88.537 6.06596 87.9242 5.98179 87.2524C5.90758 86.583 5.9512 85.9044 6.11265 85.2167Z" fill="black"/>
<path d="M3.90141 99.6011C3.96674 98.8155 4.16005 98.0971 4.48131 97.4458C4.81194 96.8055 5.2429 96.2558 5.7742 95.7966C6.30465 95.3476 6.90781 95.0125 7.58368 94.7914C8.25955 94.5702 8.98518 94.4919 9.76057 94.5563C10.536 94.6208 11.2387 94.818 11.8687 95.1477C12.4988 95.4775 13.0383 95.9076 13.4873 96.4381C13.9354 96.9787 14.2646 97.5917 14.4747 98.2769C14.6941 98.9732 14.7712 99.7141 14.7059 100.5C14.6405 101.285 14.4426 101.998 14.1119 102.638C13.7907 103.29 13.3648 103.84 12.8344 104.289C12.3031 104.748 11.6995 105.088 11.0236 105.309C10.3477 105.531 9.6221 105.609 8.84671 105.544C8.07132 105.48 7.3686 105.283 6.73855 104.953C6.1085 104.623 5.5694 104.188 5.12126 103.647C4.67227 103.117 4.33804 102.504 4.11857 101.807C3.90846 101.122 3.83607 100.387 3.90141 99.6011ZM4.19218 99.6253C4.13109 100.36 4.20177 101.054 4.40422 101.708C4.60668 102.362 4.91794 102.942 5.33803 103.45C5.76831 103.958 6.27892 104.365 6.86986 104.671C7.47015 104.988 8.13759 105.177 8.87217 105.238C9.60675 105.299 10.2911 105.223 10.9254 105.008C11.5689 104.805 12.1398 104.488 12.6379 104.057C13.1463 103.627 13.5543 103.106 13.862 102.494C14.1696 101.883 14.354 101.21 14.4151 100.476C14.4762 99.7409 14.4055 99.0468 14.2031 98.393C14.0006 97.7392 13.6842 97.1582 13.254 96.6498C12.8339 96.1423 12.3237 95.73 11.7234 95.413C11.1325 95.107 10.4697 94.9235 9.73512 94.8624C9.00053 94.8013 8.31146 94.8724 7.66789 95.0757C7.03368 95.2901 6.4624 95.6124 5.95405 96.0427C5.45591 96.4738 5.053 96.9951 4.74533 97.6064C4.43766 98.2177 4.25327 98.8907 4.19218 99.6253Z" fill="black"/>
<path d="M3.55074 111.647L14.2736 110.888L14.292 111.149L4.48955 119.909L4.47763 119.741L14.8481 119.007L14.8698 119.313L4.14699 120.072L4.12856 119.812L13.931 111.051L13.9429 111.219L3.57243 111.953L3.55074 111.647Z" fill="black"/>
<path d="M5.68434 129.265L15.927 127.155L15.1213 123.244L15.4071 123.185L17.0805 131.307L16.7948 131.366L15.989 127.456L5.74632 129.566L5.68434 129.265Z" fill="black"/>
<path d="M7.4901 137.185L19.2728 138.462L19.3714 138.753L10.792 146.93L10.6787 146.595L19.0648 138.614L19.114 138.759L7.60345 137.519L7.4901 137.185ZM11.0863 137.701L11.4119 137.753L13.5557 144.08L13.3286 144.319L11.0863 137.701Z" fill="black"/>
<path d="M14.9338 155.934C14.5823 155.228 14.3749 154.514 14.3118 153.79C14.2625 153.071 14.3459 152.378 14.562 151.71C14.7827 151.051 15.1246 150.452 15.5878 149.912C16.0509 149.372 16.6307 148.929 17.3271 148.582C18.0236 148.235 18.7266 148.039 19.4363 147.994C20.1461 147.95 20.8304 148.037 21.4894 148.258C22.153 148.488 22.7523 148.841 23.2873 149.318C23.836 149.8 24.2862 150.393 24.6377 151.099C24.9528 151.731 25.151 152.382 25.2325 153.05C25.314 153.719 25.2513 154.362 25.0444 154.98L24.7698 154.911C24.9721 154.261 25.0302 153.631 24.9441 153.022C24.858 152.413 24.6688 151.815 24.3766 151.229C24.0478 150.569 23.6228 150.015 23.1015 149.565C22.5893 149.111 22.0175 148.779 21.386 148.567C20.7636 148.351 20.1136 148.263 19.4359 148.303C18.772 148.348 18.1147 148.533 17.4641 148.857C16.8135 149.181 16.2658 149.597 15.821 150.105C15.3899 150.617 15.0686 151.189 14.8571 151.82C14.6548 152.447 14.5761 153.104 14.6209 153.791C14.6749 154.473 14.8662 155.144 15.195 155.804C15.4872 156.39 15.8505 156.901 16.2848 157.337C16.7283 157.768 17.2704 158.098 17.9111 158.328L17.8008 158.589C17.183 158.382 16.6272 158.047 16.1334 157.584C15.6487 157.116 15.2489 156.566 14.9338 155.934Z" fill="black"/>
<path d="M21.0955 166.391L29.7924 160.583L27.5751 157.263L27.8178 157.101L32.423 163.997L32.1803 164.159L29.963 160.839L21.266 166.647L21.0955 166.391Z" fill="black"/>
<path d="M26.9629 174.571L34.9707 167.4L35.1449 167.594L31.8985 177.366L31.8063 177.264L41.8655 175.099L42.0397 175.293L34.0319 182.465L33.827 182.236L41.5031 175.362L41.585 175.453L31.6914 177.573L31.5685 177.435L34.7517 167.823L34.8439 167.926L27.1678 174.8L26.9629 174.571Z" fill="black"/>
<path d="M42.9949 183.055L47.6265 186.876L47.4408 187.101L42.8092 183.28L42.9949 183.055ZM39.6727 187.202L44.9558 191.561L44.7701 191.786L39.2501 187.231L46.0912 178.94L51.4335 183.347L51.2478 183.572L46.1424 179.36L39.6727 187.202Z" fill="black"/>
<path d="M53.9784 198.045C53.3081 197.63 52.7558 197.132 52.3213 196.55C51.901 195.964 51.6069 195.331 51.439 194.649C51.2798 193.972 51.2551 193.283 51.3649 192.58C51.4747 191.878 51.7344 191.196 52.1439 190.534C52.5534 189.872 53.0481 189.336 53.628 188.924C54.2079 188.513 54.8361 188.227 55.5126 188.068C56.1977 187.914 56.8933 187.899 57.5992 188.023C58.3192 188.144 59.0144 188.411 59.6847 188.826C60.2853 189.198 60.7962 189.647 61.2174 190.172C61.6385 190.698 61.9238 191.278 62.073 191.912L61.8032 191.998C61.6332 191.339 61.3513 190.773 60.9575 190.301C60.5637 189.828 60.0882 189.419 59.5311 189.074C58.9043 188.687 58.2511 188.439 57.5712 188.331C56.8968 188.214 56.2355 188.233 55.5872 188.385C54.9443 188.529 54.3453 188.796 53.7903 189.187C53.2494 189.575 52.7876 190.078 52.405 190.696C52.0225 191.314 51.7756 191.956 51.6646 192.621C51.5676 193.284 51.5954 193.939 51.748 194.587C51.9059 195.227 52.1847 195.827 52.5843 196.387C52.9893 196.939 53.5052 197.409 54.132 197.797C54.6891 198.142 55.2669 198.385 55.8655 198.527C56.4694 198.66 57.1043 198.655 57.77 198.514L57.8135 198.793C57.1793 198.943 56.5304 198.95 55.8667 198.817C55.2085 198.674 54.579 198.417 53.9784 198.045Z" fill="black"/>
<path d="M66.9109 204.717C66.1869 204.406 65.5672 203.994 65.0519 203.482C64.5501 202.965 64.166 202.382 63.8996 201.732C63.6427 201.086 63.5168 200.408 63.5221 199.697C63.5274 198.985 63.6839 198.273 63.9917 197.558C64.2995 196.843 64.7099 196.24 65.2229 195.747C65.736 195.255 66.3154 194.88 66.9611 194.623C67.6162 194.37 68.302 194.253 69.0184 194.272C69.7484 194.285 70.4753 194.448 71.1993 194.76C71.9234 195.072 72.5363 195.486 73.0381 196.003C73.5534 196.515 73.9396 197.094 74.1965 197.739C74.4629 198.389 74.5934 199.07 74.5881 199.781C74.5828 200.492 74.4263 201.205 74.1185 201.919C73.8108 202.634 73.4004 203.237 72.8873 203.73C72.3743 204.222 71.7902 204.595 71.1351 204.848C70.4894 205.105 69.8015 205.227 69.0716 205.213C68.3552 205.195 67.6349 205.029 66.9109 204.717ZM67.0263 204.449C67.7033 204.741 68.3839 204.895 69.0681 204.911C69.7523 204.927 70.4018 204.816 71.0166 204.58C71.6354 204.333 72.1838 203.979 72.6619 203.516C73.1533 203.047 73.5449 202.475 73.8364 201.798C74.128 201.121 74.273 200.448 74.2715 199.778C74.2835 199.103 74.1643 198.461 73.914 197.852C73.6678 197.233 73.3038 196.681 72.822 196.194C72.3403 195.708 71.7609 195.319 71.0839 195.028C70.4069 194.736 69.7263 194.582 69.0421 194.566C68.3579 194.55 67.7064 194.666 67.0876 194.912C66.4728 195.149 65.9197 195.501 65.4282 195.97C64.9502 196.432 64.5654 197.002 64.2738 197.679C63.9822 198.356 63.8305 199.032 63.8185 199.707C63.82 200.377 63.9439 201.021 64.1901 201.64C64.4404 202.249 64.8065 202.797 65.2882 203.283C65.7699 203.769 66.3493 204.158 67.0263 204.449Z" fill="black"/>
<path d="M78.2183 208.879L80.9094 198.472L81.1622 198.537L86.3501 210.617L86.1866 210.575L88.7893 200.51L89.0866 200.586L86.3955 210.994L86.1427 210.928L80.9548 198.849L81.1184 198.891L78.5157 208.956L78.2183 208.879Z" fill="black"/>
<path d="M95.6026 212.461L96.8596 202.079L92.8959 201.599L92.9309 201.309L101.163 202.306L101.128 202.595L97.1645 202.115L95.9075 212.498L95.6026 212.461Z" fill="black"/>
<path d="M103.683 213.267L108.642 202.502L108.949 202.502L113.972 213.236L113.619 213.237L108.719 202.748L108.873 202.747L104.037 213.266L103.683 213.267ZM105.317 210.022L105.469 209.73L112.15 209.71L112.304 210.001L105.317 210.022Z" fill="black"/>
<path d="M123.827 212.175C123.047 212.284 122.303 212.254 121.597 212.083C120.9 211.901 120.269 211.602 119.704 211.184C119.15 210.766 118.69 210.251 118.326 209.64C117.962 209.029 117.726 208.339 117.618 207.568C117.511 206.797 117.549 206.068 117.732 205.381C117.915 204.694 118.216 204.073 118.635 203.519C119.064 202.963 119.59 202.507 120.212 202.152C120.843 201.784 121.549 201.546 122.33 201.438C123.029 201.34 123.709 201.359 124.369 201.494C125.029 201.63 125.619 201.894 126.138 202.286L125.986 202.525C125.434 202.126 124.856 201.871 124.251 201.759C123.646 201.647 123.019 201.636 122.37 201.727C121.64 201.828 120.979 202.055 120.387 202.406C119.794 202.747 119.297 203.184 118.895 203.715C118.492 204.236 118.202 204.825 118.025 205.48C117.856 206.124 117.822 206.806 117.923 207.526C118.023 208.245 118.243 208.897 118.583 209.48C118.931 210.052 119.371 210.538 119.903 210.94C120.433 211.331 121.031 211.614 121.696 211.79C122.36 211.956 123.057 211.988 123.787 211.886C124.436 211.796 125.036 211.614 125.587 211.341C126.137 211.057 126.622 210.649 127.044 210.114L127.256 210.302C126.864 210.822 126.369 211.242 125.773 211.563C125.176 211.874 124.527 212.078 123.827 212.175Z" fill="black"/>
<path d="M135.7 209.658L132.96 199.565L129.107 200.612L129.03 200.33L137.033 198.157L137.11 198.439L133.256 199.485L135.996 209.578L135.7 209.658Z" fill="black"/>
<path d="M145.325 206.697L141.073 196.824L141.312 196.721L149.544 202.907L149.417 202.962L150.565 192.736L150.805 192.633L155.057 202.506L154.775 202.628L150.699 193.164L150.812 193.115L149.674 203.169L149.505 203.242L141.404 197.167L141.531 197.112L145.607 206.576L145.325 206.697Z" fill="black"/>
<path d="M158.465 194.197L163.561 191.021L163.715 191.269L158.619 194.445L158.465 194.197ZM161.34 198.666L167.153 195.044L167.307 195.291L161.234 199.076L155.549 189.953L161.427 186.29L161.581 186.538L155.964 190.038L161.34 198.666Z" fill="black"/>
<path d="M176.168 188.551C175.562 189.055 174.914 189.42 174.224 189.647C173.535 189.859 172.841 189.936 172.141 189.879C171.449 189.814 170.788 189.618 170.156 189.291C169.525 188.963 168.961 188.5 168.464 187.901C167.967 187.303 167.616 186.663 167.41 185.982C167.204 185.302 167.133 184.615 167.198 183.923C167.27 183.225 167.477 182.561 167.819 181.931C168.162 181.287 168.637 180.713 169.244 180.209C169.787 179.758 170.375 179.416 171.007 179.184C171.64 178.952 172.28 178.866 172.929 178.926L172.924 179.209C172.245 179.161 171.619 179.248 171.046 179.471C170.473 179.694 169.934 180.015 169.43 180.434C168.863 180.904 168.42 181.445 168.102 182.055C167.777 182.658 167.583 183.29 167.522 183.953C167.454 184.609 167.517 185.262 167.711 185.912C167.906 186.548 168.236 187.146 168.7 187.705C169.165 188.265 169.695 188.703 170.291 189.02C170.888 189.322 171.518 189.505 172.181 189.566C172.838 189.62 173.495 189.546 174.154 189.346C174.805 189.137 175.415 188.798 175.982 188.327C176.486 187.908 176.901 187.438 177.225 186.915C177.544 186.385 177.741 185.782 177.819 185.106L178.098 185.153C178.038 185.802 177.839 186.42 177.501 187.006C177.156 187.585 176.712 188.1 176.168 188.551Z" fill="black"/>
<path d="M186.609 178.412C186.083 178.999 185.496 179.456 184.846 179.782C184.197 180.093 183.521 180.272 182.821 180.317C182.127 180.356 181.443 180.259 180.771 180.028C180.098 179.797 179.472 179.422 178.893 178.903C178.313 178.384 177.872 177.802 177.568 177.159C177.264 176.516 177.093 175.848 177.055 175.154C177.024 174.452 177.131 173.765 177.376 173.092C177.621 172.404 178.007 171.767 178.532 171.179C179.058 170.592 179.646 170.143 180.296 169.831C180.945 169.506 181.617 169.324 182.311 169.285C183.011 169.24 183.698 169.332 184.37 169.563C185.043 169.795 185.669 170.17 186.249 170.689C186.828 171.208 187.27 171.789 187.574 172.432C187.877 173.075 188.045 173.747 188.076 174.449C188.114 175.143 188.011 175.834 187.766 176.521C187.521 177.195 187.135 177.825 186.609 178.412ZM186.392 178.218C186.883 177.668 187.246 177.072 187.478 176.428C187.711 175.785 187.813 175.134 187.784 174.476C187.747 173.811 187.586 173.178 187.299 172.578C187.011 171.963 186.593 171.409 186.044 170.918C185.495 170.426 184.902 170.074 184.267 169.863C183.631 169.637 182.985 169.546 182.327 169.589C181.662 169.626 181.023 169.795 180.409 170.097C179.795 170.399 179.242 170.825 178.75 171.374C178.258 171.923 177.896 172.519 177.663 173.163C177.43 173.807 177.332 174.461 177.369 175.126C177.398 175.784 177.556 176.421 177.844 177.035C178.131 177.636 178.549 178.182 179.098 178.674C179.647 179.166 180.239 179.524 180.875 179.75C181.51 179.962 182.161 180.049 182.826 180.013C183.483 179.969 184.119 179.796 184.733 179.494C185.347 179.192 185.9 178.767 186.392 178.218Z" fill="black"/>
<path d="M194.151 169.016L185.14 163.154L185.283 162.936L198.385 161.859L198.293 162.001L189.579 156.332L189.746 156.074L198.757 161.936L198.615 162.155L185.512 163.231L185.604 163.09L194.319 168.759L194.151 169.016Z" fill="black"/>
<path d="M203.077 153.672L193.634 149.178L191.918 152.783L191.654 152.658L195.218 145.17L195.481 145.295L193.766 148.9L203.209 153.394L203.077 153.672Z" fill="black"/>
<path d="M206.413 146.269L197.784 138.144L197.881 137.853L209.656 136.504L209.545 136.84L198.042 138.149L198.09 138.003L206.524 145.934L206.413 146.269ZM203.856 143.688L203.627 143.45L205.733 137.111L206.058 137.057L203.856 143.688Z" fill="black"/>
<path d="M211.782 126.823C211.637 127.598 211.371 128.293 210.985 128.908C210.591 129.512 210.106 130.014 209.531 130.417C208.958 130.81 208.323 131.081 207.629 131.233C206.934 131.384 206.204 131.388 205.439 131.244C204.674 131.101 203.995 130.833 203.402 130.441C202.809 130.049 202.316 129.566 201.924 128.992C201.533 128.409 201.268 127.766 201.129 127.063C200.982 126.348 200.98 125.603 201.126 124.828C201.256 124.133 201.49 123.495 201.828 122.913C202.166 122.33 202.604 121.855 203.142 121.487L203.319 121.708C202.766 122.104 202.34 122.571 202.041 123.109C201.743 123.647 201.533 124.237 201.412 124.881C201.277 125.606 201.281 126.305 201.426 126.978C201.561 127.649 201.816 128.259 202.192 128.808C202.559 129.356 203.024 129.818 203.589 130.195C204.146 130.559 204.781 130.809 205.496 130.943C206.21 131.076 206.898 131.075 207.559 130.938C208.211 130.79 208.813 130.527 209.362 130.151C209.902 129.773 210.361 129.297 210.739 128.722C211.108 128.145 211.36 127.494 211.495 126.77C211.616 126.126 211.634 125.499 211.55 124.89C211.457 124.278 211.223 123.688 210.851 123.118L211.096 122.977C211.464 123.514 211.706 124.117 211.82 124.784C211.925 125.449 211.912 126.129 211.782 126.823Z" fill="black"/>
<path d="M213.174 114.769L202.734 114.156L202.5 118.142L202.209 118.125L202.694 109.847L202.986 109.864L202.752 113.85L213.192 114.462L213.174 114.769Z" fill="black"/>
<path d="M213.428 104.702L202.715 105.593L202.693 105.333L211.176 99.4957L211.188 99.6334L201.858 95.2933L201.837 95.0332L212.549 94.1422L212.575 94.4483L202.306 95.3023L202.296 95.1799L211.466 99.4562L211.481 99.6399L203.145 105.388L203.133 105.25L213.402 104.396L213.428 104.702Z" fill="black"/>
<path d="M205.755 88.2666L204.365 82.4253L204.649 82.3577L206.039 88.1991L205.755 88.2666ZM210.906 86.962L209.321 80.299L209.605 80.2314L211.261 87.1933L200.804 89.6815L199.201 82.9438L199.484 82.8763L201.017 89.3152L210.906 86.962Z" fill="black"/>
<path d="M206.033 69.6879C206.317 70.4231 206.457 71.1538 206.453 71.88C206.435 72.6004 206.288 73.2832 206.01 73.9283C205.729 74.564 205.333 75.1289 204.822 75.6231C204.31 76.1173 203.692 76.5048 202.966 76.7855C202.241 77.0663 201.522 77.196 200.812 77.1746C200.101 77.1532 199.428 77.002 198.792 76.721C198.153 76.4305 197.589 76.0229 197.1 75.4983C196.599 74.9679 196.206 74.3351 195.921 73.5999C195.666 72.9411 195.53 72.275 195.511 71.6018C195.492 70.9285 195.614 70.294 195.877 69.6981L196.144 69.7923C195.882 70.4206 195.766 71.0419 195.795 71.6563C195.824 72.2708 195.957 72.8835 196.193 73.4946C196.459 74.1821 196.831 74.7738 197.308 75.2697C197.776 75.7693 198.314 76.1538 198.924 76.4231C199.523 76.696 200.162 76.844 200.841 76.8669C201.506 76.884 202.178 76.7614 202.855 76.4991C203.533 76.2368 204.117 75.8737 204.607 75.4096C205.084 74.9397 205.457 74.4002 205.727 73.7911C205.986 73.1856 206.126 72.5389 206.145 71.8509C206.155 71.1666 206.027 70.4807 205.761 69.7932C205.524 69.1821 205.21 68.6396 204.818 68.1655C204.417 67.6951 203.908 67.3158 203.291 67.0274L203.425 66.7779C204.021 67.0414 204.543 67.4266 204.992 67.9336C205.431 68.4443 205.778 69.0291 206.033 69.6879Z" fill="black"/>
<path d="M199.743 56.5635C200.133 57.2489 200.378 57.9511 200.481 58.6701C200.569 59.3852 200.524 60.0822 200.344 60.7612C200.16 61.4312 199.851 62.0482 199.418 62.6123C198.985 63.1763 198.43 63.6506 197.754 64.035C197.077 64.4194 196.386 64.6533 195.68 64.7367C194.973 64.8201 194.285 64.7695 193.615 64.5851C192.94 64.3917 192.323 64.0715 191.762 63.6244C191.188 63.1735 190.706 62.6054 190.317 61.92C189.927 61.2347 189.689 60.5344 189.6 59.8193C189.498 59.1003 189.539 58.4058 189.723 57.7358C189.903 57.0568 190.209 56.4353 190.642 55.8713C191.075 55.3073 191.63 54.833 192.306 54.4486C192.983 54.0642 193.674 53.8303 194.38 53.7469C195.087 53.6635 195.777 53.7185 196.452 53.9119C197.122 54.0963 197.744 54.414 198.319 54.8649C198.879 55.312 199.354 55.8782 199.743 56.5635ZM199.489 56.7077C199.125 56.0668 198.675 55.5337 198.139 55.1083C197.603 54.6829 197.018 54.3793 196.385 54.1974C195.743 54.0206 195.091 53.9727 194.431 54.0537C193.757 54.1308 193.099 54.3515 192.458 54.7156C191.817 55.0798 191.295 55.5294 190.893 56.0643C190.476 56.5953 190.184 57.1794 190.016 57.8165C189.84 58.4586 189.797 59.1188 189.888 59.7971C189.979 60.4754 190.206 61.135 190.571 61.7759C190.935 62.4168 191.385 62.9499 191.921 63.3753C192.457 63.8007 193.046 64.1018 193.688 64.2786C194.322 64.4604 194.975 64.5128 195.65 64.4356C196.31 64.3547 196.961 64.1321 197.602 63.7679C198.243 63.4038 198.772 62.9561 199.188 62.4251C199.591 61.8902 199.88 61.3016 200.057 60.6595C200.225 60.0225 200.263 59.3648 200.172 58.6865C200.081 58.0082 199.854 57.3486 199.489 56.7077Z" fill="black"/>
<path d="M193.233 46.424L184.81 53.1026L184.647 52.8981L187.795 40.1335L187.899 40.2659L179.753 46.725L179.562 46.4844L187.985 39.8058L188.148 40.0104L185.001 52.7749L184.896 52.6425L193.042 46.1834L193.233 46.424Z" fill="black"/>
<path d="M181.526 33.0826L174.262 40.6058L177.134 43.3792L176.932 43.5891L170.966 37.829L171.169 37.6191L174.041 40.3925L181.305 32.8692L181.526 33.0826Z" fill="black"/>
<path d="M175.567 27.5654L165.12 33.1615L164.874 32.977L167.341 21.3849L167.623 21.5971L165.206 32.919L165.083 32.8267L175.284 27.3532L175.567 27.5654ZM172.307 29.1689L172.009 29.3099L166.668 25.2972L166.721 24.9717L172.307 29.1689Z" fill="black"/>
<path d="M158.84 16.2896C159.528 16.6736 160.103 17.1464 160.563 17.708C161.01 18.2736 161.332 18.8931 161.531 19.5667C161.721 20.2352 161.777 20.9229 161.699 21.6298C161.621 22.3367 161.393 23.0299 161.014 23.7094C160.635 24.3889 160.165 24.9474 159.604 25.385C159.044 25.8225 158.429 26.1362 157.761 26.326C157.083 26.5108 156.389 26.5573 155.678 26.4656C154.953 26.3778 154.247 26.142 153.558 25.7579C152.941 25.4138 152.411 24.9888 151.966 24.4829C151.521 23.977 151.21 23.4107 151.032 22.7839L151.298 22.6859C151.498 23.3366 151.805 23.889 152.22 24.3431C152.635 24.7973 153.128 25.184 153.7 25.5031C154.344 25.8622 155.008 26.0801 155.692 26.1569C156.371 26.2426 157.031 26.1945 157.672 26.0126C158.307 25.8397 158.894 25.5453 159.43 25.1296C159.953 24.7178 160.391 24.1945 160.746 23.5597C161.1 22.9249 161.317 22.2725 161.398 21.6024C161.464 20.9363 161.407 20.2829 161.225 19.6422C161.038 19.0105 160.732 18.4238 160.308 17.8821C159.878 17.3494 159.341 16.9035 158.698 16.5444C158.125 16.2252 157.537 16.0084 156.933 15.894C156.323 15.7886 155.689 15.8218 155.031 15.9937L154.975 15.7162C155.601 15.5382 156.249 15.5011 156.918 15.6046C157.582 15.7171 158.223 15.9454 158.84 16.2896Z" fill="black"/>
<path d="M147.852 11.1349L143.951 20.8378L147.655 22.3273L147.546 22.598L139.852 19.5045L139.961 19.2338L143.666 20.7232L147.567 11.0203L147.852 11.1349Z" fill="black"/>
<path d="M138.389 7.69166L135.827 18.1314L135.573 18.0691L132.737 8.17018L132.872 8.20312L125.79 15.6676L125.536 15.6053L128.099 5.16563L128.397 5.23885L125.94 15.246L125.821 15.2168L132.792 7.88315L132.971 7.92708L135.769 17.6586L135.634 17.6256L138.091 7.61844L138.389 7.69166Z" fill="black"/>
<path d="M120.368 9.73956L114.388 9.19932L114.414 8.90873L120.394 9.44897L120.368 9.73956ZM120.769 4.44081L113.948 3.82459L113.974 3.53399L121.102 4.17785L120.134 14.8839L113.237 14.2608L113.263 13.9702L119.855 14.5657L120.769 4.44081Z" fill="black"/>
<g clip-path="url(#clip0_1806_2958)">
<path d="M39.5765 133.998L89.3486 27.4922L187.146 83.0972L121.074 180.336L73.3748 169.392L39.5765 133.998Z" fill="#1172B8"/>
<path d="M174.363 86.6141L133.614 63.4453L76.8508 163.28L115.242 171.628L174.363 86.6141Z" fill="#33AADD"/>
<path d="M118.915 122.49L78.1664 99.321L84.238 83.9004L122.629 92.2482L90.0302 73.7132L94.9434 60.3301L158.104 96.2417L147.958 109.345L115.679 104.473L140.128 118.374L114.043 154.769L84.9597 149.017L65.1441 126.966L74.691 105.433L86.9157 112.384L83.161 123.73L93.0688 134.755L107.61 137.631L118.915 122.49Z" fill="white"/>
</g>
<defs>
<clipPath id="clip0_1806_2958">
<rect width="150" height="150" fill="white" transform="translate(80 6) rotate(29.6214)"/>
</clipPath>
</defs>
</svg>
