<svg width="441" height="440" viewBox="0 0 441 440" fill="none" xmlns="http://www.w3.org/2000/svg">
<path d="M198.582 8.4489C200.175 8.3002 201.679 8.43098 203.094 8.84125C204.49 9.27412 205.742 9.93961 206.848 10.8377C207.933 11.7377 208.817 12.8235 209.499 14.095C210.181 15.3665 210.595 16.7881 210.742 18.3599C210.889 19.9317 210.745 21.4055 210.31 22.7813C209.875 24.1571 209.208 25.3876 208.308 26.4731C207.387 27.5604 206.28 28.4357 204.986 29.099C203.673 29.7848 202.22 30.2021 200.628 30.3508C199.2 30.4841 197.825 30.3831 196.5 30.0478C195.175 29.7125 194.004 29.123 192.986 28.2792L193.318 27.8102C194.4 28.6688 195.548 29.2396 196.764 29.5225C197.979 29.8053 199.249 29.885 200.572 29.7614C202.062 29.6223 203.422 29.2241 204.654 28.5666C205.888 27.9299 206.936 27.0914 207.799 26.0512C208.663 25.0317 209.306 23.866 209.725 22.5542C210.127 21.265 210.259 19.8862 210.122 18.4178C209.984 16.9494 209.598 15.6086 208.964 14.3953C208.31 13.2046 207.463 12.178 206.423 11.3155C205.385 10.4736 204.199 9.84371 202.867 9.42572C201.536 9.02841 200.126 8.89928 198.637 9.03833C197.314 9.16193 196.081 9.47524 194.939 9.97827C193.798 10.502 192.776 11.2859 191.873 12.3299L191.46 11.9304C192.303 10.9128 193.344 10.1063 194.582 9.51088C195.822 8.93615 197.155 8.58215 198.582 8.4489Z" fill="black"/>
<path d="M169.552 13.4669C171.105 13.0856 172.612 12.9938 174.072 13.1914C175.517 13.4142 176.852 13.8884 178.078 14.6141C179.284 15.3447 180.318 16.2887 181.18 17.446C182.041 18.6034 182.66 19.9487 183.037 21.4818C183.413 23.0149 183.487 24.4939 183.26 25.9186C183.032 27.3434 182.553 28.6587 181.822 29.8647C181.071 31.0757 180.105 32.1043 178.922 32.9507C177.724 33.8222 176.349 34.4485 174.796 34.8298C173.242 35.2111 171.743 35.2904 170.298 35.0676C168.838 34.8699 167.505 34.4058 166.299 33.6752C165.073 32.9495 164.029 32.008 163.167 30.8506C162.306 29.6933 161.687 28.348 161.311 26.8149C160.934 25.2818 160.86 23.8028 161.088 22.3781C161.315 20.9533 161.805 19.6355 162.555 18.4245C163.286 17.2186 164.25 16.1798 165.448 15.3083C166.63 14.462 167.998 13.8481 169.552 13.4669ZM169.693 14.0418C168.24 14.3983 166.951 14.9822 165.824 15.7936C164.697 16.6049 163.781 17.5784 163.076 18.7139C162.375 19.8696 161.922 21.1146 161.715 22.4488C161.492 23.808 161.559 25.2139 161.916 26.6664C162.272 28.1188 162.861 29.3858 163.683 30.4674C164.489 31.5742 165.468 32.4676 166.619 33.1475C167.774 33.8477 169.04 34.2964 170.414 34.4938C171.789 34.6911 173.202 34.6114 174.654 34.2549C176.107 33.8984 177.397 33.3144 178.523 32.5031C179.65 31.6918 180.564 30.7082 181.264 29.5525C181.969 28.417 182.433 27.1695 182.655 25.8102C182.863 24.4761 182.788 23.0828 182.431 21.6303C182.075 20.1779 181.493 18.8983 180.687 17.7916C179.865 16.7099 178.877 15.819 177.721 15.1189C176.57 14.4389 175.308 14.0002 173.933 13.8029C172.559 13.6056 171.145 13.6852 169.693 14.0418Z" fill="black"/>
<path d="M146.219 20.545L154.599 40.6813L154.11 40.8848L130.932 27.6828L131.249 27.5511L139.353 47.0258L138.778 47.2652L130.398 27.1289L130.887 26.9254L154.065 40.1274L153.748 40.2591L145.644 20.7844L146.219 20.545Z" fill="black"/>
<path d="M113.756 35.9958L124.425 54.3364L131.428 50.2629L131.725 50.7746L117.182 59.235L116.884 58.7233L123.887 54.6498L113.217 36.3092L113.756 35.9958Z" fill="black"/>
<path d="M99.7321 44.5502L104.879 68.0392L104.383 68.4165L83.1183 57.1903L83.6886 56.7563L104.453 67.7368L104.205 67.9255L99.1617 44.9841L99.7321 44.5502ZM101.059 51.8009L101.17 52.4607L90.3834 60.6673L89.777 60.3849L101.059 51.8009Z" fill="black"/>
<path d="M68.5176 70.9271C69.6479 69.7955 70.8886 68.9356 72.2395 68.3473C73.5905 67.7885 74.9783 67.5013 76.403 67.4858C77.8131 67.4851 79.1865 67.756 80.5234 68.2987C81.8603 68.8415 83.0872 69.6707 84.204 70.7863C85.3209 71.902 86.1515 73.1279 86.6956 74.4642C87.2398 75.8005 87.5123 77.1737 87.5131 78.5837C87.4991 80.0084 87.2061 81.3893 86.6341 82.7262C86.062 84.0924 85.2108 85.3414 84.0804 86.4729C83.0675 87.4869 81.9443 88.288 80.7109 88.8762C79.4774 89.4644 78.1998 89.7589 76.8779 89.7596L76.8335 89.1868C78.2141 89.1567 79.4624 88.8622 80.5784 88.3035C81.6944 87.7447 82.7221 86.9951 83.6616 86.0546C84.7185 84.9965 85.511 83.821 86.0391 82.5282C86.5818 81.2501 86.8528 79.9354 86.8521 78.5841C86.8661 77.2475 86.6157 75.9404 86.1009 74.6629C85.5861 73.4147 84.8071 72.2694 83.7637 71.2272C82.7202 70.1849 81.5668 69.3998 80.3034 68.8717C79.04 68.373 77.7326 68.124 76.3813 68.1248C75.0448 68.1402 73.7304 68.4126 72.4381 68.9421C71.1606 69.4862 69.9933 70.2873 68.9364 71.3454C67.9969 72.286 67.2484 73.3145 66.6908 74.4311C66.148 75.5624 65.8623 76.8183 65.8337 78.199L65.2608 78.1552C65.2601 76.8333 65.5458 75.548 66.118 74.2992C66.7048 73.0651 67.5047 71.9411 68.5176 70.9271Z" fill="black"/>
<path d="M52.4149 89.4865L69.1989 102.468L74.155 96.0599L74.6233 96.4221L64.3297 109.731L63.8615 109.369L68.8176 102.961L52.0337 89.9795L52.4149 89.4865Z" fill="black"/>
<path d="M40.4958 106.008L59.4582 116.783L59.1965 117.244L38.3045 117.305L38.4431 117.061L49.0983 135.014L48.8366 135.475L29.8741 124.699L30.182 124.157L48.3589 134.487L48.2357 134.703L37.7744 117.04L37.9592 116.715L58.5033 116.635L58.3648 116.879L40.1879 106.549L40.4958 106.008Z" fill="black"/>
<path d="M34.5549 142.252L30.1934 153.627L29.6406 153.415L34.0021 142.04L34.5549 142.252ZM24.4332 138.538L19.4582 151.513L18.9054 151.301L24.1035 137.744L44.4681 145.552L39.4374 158.673L38.8846 158.461L43.6923 145.922L24.4332 138.538Z" fill="black"/>
<path d="M12.8251 172.999C13.1906 171.442 13.793 170.057 14.632 168.846C15.4866 167.66 16.5155 166.685 17.7188 165.922C18.9173 165.18 20.2278 164.687 21.6501 164.445C23.0725 164.203 24.5521 164.262 26.089 164.623C27.6259 164.984 28.9773 165.589 30.1433 166.439C31.3094 167.289 32.2638 168.313 33.0066 169.511C33.7446 170.73 34.2222 172.058 34.4394 173.496C34.6721 174.959 34.6057 176.469 34.2401 178.026C33.9126 179.421 33.3792 180.694 32.64 181.843C31.9008 182.992 30.9693 183.915 29.8457 184.612L29.5065 184.148C30.6646 183.396 31.571 182.488 32.2258 181.426C32.8807 180.363 33.36 179.185 33.6638 177.891C34.0056 176.435 34.0608 175.018 33.8293 173.641C33.6181 172.269 33.1566 171.008 32.4447 169.859C31.7531 168.716 30.8523 167.736 29.7422 166.921C28.6475 166.13 27.3823 165.567 25.9466 165.23C24.5108 164.892 23.1168 164.832 21.7646 165.048C20.4279 165.289 19.1852 165.765 18.0366 166.477C16.9083 167.194 15.934 168.117 15.1139 169.247C14.3141 170.383 13.7432 171.678 13.4014 173.134C13.0976 174.428 13.0025 175.697 13.1161 176.94C13.25 178.187 13.6681 179.406 14.3704 180.595L13.8603 180.859C13.1639 179.735 12.7304 178.492 12.5596 177.129C12.409 175.771 12.4976 174.394 12.8251 172.999Z" fill="black"/>
<path d="M8.34762 202.122C8.48018 200.528 8.87238 199.07 9.52421 197.748C10.195 196.449 11.0694 195.334 12.1474 194.402C13.2236 193.491 14.4474 192.812 15.8187 192.363C17.19 191.914 18.6622 191.755 20.2355 191.886C21.8087 192.017 23.2344 192.417 24.5128 193.086C25.7911 193.755 26.8858 194.628 27.7967 195.704C28.706 196.801 29.3738 198.045 29.8001 199.435C30.2453 200.847 30.4017 202.351 30.2691 203.945C30.1366 205.539 29.7349 206.985 29.0641 208.284C28.4122 209.606 27.5482 210.722 26.472 211.633C25.394 212.564 24.1694 213.255 22.7981 213.703C21.4268 214.152 19.9545 214.311 18.3813 214.18C16.8081 214.049 15.3823 213.649 14.104 212.98C12.8256 212.311 11.7319 211.428 10.8226 210.331C9.91163 209.255 9.23351 208.011 8.78823 206.598C8.36193 205.208 8.21506 203.715 8.34762 202.122ZM8.93758 202.171C8.81362 203.661 8.95703 205.069 9.36779 206.396C9.77856 207.722 10.4101 208.9 11.2624 209.93C12.1354 210.962 13.1714 211.788 14.3704 212.408C15.5883 213.052 16.9425 213.435 18.4329 213.559C19.9234 213.683 21.312 213.528 22.5987 213.093C23.9045 212.68 25.0627 212.037 26.0734 211.162C27.1048 210.289 27.9326 209.232 28.5569 207.992C29.1811 206.751 29.5552 205.386 29.6792 203.896C29.8031 202.405 29.6597 200.997 29.249 199.67C28.8382 198.344 28.1963 197.165 27.3233 196.134C26.471 195.104 25.4358 194.267 24.2179 193.624C23.0189 193.003 21.6742 192.631 20.1838 192.507C18.6934 192.383 17.2953 192.527 15.9896 192.94C14.7028 193.375 13.5437 194.029 12.5123 194.902C11.5016 195.776 10.6841 196.834 10.0599 198.074C9.43563 199.315 9.06153 200.68 8.93758 202.171Z" fill="black"/>
<path d="M7.63789 226.492L29.3937 224.952L29.4311 225.48L9.54266 243.255L9.51846 242.913L30.5595 241.424L30.6035 242.046L8.84762 243.586L8.81023 243.057L28.6987 225.282L28.7229 225.624L7.68188 227.113L7.63789 226.492Z" fill="black"/>
<path d="M11.9588 262.185L32.7405 257.903L31.1057 249.968L31.6855 249.849L35.0808 266.328L34.501 266.447L32.8662 258.513L12.0845 262.795L11.9588 262.185Z" fill="black"/>
<path d="M15.6075 278.2L39.5138 280.791L39.7138 281.381L22.3068 297.971L22.0769 297.292L39.0916 281.099L39.1916 281.394L15.8374 278.879L15.6075 278.2ZM22.9039 279.248L23.5645 279.353L27.9141 292.189L27.4534 292.674L22.9039 279.248Z" fill="black"/>
<path d="M30.6876 316.185C29.9743 314.754 29.5536 313.304 29.4256 311.836C29.3255 310.377 29.4946 308.97 29.9331 307.615C30.3809 306.278 31.0746 305.062 32.0144 303.967C32.9541 302.872 34.1305 301.973 35.5434 301.268C36.9564 300.564 38.3829 300.167 39.8228 300.076C41.2628 299.985 42.6513 300.164 43.9884 300.611C45.3347 301.078 46.5506 301.795 47.6361 302.762C48.7495 303.739 49.6628 304.944 50.3761 306.375C51.0153 307.658 51.4175 308.978 51.5829 310.334C51.7482 311.691 51.621 312.995 51.2012 314.249L50.644 314.109C51.0546 312.79 51.1725 311.513 50.9977 310.277C50.8229 309.042 50.4391 307.829 49.8462 306.639C49.1793 305.3 48.3169 304.175 47.2592 303.263C46.2201 302.342 45.0598 301.667 43.7785 301.238C42.5158 300.8 41.1969 300.621 39.822 300.703C38.4749 300.794 37.1413 301.169 35.8213 301.826C34.5013 302.484 33.3901 303.328 32.4876 304.358C31.6129 305.397 30.9611 306.557 30.532 307.838C30.1215 309.11 29.9617 310.443 30.0526 311.837C30.1622 313.221 30.5504 314.583 31.2174 315.921C31.8103 317.111 32.5473 318.148 33.4286 319.031C34.3285 319.906 35.4283 320.576 36.7282 321.043L36.5045 321.572C35.251 321.152 34.1233 320.472 33.1214 319.533C32.138 318.584 31.3267 317.468 30.6876 316.185Z" fill="black"/>
<path d="M43.1613 337.356L60.8069 325.573L56.3081 318.836L56.8004 318.507L66.1441 332.499L65.6518 332.828L61.153 326.091L43.5074 337.875L43.1613 337.356Z" fill="black"/>
<path d="M55.0297 353.904L71.277 339.353L71.6304 339.748L65.0437 359.575L64.8566 359.366L85.2661 354.974L85.6195 355.369L69.3722 369.919L68.9565 369.455L84.5306 355.507L84.6969 355.693L64.6235 359.993L64.3741 359.714L70.8325 340.211L71.0196 340.42L55.4454 354.368L55.0297 353.904Z" fill="black"/>
<path d="M87.509 371.071L96.9061 378.824L96.5294 379.28L87.1323 371.527L87.509 371.071ZM80.7684 379.485L91.4874 388.329L91.1107 388.786L79.911 379.546L93.7911 362.722L104.63 371.665L104.254 372.121L93.8951 363.575L80.7684 379.485Z" fill="black"/>
<path d="M109.747 401.449C108.387 400.607 107.266 399.596 106.385 398.415C105.532 397.227 104.935 395.942 104.594 394.558C104.271 393.186 104.221 391.787 104.444 390.361C104.667 388.936 105.194 387.552 106.025 386.209C106.856 384.867 107.859 383.778 109.036 382.943C110.212 382.108 111.487 381.529 112.86 381.206C114.25 380.894 115.661 380.864 117.093 381.115C118.554 381.36 119.964 381.903 121.324 382.745C122.543 383.499 123.58 384.409 124.434 385.476C125.289 386.542 125.867 387.719 126.17 389.006L125.623 389.18C125.278 387.842 124.706 386.694 123.907 385.736C123.108 384.777 122.143 383.948 121.013 383.248C119.741 382.461 118.416 381.958 117.036 381.739C115.668 381.503 114.326 381.54 113.011 381.849C111.707 382.141 110.491 382.684 109.365 383.477C108.268 384.263 107.331 385.283 106.555 386.537C105.778 387.791 105.278 389.094 105.052 390.444C104.855 391.788 104.912 393.118 105.221 394.433C105.542 395.731 106.108 396.948 106.918 398.085C107.74 399.205 108.787 400.158 110.058 400.945C111.189 401.645 112.361 402.139 113.576 402.426C114.801 402.696 116.089 402.687 117.44 402.4L117.528 402.967C116.241 403.27 114.925 403.286 113.578 403.014C112.243 402.725 110.965 402.203 109.747 401.449Z" fill="black"/>
<path d="M135.93 414.957C134.461 414.324 133.204 413.489 132.159 412.45C131.14 411.401 130.361 410.217 129.821 408.899C129.299 407.589 129.044 406.213 129.055 404.77C129.065 403.327 129.383 401.881 130.007 400.431C130.632 398.981 131.465 397.756 132.506 396.757C133.546 395.758 134.722 394.998 136.032 394.476C137.361 393.963 138.753 393.726 140.206 393.764C141.687 393.791 143.162 394.121 144.631 394.754C146.1 395.386 147.344 396.227 148.362 397.276C149.408 398.315 150.191 399.489 150.712 400.799C151.253 402.117 151.518 403.498 151.507 404.941C151.496 406.383 151.179 407.83 150.554 409.28C149.93 410.73 149.097 411.954 148.056 412.953C147.015 413.952 145.83 414.708 144.501 415.222C143.191 415.743 141.795 415.99 140.314 415.963C138.861 415.925 137.399 415.589 135.93 414.957ZM136.164 414.413C137.538 415.005 138.919 415.317 140.307 415.349C141.695 415.382 143.013 415.158 144.26 414.677C145.516 414.177 146.629 413.458 147.599 412.519C148.596 411.569 149.39 410.407 149.982 409.033C150.573 407.66 150.868 406.294 150.865 404.935C150.889 403.566 150.647 402.263 150.139 401.027C149.64 399.771 148.901 398.65 147.924 397.664C146.946 396.678 145.771 395.889 144.397 395.297C143.024 394.706 141.643 394.394 140.254 394.361C138.866 394.329 137.544 394.562 136.289 395.062C135.041 395.543 133.919 396.258 132.922 397.208C131.952 398.147 131.171 399.304 130.58 400.677C129.988 402.051 129.68 403.422 129.656 404.791C129.659 406.15 129.91 407.457 130.41 408.712C130.918 409.948 131.661 411.06 132.638 412.046C133.615 413.033 134.791 413.821 136.164 414.413Z" fill="black"/>
<path d="M158.807 423.383L164.267 402.267L164.78 402.4L175.306 426.909L174.974 426.823L180.255 406.401L180.858 406.557L175.398 427.673L174.885 427.54L164.359 403.031L164.691 403.117L159.411 423.539L158.807 423.383Z" fill="black"/>
<path d="M194.024 430.638L196.574 409.574L188.532 408.6L188.603 408.013L205.306 410.035L205.235 410.623L197.193 409.649L194.642 430.713L194.024 430.638Z" fill="black"/>
<path d="M210.366 432.271L220.426 410.43L221.049 410.428L231.241 432.208L230.525 432.21L220.584 410.928L220.895 410.927L211.083 432.268L210.366 432.271ZM213.68 425.686L213.99 425.093L227.543 425.053L227.857 425.644L213.68 425.686Z" fill="black"/>
<path d="M251.177 430.057C249.593 430.278 248.084 430.216 246.652 429.87C245.237 429.501 243.957 428.893 242.811 428.046C241.686 427.196 240.754 426.152 240.015 424.913C239.276 423.674 238.797 422.272 238.579 420.709C238.361 419.145 238.438 417.666 238.81 416.272C239.182 414.878 239.793 413.619 240.642 412.493C241.513 411.365 242.579 410.441 243.842 409.719C245.122 408.974 246.554 408.491 248.138 408.271C249.558 408.073 250.937 408.111 252.276 408.386C253.614 408.66 254.811 409.196 255.866 409.993L255.556 410.476C254.436 409.668 253.263 409.15 252.036 408.922C250.809 408.695 249.537 408.673 248.22 408.857C246.739 409.063 245.398 409.523 244.197 410.236C242.993 410.928 241.984 411.813 241.17 412.892C240.353 413.949 239.764 415.143 239.404 416.473C239.062 417.779 238.993 419.162 239.196 420.623C239.4 422.083 239.847 423.405 240.536 424.588C241.243 425.748 242.136 426.735 243.214 427.55C244.289 428.343 245.502 428.919 246.852 429.276C248.2 429.612 249.614 429.677 251.095 429.471C252.412 429.287 253.629 428.918 254.747 428.364C255.862 427.789 256.848 426.959 257.703 425.875L258.134 426.255C257.337 427.31 256.334 428.163 255.125 428.814C253.912 429.445 252.596 429.859 251.177 430.057Z" fill="black"/>
<path d="M275.211 424.961L269.652 404.484L261.834 406.606L261.679 406.035L277.916 401.627L278.071 402.198L270.253 404.321L275.812 424.798L275.211 424.961Z" fill="black"/>
<path d="M294.681 418.975L286.054 398.943L286.541 398.734L303.243 411.285L302.985 411.395L305.313 390.649L305.8 390.439L314.427 410.471L313.854 410.717L305.585 391.516L305.814 391.417L303.506 411.816L303.162 411.964L286.726 399.638L286.984 399.527L295.254 418.728L294.681 418.975Z" fill="black"/>
<path d="M321.286 393.646L331.625 387.202L331.938 387.705L321.599 394.148L321.286 393.646ZM327.12 402.713L338.913 395.363L339.226 395.866L326.904 403.545L315.369 385.034L327.295 377.602L327.608 378.105L316.211 385.207L327.12 402.713Z" fill="black"/>
<path d="M357.156 382.223C355.926 383.245 354.611 383.986 353.211 384.446C351.814 384.876 350.405 385.033 348.985 384.916C347.581 384.786 346.239 384.389 344.958 383.724C343.678 383.059 342.533 382.12 341.525 380.905C340.517 379.69 339.804 378.392 339.386 377.011C338.968 375.63 338.825 374.238 338.955 372.834C339.101 371.416 339.522 370.069 340.215 368.791C340.912 367.484 341.876 366.319 343.106 365.298C344.209 364.382 345.402 363.689 346.685 363.218C347.968 362.747 349.267 362.573 350.583 362.695L350.574 363.269C349.197 363.171 347.926 363.348 346.763 363.801C345.6 364.253 344.507 364.904 343.484 365.753C342.334 366.708 341.435 367.805 340.789 369.043C340.13 370.265 339.738 371.549 339.613 372.895C339.475 374.224 339.603 375.549 339.997 376.869C340.393 378.159 341.062 379.372 342.004 380.507C342.946 381.642 344.022 382.531 345.231 383.174C346.442 383.788 347.721 384.157 349.066 384.282C350.398 384.391 351.732 384.242 353.068 383.835C354.391 383.412 355.628 382.723 356.778 381.768C357.801 380.919 358.642 379.964 359.301 378.904C359.947 377.828 360.348 376.604 360.505 375.232L361.071 375.329C360.949 376.645 360.545 377.898 359.859 379.089C359.16 380.263 358.259 381.308 357.156 382.223Z" fill="black"/>
<path d="M378.293 361.697C377.226 362.888 376.034 363.814 374.717 364.475C373.399 365.107 372.028 365.469 370.607 365.562C369.199 365.64 367.813 365.444 366.448 364.975C365.084 364.506 363.813 363.745 362.637 362.692C361.461 361.639 360.565 360.46 359.949 359.155C359.333 357.85 358.986 356.494 358.909 355.086C358.845 353.663 359.062 352.268 359.561 350.902C360.057 349.507 360.839 348.213 361.906 347.022C362.973 345.83 364.166 344.919 365.485 344.287C366.802 343.626 368.164 343.257 369.572 343.179C370.994 343.086 372.387 343.274 373.751 343.743C375.116 344.212 376.386 344.973 377.562 346.027C378.738 347.08 379.634 348.259 380.25 349.563C380.866 350.868 381.206 352.232 381.27 353.655C381.348 355.063 381.138 356.465 380.641 357.86C380.143 359.226 379.36 360.505 378.293 361.697ZM377.852 361.302C378.85 360.188 379.585 358.978 380.057 357.672C380.529 356.366 380.736 355.046 380.677 353.71C380.603 352.361 380.275 351.077 379.693 349.859C379.109 348.611 378.26 347.489 377.146 346.491C376.032 345.493 374.831 344.78 373.542 344.351C372.252 343.892 370.94 343.707 369.606 343.795C368.257 343.869 366.959 344.213 365.713 344.826C364.467 345.439 363.345 346.302 362.347 347.417C361.35 348.531 360.615 349.741 360.142 351.046C359.67 352.352 359.471 353.68 359.545 355.029C359.604 356.364 359.925 357.656 360.509 358.903C361.091 360.122 361.939 361.23 363.053 362.227C364.167 363.225 365.369 363.953 366.66 364.412C367.948 364.841 369.267 365.018 370.617 364.944C371.95 364.856 373.24 364.505 374.486 363.892C375.732 363.279 376.854 362.416 377.852 361.302Z" fill="black"/>
<path d="M393.555 342.686L375.272 330.793L375.561 330.349L402.145 328.165L401.958 328.452L384.277 316.95L384.616 316.428L402.899 328.321L402.61 328.765L376.026 330.949L376.213 330.661L393.894 342.163L393.555 342.686Z" fill="black"/>
<path d="M411.636 311.603L392.477 302.485L388.996 309.8L388.461 309.545L395.691 294.353L396.226 294.607L392.745 301.922L411.904 311.04L411.636 311.603Z" fill="black"/>
<path d="M418.385 296.632L400.879 280.147L401.075 279.555L424.965 276.82L424.739 277.5L401.401 280.156L401.499 279.86L418.611 295.951L418.385 296.632ZM413.197 291.395L412.733 290.913L417.006 278.051L417.666 277.941L413.197 291.395Z" fill="black"/>
<path d="M429.264 257.236C428.969 258.808 428.43 260.218 427.647 261.466C426.848 262.69 425.864 263.71 424.697 264.527C423.533 265.324 422.246 265.875 420.836 266.182C419.427 266.488 417.946 266.496 416.394 266.206C414.842 265.915 413.465 265.372 412.261 264.576C411.058 263.78 410.058 262.8 409.262 261.637C408.469 260.453 407.931 259.148 407.649 257.721C407.35 256.27 407.348 254.759 407.642 253.187C407.906 251.778 408.381 250.483 409.067 249.301C409.754 248.12 410.642 247.155 411.733 246.409L412.093 246.856C410.97 247.661 410.106 248.608 409.5 249.699C408.894 250.79 408.469 251.989 408.224 253.296C407.949 254.766 407.958 256.184 408.252 257.549C408.525 258.91 409.044 260.148 409.807 261.264C410.55 262.375 411.494 263.312 412.64 264.076C413.77 264.816 415.059 265.322 416.509 265.593C417.958 265.865 419.354 265.862 420.695 265.585C422.019 265.283 423.239 264.751 424.354 263.988C425.449 263.221 426.38 262.254 427.148 261.087C427.895 259.917 428.406 258.597 428.682 257.127C428.926 255.82 428.964 254.549 428.794 253.312C428.603 252.072 428.13 250.874 427.375 249.718L427.872 249.431C428.619 250.522 429.109 251.744 429.341 253.098C429.553 254.448 429.527 255.827 429.264 257.236Z" fill="black"/>
<path d="M432.081 232.831L410.899 231.588L410.424 239.675L409.833 239.64L410.819 222.844L411.41 222.879L410.935 230.966L432.117 232.209L432.081 232.831Z" fill="black"/>
<path d="M432.596 212.468L410.861 214.276L410.817 213.748L428.029 201.905L428.052 202.184L409.123 193.379L409.079 192.851L430.814 191.043L430.866 191.664L410.031 193.397L410.011 193.149L428.616 201.825L428.647 202.197L411.733 213.859L411.71 213.58L432.545 211.847L432.596 212.468Z" fill="black"/>
<path d="M417.042 179.188L414.222 167.337L414.797 167.2L417.617 179.051L417.042 179.188ZM427.493 176.541L424.277 163.023L424.852 162.886L428.213 177.011L406.995 182.059L403.743 168.389L404.319 168.252L407.427 181.316L427.493 176.541Z" fill="black"/>
<path d="M417.622 141.548C418.199 143.04 418.483 144.522 418.474 145.996C418.438 147.457 418.139 148.842 417.576 150.151C417.006 151.441 416.202 152.587 415.165 153.59C414.127 154.593 412.872 155.379 411.4 155.948C409.928 156.518 408.471 156.781 407.028 156.738C405.586 156.694 404.22 156.388 402.931 155.818C401.634 155.228 400.49 154.401 399.499 153.337C398.481 152.261 397.684 150.977 397.106 149.485C396.589 148.148 396.312 146.797 396.273 145.431C396.235 144.065 396.483 142.777 397.017 141.568L397.559 141.76C397.027 143.034 396.791 144.295 396.85 145.542C396.91 146.788 397.179 148.032 397.659 149.271C398.198 150.666 398.952 151.867 399.921 152.873C400.87 153.887 401.962 154.667 403.198 155.213C404.414 155.767 405.711 156.067 407.088 156.114C408.437 156.148 409.8 155.899 411.175 155.367C412.551 154.835 413.736 154.098 414.73 153.157C415.697 152.203 416.454 151.109 417.001 149.873C417.528 148.645 417.811 147.332 417.85 145.936C417.869 144.548 417.609 143.156 417.07 141.761C416.59 140.522 415.953 139.421 415.157 138.459C414.343 137.505 413.31 136.735 412.059 136.15L412.331 135.644C413.54 136.178 414.6 136.96 415.51 137.989C416.401 139.025 417.105 140.211 417.622 141.548Z" fill="black"/>
<path d="M404.887 114.979C405.677 116.369 406.176 117.794 406.384 119.253C406.563 120.704 406.471 122.118 406.107 123.495C405.733 124.855 405.106 126.107 404.227 127.251C403.349 128.396 402.223 129.358 400.851 130.138C399.478 130.918 398.075 131.392 396.642 131.561C395.21 131.731 393.813 131.628 392.454 131.254C391.084 130.861 389.831 130.212 388.695 129.305C387.53 128.39 386.552 127.237 385.762 125.847C384.972 124.456 384.487 123.035 384.307 121.584C384.1 120.126 384.183 118.716 384.557 117.357C384.921 115.979 385.542 114.719 386.421 113.574C387.3 112.43 388.425 111.468 389.798 110.688C391.17 109.908 392.573 109.433 394.006 109.264C395.439 109.095 396.84 109.206 398.21 109.599C399.569 109.973 400.832 110.617 401.997 111.532C403.133 112.439 404.097 113.588 404.887 114.979ZM404.372 115.271C403.633 113.971 402.72 112.889 401.632 112.026C400.544 111.163 399.358 110.547 398.073 110.178C396.771 109.819 395.449 109.722 394.109 109.886C392.74 110.043 391.406 110.49 390.106 111.229C388.806 111.968 387.747 112.88 386.93 113.966C386.085 115.043 385.492 116.228 385.152 117.521C384.793 118.824 384.706 120.163 384.891 121.539C385.076 122.916 385.538 124.254 386.276 125.554C387.015 126.854 387.929 127.936 389.016 128.799C390.104 129.662 391.3 130.273 392.602 130.632C393.887 131.001 395.214 131.107 396.582 130.951C397.922 130.786 399.242 130.335 400.543 129.596C401.843 128.857 402.916 127.949 403.761 126.871C404.578 125.786 405.165 124.592 405.524 123.289C405.864 121.997 405.942 120.662 405.758 119.286C405.573 117.91 405.111 116.571 404.372 115.271Z" fill="black"/>
<path d="M391.716 94.46L374.626 108.01L374.297 107.595L380.682 81.697L380.895 81.9655L364.366 95.0707L363.979 94.5824L381.069 81.032L381.398 81.4471L375.013 107.345L374.8 107.077L391.329 93.9717L391.716 94.46Z" fill="black"/>
<path d="M368.001 67.4352L353.263 82.6994L359.09 88.3264L358.679 88.7523L346.575 77.0655L346.986 76.6396L352.814 82.2666L367.553 67.0024L368.001 67.4352Z" fill="black"/>
<path d="M355.952 56.2748L334.755 67.629L334.257 67.2547L339.262 43.7351L339.835 44.1656L334.93 67.1369L334.681 66.9497L355.379 55.8444L355.952 56.2748ZM349.337 59.5282L348.733 59.8143L337.897 51.6729L338.003 51.0124L349.337 59.5282Z" fill="black"/>
<path d="M322.064 33.4269C323.461 34.2061 324.626 35.1654 325.56 36.3049C326.466 37.4524 327.121 38.7094 327.524 40.076C327.909 41.4324 328.023 42.8277 327.865 44.2619C327.707 45.6961 327.244 47.1025 326.475 48.4812C325.706 49.8599 324.753 50.9931 323.615 51.8809C322.478 52.7687 321.231 53.4051 319.874 53.7901C318.5 54.165 317.091 54.2595 315.649 54.0734C314.179 53.8954 312.745 53.4168 311.348 52.6376C310.097 51.9395 309.02 51.0771 308.118 50.0507C307.216 49.0242 306.584 47.8752 306.223 46.6035L306.762 46.4047C307.167 47.7249 307.791 48.8457 308.633 49.7671C309.474 50.6885 310.476 51.4731 311.637 52.1206C312.943 52.8492 314.29 53.2913 315.678 53.447C317.055 53.6209 318.394 53.5233 319.694 53.1543C320.984 52.8034 322.173 52.2063 323.262 51.3628C324.323 50.5273 325.212 49.4656 325.931 48.1776C326.649 46.8897 327.09 45.5659 327.254 44.2064C327.389 42.8549 327.272 41.5292 326.903 40.2292C326.524 38.9475 325.904 37.7571 325.042 36.6581C324.171 35.5772 323.082 34.6725 321.776 33.9439C320.615 33.2964 319.421 32.8565 318.195 32.6244C316.958 32.4105 315.672 32.4779 314.336 32.8266L314.222 32.2635C315.493 31.9026 316.808 31.8271 318.165 32.0373C319.513 32.2655 320.812 32.7288 322.064 33.4269Z" fill="black"/>
<path d="M299.818 22.9955L291.903 42.6821L299.419 45.7041L299.198 46.2534L283.588 39.9769L283.809 39.4276L291.325 42.4496L299.24 22.7631L299.818 22.9955Z" fill="black"/>
<path d="M280.678 16.0294L275.479 37.2108L274.964 37.0846L269.211 17.0003L269.483 17.0671L255.114 32.2119L254.6 32.0857L259.799 10.9042L260.404 11.0528L255.42 31.3567L255.178 31.2973L269.322 16.4179L269.685 16.507L275.361 36.2516L275.089 36.1848L280.073 15.8808L280.678 16.0294Z" fill="black"/>
<path d="M244.179 20.1913L232.046 19.0952L232.099 18.5057L244.232 19.6018L244.179 20.1913ZM244.994 9.44056L231.154 8.19027L231.207 7.60068L245.668 8.90703L243.705 30.6288L229.71 29.3645L229.764 28.7749L243.138 29.9832L244.994 9.44056Z" fill="black"/>
<g clip-path="url(#clip0_1815_3015)">
<rect x="66.0693" y="226.893" width="218.75" height="218.75" transform="rotate(-47.8733 66.0693 226.893)" fill="#FFCA28"/>
<path d="M290.09 250.426L292.99 231.332C296.777 233.056 309.123 233.446 315.896 225.958C322.668 218.47 321.722 211.294 319.011 208.842C311.622 202.16 302.102 207.45 297.529 209.99C296.784 210.404 296.17 210.746 295.718 210.95C295.487 211.055 295.15 211.226 294.718 211.445C289.464 214.119 270.078 223.981 253.39 208.888C235.009 192.263 248.939 172.612 252.567 168.601C254.94 165.976 266.675 153.648 284.168 158.045L281.775 176.948C274.331 174.834 268.813 177.517 266.463 180.116C260.658 186.534 264.154 192.126 266.296 194.063C272.306 199.499 281.306 194.962 288.906 191.131C290.894 190.129 292.786 189.175 294.504 188.46C303.342 184.785 316.851 179.825 332.475 193.955C340.301 201.033 347.034 219.055 332.089 235.579C312.014 257.776 293.367 251.607 290.09 250.426Z" fill="#3E3E3E"/>
<path d="M239.256 309.788L242.616 290.193C246.438 291.876 255.286 292.987 260.26 287.487C265.235 281.987 262.132 274.062 259.422 271.611L206.143 223.425L219.991 208.113L273.27 256.3C280.843 262.698 291.854 280.067 275.586 298.054C260.629 314.592 244.582 312.578 239.256 309.788Z" fill="#3E3E3E"/>
</g>
<defs>
<clipPath id="clip0_1815_3015">
<rect width="250" height="250" fill="white" transform="translate(44 228) rotate(-47.8733)"/>
</clipPath>
</defs>
</svg>
