<svg width="140" height="114" viewBox="0 0 140 114" fill="none" xmlns="http://www.w3.org/2000/svg">
<path d="M63.1033 2.22883C63.6097 2.18154 64.0879 2.22313 64.5379 2.35358C64.9819 2.49123 65.3798 2.70284 65.7315 2.98842C66.0767 3.27461 66.3577 3.61986 66.5745 4.02416C66.7914 4.42847 66.9232 4.88053 66.9698 5.38033C67.0165 5.88013 66.9707 6.34877 66.8325 6.78624C66.6942 7.22371 66.482 7.61501 66.1958 7.96015C65.903 8.30591 65.5509 8.58424 65.1394 8.79514C64.7219 9.01323 64.26 9.14591 63.7536 9.1932C63.2999 9.23557 62.8623 9.20345 62.4411 9.09685C62.0199 8.99024 61.6474 8.80278 61.3239 8.53448L61.4294 8.38532C61.7733 8.65836 62.1385 8.83985 62.525 8.9298C62.9115 9.01975 63.3152 9.04507 63.7361 9.00577C64.2096 8.96156 64.6423 8.83492 65.034 8.62586C65.4264 8.42338 65.7597 8.15676 66.034 7.826C66.3089 7.50182 66.5131 7.13116 66.6466 6.71404C66.7742 6.3041 66.8161 5.86567 66.7725 5.39875C66.7289 4.93183 66.6062 4.50547 66.4043 4.11966C66.1965 3.74104 65.9272 3.4146 65.5965 3.14034C65.2663 2.87265 64.8894 2.67235 64.4657 2.53944C64.0426 2.4131 63.5943 2.37204 63.1208 2.41625C62.6999 2.45555 62.3079 2.55518 61.9447 2.71513C61.5821 2.88166 61.2571 3.13092 60.9697 3.46291L60.8384 3.33586C61.1067 3.01229 61.4377 2.75584 61.8313 2.56651C62.2255 2.38376 62.6495 2.2712 63.1033 2.22883Z" fill="black"/>
<path d="M53.8039 3.83265C54.2978 3.71141 54.7769 3.68221 55.2412 3.74507C55.7006 3.81591 56.1253 3.96671 56.5152 4.19745C56.8987 4.42977 57.2274 4.72994 57.5014 5.09795C57.7753 5.46597 57.9722 5.89373 58.0918 6.38124C58.2115 6.86874 58.2351 7.33902 58.1627 7.79206C58.0903 8.24511 57.9379 8.66337 57.7056 9.04685C57.4669 9.4319 57.1595 9.75899 56.7835 10.0281C56.4026 10.3052 55.9653 10.5044 55.4713 10.6257C54.9774 10.7469 54.5007 10.7721 54.0413 10.7013C53.577 10.6384 53.1531 10.4908 52.7696 10.2585C52.3797 10.0277 52.0478 9.72837 51.7738 9.36035C51.4999 8.99233 51.303 8.56457 51.1834 8.07707C51.0637 7.58956 51.0401 7.11929 51.1125 6.66624C51.1849 6.2132 51.3405 5.79415 51.5792 5.40909C51.8115 5.02562 52.1181 4.69532 52.499 4.4182C52.875 4.14908 53.3099 3.95389 53.8039 3.83265ZM53.8487 4.01546C53.3869 4.12883 52.9768 4.31451 52.6185 4.5725C52.2601 4.83049 51.9688 5.14003 51.7446 5.50111C51.522 5.86861 51.3777 6.26448 51.3118 6.68872C51.2411 7.12094 51.2624 7.56798 51.3758 8.02983C51.4892 8.49168 51.6765 8.89457 51.9377 9.2385C52.1941 9.59042 52.5053 9.8745 52.8712 10.0907C53.2387 10.3134 53.641 10.456 54.0781 10.5188C54.5152 10.5815 54.9646 10.5562 55.4265 10.4428C55.8883 10.3295 56.2984 10.1438 56.6567 9.8858C57.0151 9.62781 57.3056 9.31507 57.5282 8.94757C57.7524 8.58648 57.8999 8.18983 57.9706 7.7576C58.0365 7.33337 58.0128 6.89032 57.8994 6.42848C57.786 5.96663 57.6011 5.55974 57.3447 5.20782C57.0835 4.86389 56.7691 4.5806 56.4016 4.35796C56.0357 4.14174 55.6342 4.00226 55.1971 3.93952C54.76 3.87678 54.3106 3.90209 53.8487 4.01546Z" fill="black"/>
<path d="M46.3174 6.10579L48.9819 12.5087L48.8264 12.5734L41.4564 8.37546L41.557 8.33359L44.134 14.5261L43.951 14.6023L41.2865 8.19933L41.442 8.13462L48.8121 12.3326L48.7114 12.3745L46.1345 6.18192L46.3174 6.10579Z" fill="black"/>
<path d="M35.9402 11.0464L39.3329 16.8784L41.5595 15.5831L41.6541 15.7458L37.0297 18.436L36.935 18.2733L39.1616 16.978L35.769 11.1461L35.9402 11.0464Z" fill="black"/>
<path d="M31.4346 13.7967L33.0713 21.2657L32.9136 21.3857L26.1518 17.816L26.3331 17.678L32.9359 21.1696L32.857 21.2295L31.2533 13.9347L31.4346 13.7967ZM31.8567 16.1023L31.8918 16.3121L28.4619 18.9216L28.2691 18.8318L31.8567 16.1023Z" fill="black"/>
<path d="M21.4617 22.2265C21.8211 21.8667 22.2156 21.5933 22.6452 21.4062C23.0747 21.2285 23.5161 21.1372 23.9691 21.1323C24.4174 21.132 24.8542 21.2182 25.2793 21.3908C25.7044 21.5633 26.0945 21.827 26.4496 22.1818C26.8048 22.5365 27.0689 22.9263 27.2419 23.3513C27.415 23.7762 27.5016 24.2128 27.5018 24.6612C27.4974 25.1142 27.4043 25.5533 27.2223 25.9784C27.0404 26.4128 26.7698 26.81 26.4103 27.1698C26.0883 27.4922 25.7311 27.747 25.3389 27.934C24.9467 28.121 24.5404 28.2146 24.1201 28.2149L24.106 28.0327C24.545 28.0232 24.9419 27.9295 25.2968 27.7519C25.6516 27.5742 25.9784 27.3358 26.2772 27.0368C26.6132 26.7003 26.8652 26.3265 27.0332 25.9154C27.2057 25.509 27.2919 25.091 27.2917 24.6613C27.2961 24.2363 27.2165 23.8207 27.0528 23.4144C26.8891 23.0175 26.6414 22.6534 26.3096 22.3219C25.9778 21.9905 25.6111 21.7409 25.2093 21.5729C24.8076 21.4144 24.3919 21.3352 23.9622 21.3354C23.5372 21.3403 23.1192 21.427 22.7083 21.5953C22.3021 21.7684 21.9309 22.0231 21.5948 22.3595C21.2961 22.6586 21.0581 22.9857 20.8808 23.3407C20.7082 23.7004 20.6173 24.0998 20.6082 24.5388L20.4261 24.5249C20.4259 24.1046 20.5167 23.6959 20.6986 23.2988C20.8852 22.9064 21.1396 22.5489 21.4617 22.2265Z" fill="black"/>
<path d="M16.3031 28.1717L21.6401 32.2995L23.2161 30.2619L23.365 30.377L20.0918 34.609L19.9429 34.4938L21.5189 32.4562L16.1819 28.3284L16.3031 28.1717Z" fill="black"/>
<path d="M12.477 33.4785L18.5066 36.9049L18.4234 37.0513L11.7802 37.0709L11.8242 36.9934L15.2124 42.702L15.1292 42.8484L9.0995 39.422L9.1974 39.2497L14.9773 42.5342L14.9381 42.6031L11.6116 36.9865L11.6704 36.8832L18.203 36.8577L18.1589 36.9352L12.3791 33.6507L12.477 33.4785Z" fill="black"/>
<path d="M10.5574 45.068L9.1705 48.6851L8.99474 48.6177L10.3816 45.0006L10.5574 45.068ZM7.33887 43.887L5.75692 48.0129L5.58115 47.9455L7.23405 43.6346L13.7096 46.1175L12.1099 50.2896L11.9341 50.2222L13.4629 46.2351L7.33887 43.887Z" fill="black"/>
<path d="M3.63008 54.9035C3.74631 54.4084 3.93783 53.9683 4.20465 53.5831C4.47638 53.2059 4.80355 52.896 5.18617 52.6534C5.56727 52.4172 5.98397 52.2606 6.43626 52.1836C6.88855 52.1066 7.35904 52.1255 7.84773 52.2402C8.33642 52.3549 8.76615 52.5474 9.13693 52.8176C9.5077 53.0878 9.81118 53.4135 10.0474 53.7946C10.2821 54.1821 10.4339 54.6045 10.503 55.0617C10.577 55.5269 10.5559 56.007 10.4396 56.5021C10.3355 56.9458 10.1659 57.3504 9.9308 57.7158C9.69575 58.0813 9.39958 58.3748 9.04229 58.5962L8.93443 58.4487C9.30268 58.2095 9.59091 57.921 9.79912 57.5832C10.0073 57.2453 10.1598 56.8706 10.2564 56.4591C10.365 55.9961 10.3826 55.5457 10.309 55.1078C10.2418 54.6714 10.0951 54.2706 9.86873 53.9053C9.64881 53.5416 9.36236 53.2301 9.00936 52.9709C8.66129 52.7195 8.25898 52.5403 7.80244 52.4331C7.3459 52.3259 6.90264 52.3067 6.47266 52.3753C6.0476 52.452 5.65246 52.6034 5.28724 52.8298C4.92844 53.0576 4.61866 53.3513 4.35788 53.7107C4.10354 54.0716 3.92202 54.4836 3.81334 54.9466C3.71673 55.3581 3.68649 55.7615 3.72262 56.1567C3.76518 56.5534 3.89812 56.9408 4.12145 57.3189L3.95925 57.4029C3.73782 57.0456 3.59995 56.6503 3.54565 56.2169C3.49778 55.785 3.52592 55.3472 3.63008 54.9035Z" fill="black"/>
<path d="M2.19475 64.2294C2.2369 63.7225 2.36161 63.259 2.56888 62.8388C2.78218 62.4258 3.06022 62.0711 3.403 61.7749C3.74522 61.4852 4.13435 61.269 4.5704 61.1263C5.00644 60.9836 5.47459 60.9331 5.97484 60.9747C6.47509 61.0163 6.92846 61.1435 7.33494 61.3562C7.74143 61.569 8.08951 61.8465 8.37918 62.1887C8.6683 62.5375 8.88064 62.933 9.0162 63.3751C9.15779 63.8243 9.2075 64.3023 9.16535 64.8091C9.1232 65.3159 8.99547 65.7759 8.78217 66.189C8.5749 66.6092 8.30015 66.9641 7.95793 67.2538C7.61515 67.55 7.22575 67.7695 6.7897 67.9122C6.35366 68.0549 5.88551 68.1054 5.38526 68.0638C4.88501 68.0222 4.43164 67.895 4.02516 67.6822C3.61867 67.4695 3.27087 67.1887 2.98175 66.8399C2.69207 66.4977 2.47644 66.102 2.33485 65.6528C2.1993 65.2107 2.1526 64.7362 2.19475 64.2294ZM2.38234 64.245C2.34293 64.7189 2.38853 65.1668 2.51914 65.5885C2.64976 66.0103 2.85058 66.3849 3.1216 66.7124C3.3992 67.0403 3.72862 67.303 4.10987 67.5004C4.49716 67.7049 4.92776 67.8269 5.40168 67.8663C5.8756 67.9057 6.31715 67.8563 6.72632 67.718C7.14152 67.5868 7.50981 67.3822 7.8312 67.104C8.15916 66.8264 8.42239 66.4904 8.62089 66.096C8.81939 65.7016 8.93834 65.2674 8.97776 64.7935C9.01717 64.3196 8.97157 63.8717 8.84096 63.45C8.71034 63.0282 8.50623 62.6533 8.22863 62.3253C7.95761 61.9979 7.62846 61.7319 7.24118 61.5274C6.85993 61.33 6.43234 61.2116 5.95842 61.1722C5.4845 61.1328 5.03994 61.1786 4.62473 61.3098C4.21556 61.4481 3.847 61.656 3.51903 61.9336C3.19765 62.2118 2.93771 62.5481 2.73921 62.9425C2.54071 63.3369 2.42176 63.7711 2.38234 64.245Z" fill="black"/>
<path d="M1.96953 72.0516L8.88745 71.562L8.89934 71.73L2.57521 77.3821L2.56752 77.2734L9.25814 76.7999L9.27212 76.9975L2.3542 77.4871L2.34231 77.3191L8.66645 71.667L8.67414 71.7757L1.98352 72.2492L1.96953 72.0516Z" fill="black"/>
<path d="M3.35172 83.4626L9.95989 82.101L9.44007 79.5781L9.62444 79.5401L10.7041 84.7801L10.5197 84.818L9.99988 82.2951L3.3917 83.6566L3.35172 83.4626Z" fill="black"/>
<path d="M4.52728 88.6101L12.129 89.434L12.1926 89.6217L6.65755 94.897L6.58442 94.6811L11.9948 89.5318L12.0266 89.6256L4.60041 88.8259L4.52728 88.6101ZM6.84739 88.9432L7.05747 88.9766L8.44055 93.0584L8.29406 93.2127L6.84739 88.9432Z" fill="black"/>
<path d="M9.34637 100.746C9.11956 100.291 8.9858 99.8298 8.9451 99.3631C8.91325 98.8993 8.96704 98.4518 9.10647 98.0208C9.24885 97.5956 9.46945 97.209 9.76827 96.8608C10.0671 96.5127 10.4411 96.2267 10.8904 96.0028C11.3397 95.779 11.7933 95.6526 12.2512 95.6237C12.7091 95.5948 13.1506 95.6515 13.5758 95.7939C14.0039 95.9422 14.3905 96.1702 14.7357 96.4778C15.0897 96.7885 15.3801 97.1714 15.6069 97.6266C15.8102 98.0345 15.9381 98.4542 15.9907 98.8855C16.0432 99.3168 16.0028 99.7318 15.8693 100.13L15.6921 100.086C15.8227 99.6666 15.8602 99.2605 15.8046 98.8675C15.749 98.4746 15.627 98.0889 15.4385 97.7106C15.2264 97.2849 14.9522 96.9271 14.6158 96.6372C14.2854 96.3443 13.9165 96.1296 13.509 95.9932C13.1075 95.8538 12.6881 95.7971 12.2509 95.8231C11.8226 95.852 11.3985 95.9711 10.9788 96.1802C10.5591 96.3893 10.2057 96.6576 9.91874 96.9851C9.64062 97.3156 9.43334 97.6845 9.2969 98.0919C9.16636 98.4964 9.11556 98.9202 9.14448 99.3634C9.17931 99.8035 9.30277 100.236 9.51486 100.662C9.70338 101.04 9.93775 101.37 10.218 101.651C10.5041 101.929 10.8538 102.142 11.2672 102.291L11.196 102.459C10.7975 102.325 10.4389 102.109 10.1203 101.81C9.80759 101.509 9.54962 101.154 9.34637 100.746Z" fill="black"/>
<path d="M13.3414 107.527L18.9523 103.781L17.5218 101.638L17.6784 101.534L20.6494 105.983L20.4929 106.088L19.0624 103.945L13.4514 107.692L13.3414 107.527Z" fill="black"/>
<path d="M17.1553 112.84L22.3216 108.214L22.434 108.339L20.3395 114.644L20.28 114.577L26.7699 113.181L26.8822 113.306L21.7159 117.933L21.5837 117.785L26.536 113.35L26.5889 113.409L20.2059 114.777L20.1266 114.688L22.1803 108.487L22.2398 108.553L17.2875 112.988L17.1553 112.84Z" fill="black"/>
<path d="M120.633 115.319C120.293 115.698 119.914 115.992 119.496 116.203C119.076 116.403 118.641 116.519 118.189 116.548C117.741 116.573 117.3 116.511 116.866 116.361C116.432 116.212 116.029 115.97 115.655 115.635C115.281 115.301 114.996 114.926 114.8 114.511C114.604 114.096 114.494 113.665 114.469 113.217C114.449 112.764 114.518 112.321 114.676 111.887C114.834 111.443 115.083 111.032 115.422 110.653C115.761 110.274 116.141 109.984 116.56 109.783C116.979 109.573 117.412 109.455 117.86 109.431C118.312 109.401 118.755 109.461 119.189 109.61C119.622 109.759 120.026 110.001 120.4 110.336C120.774 110.671 121.059 111.046 121.255 111.461C121.451 111.876 121.559 112.309 121.579 112.762C121.604 113.21 121.537 113.655 121.379 114.099C121.221 114.534 120.972 114.94 120.633 115.319ZM120.493 115.193C120.81 114.839 121.044 114.454 121.194 114.039C121.344 113.624 121.41 113.204 121.391 112.779C121.367 112.35 121.263 111.942 121.078 111.555C120.892 111.158 120.622 110.801 120.268 110.484C119.914 110.167 119.532 109.94 119.122 109.803C118.712 109.658 118.295 109.599 117.87 109.627C117.441 109.65 117.029 109.76 116.633 109.954C116.236 110.149 115.88 110.424 115.562 110.778C115.245 111.132 115.011 111.517 114.861 111.932C114.711 112.348 114.648 112.77 114.671 113.199C114.69 113.623 114.792 114.034 114.978 114.431C115.163 114.818 115.433 115.171 115.787 115.488C116.141 115.805 116.523 116.037 116.934 116.182C117.343 116.319 117.763 116.375 118.192 116.352C118.616 116.324 119.026 116.212 119.422 116.017C119.819 115.822 120.175 115.548 120.493 115.193Z" fill="black"/>
<path d="M125.529 109.217L119.715 105.436L119.807 105.295L128.26 104.6L128.201 104.692L122.579 101.034L122.687 100.868L128.5 104.65L128.408 104.791L119.955 105.485L120.014 105.394L125.637 109.051L125.529 109.217Z" fill="black"/>
<path d="M131.308 99.2811L125.216 96.3818L124.109 98.7078L123.939 98.6269L126.238 93.796L126.408 93.8769L125.301 96.2029L131.393 99.1022L131.308 99.2811Z" fill="black"/>
<path d="M133.475 94.4679L127.909 89.226L127.971 89.038L135.568 88.1682L135.496 88.3845L128.075 89.229L128.106 89.135L133.547 94.2516L133.475 94.4679ZM131.826 92.8029L131.678 92.6495L133.037 88.5595L133.247 88.5248L131.826 92.8029Z" fill="black"/>
<path d="M136.95 81.8791C136.856 82.379 136.685 82.8274 136.436 83.2242C136.181 83.6134 135.869 83.9378 135.498 84.1976C135.128 84.4509 134.718 84.6262 134.27 84.7237C133.822 84.8212 133.351 84.8237 132.857 84.7313C132.364 84.639 131.926 84.4662 131.543 84.2131C131.161 83.96 130.843 83.6485 130.589 83.2785C130.337 82.902 130.166 82.487 130.077 82.0334C129.982 81.5721 129.981 81.0915 130.075 80.5916C130.158 80.1436 130.31 79.7318 130.528 79.356C130.746 78.9803 131.028 78.6737 131.375 78.4362L131.49 78.5786C131.133 78.8343 130.858 79.1356 130.665 79.4826C130.473 79.8295 130.337 80.2108 130.26 80.6263C130.172 81.0937 130.175 81.5445 130.268 81.9786C130.355 82.4115 130.52 82.8052 130.763 83.1598C130.999 83.5131 131.299 83.8113 131.664 84.0542C132.023 84.2895 132.433 84.4503 132.894 84.5366C133.355 84.6229 133.799 84.622 134.225 84.5338C134.646 84.438 135.034 84.2687 135.389 84.026C135.737 83.7821 136.033 83.4747 136.277 83.1038C136.515 82.7316 136.677 82.3119 136.765 81.8444C136.843 81.4289 136.854 81.0246 136.8 80.6315C136.74 80.2371 136.589 79.8561 136.349 79.4886L136.507 79.3973C136.745 79.7441 136.9 80.1328 136.974 80.5633C137.042 80.9925 137.034 81.4311 136.95 81.8791Z" fill="black"/>
<path d="M137.853 74.0625L131.117 73.6673L130.967 76.2389L130.779 76.2278L131.092 70.887L131.28 70.898L131.129 73.4695L137.864 73.8647L137.853 74.0625Z" fill="black"/>
<path d="M138.017 67.5201L131.105 68.0949L131.091 67.9271L136.564 64.1613L136.571 64.2502L130.553 61.4502L130.539 61.2823L137.45 60.7075L137.466 60.905L130.841 61.456L130.835 61.377L136.751 64.1359L136.761 64.2544L131.382 67.9625L131.375 67.8737L138 67.3227L138.017 67.5201Z" fill="black"/>
<path d="M133.059 56.8712L132.163 53.1026L132.346 53.059L133.243 56.8276L133.059 56.8712ZM136.383 56.0295L135.36 51.7308L135.543 51.6872L136.612 56.1787L129.865 57.7841L128.831 53.4372L129.014 53.3936L130.002 57.5477L136.383 56.0295Z" fill="black"/>
<path d="M133.225 44.841C133.409 45.3153 133.499 45.7867 133.496 46.2553C133.485 46.72 133.389 47.1605 133.211 47.5767C133.029 47.9868 132.774 48.3513 132.444 48.6701C132.114 48.989 131.715 49.2389 131.247 49.4201C130.778 49.6012 130.315 49.6849 129.857 49.6711C129.398 49.6573 128.964 49.5597 128.554 49.3784C128.141 49.191 127.777 48.9281 127.462 48.5896C127.139 48.2474 126.885 47.8391 126.702 47.3648C126.537 46.9398 126.449 46.5101 126.437 46.0757C126.424 45.6414 126.503 45.232 126.673 44.8475L126.845 44.9084C126.676 45.3137 126.601 45.7145 126.62 46.1109C126.639 46.5073 126.725 46.9026 126.877 47.2969C127.049 47.7404 127.288 48.1222 127.596 48.4421C127.898 48.7645 128.246 49.0125 128.639 49.1862C129.025 49.3623 129.438 49.4578 129.875 49.4726C130.305 49.4836 130.738 49.4045 131.175 49.2353C131.613 49.0661 131.989 48.8318 132.305 48.5324C132.613 48.2292 132.854 47.8812 133.028 47.4882C133.195 47.0976 133.285 46.6803 133.297 46.2364C133.304 45.7949 133.221 45.3524 133.049 44.9089C132.897 44.5147 132.694 44.1646 132.441 43.8588C132.182 43.5553 131.854 43.3106 131.456 43.1245L131.543 42.9636C131.927 43.1335 132.264 43.3821 132.553 43.7092C132.837 44.0387 133.061 44.4159 133.225 44.841Z" fill="black"/>
<path d="M129.147 36.3328C129.398 36.775 129.557 37.228 129.623 37.6919C129.68 38.1532 129.65 38.6029 129.535 39.0409C129.416 39.4732 129.216 39.8713 128.937 40.2352C128.658 40.5991 128.3 40.9051 127.863 41.1531C127.427 41.4011 126.981 41.552 126.525 41.6058C126.07 41.6596 125.626 41.627 125.193 41.508C124.758 41.3832 124.359 41.1766 123.998 40.8882C123.627 40.5973 123.317 40.2308 123.065 39.7886C122.814 39.3464 122.66 38.8946 122.603 38.4333C122.537 37.9694 122.563 37.5214 122.682 37.0891C122.798 36.6511 122.996 36.2501 123.275 35.8862C123.554 35.5223 123.912 35.2163 124.349 34.9683C124.785 34.7203 125.231 34.5694 125.687 34.5156C126.142 34.4618 126.588 34.4973 127.024 34.6221C127.456 34.7411 127.857 34.946 128.228 35.2369C128.589 35.5253 128.895 35.8906 129.147 36.3328ZM128.983 36.4258C128.748 36.0123 128.458 35.6684 128.112 35.3939C127.766 35.1195 127.389 34.9236 126.98 34.8063C126.566 34.6922 126.146 34.6613 125.72 34.7136C125.284 34.7633 124.86 34.9057 124.447 35.1406C124.033 35.3756 123.697 35.6656 123.437 36.0107C123.168 36.3533 122.98 36.7301 122.871 37.1411C122.757 37.5554 122.73 37.9813 122.788 38.419C122.847 38.8566 122.994 39.2821 123.229 39.6956C123.464 40.1091 123.754 40.453 124.1 40.7275C124.446 41.0019 124.826 41.1962 125.241 41.3102C125.649 41.4275 126.071 41.4613 126.506 41.4116C126.932 41.3593 127.352 41.2157 127.765 40.9808C128.179 40.7458 128.52 40.457 128.789 40.1144C129.048 39.7693 129.235 39.3896 129.349 38.9754C129.458 38.5644 129.482 38.1401 129.424 37.7024C129.365 37.2648 129.218 36.8393 128.983 36.4258Z" fill="black"/>
<path d="M124.919 29.7507L119.484 34.0595L119.38 33.9275L121.41 25.6923L121.478 25.7777L116.222 29.9449L116.099 29.7896L121.533 25.4809L121.638 25.6129L119.607 33.848L119.54 33.7626L124.795 29.5954L124.919 29.7507Z" fill="black"/>
<path d="M117.337 21.1104L112.65 25.9641L114.504 27.7534L114.373 27.8888L110.524 24.1726L110.655 24.0372L112.508 25.8265L117.194 20.9728L117.337 21.1104Z" fill="black"/>
<path d="M113.462 17.5258L106.722 21.1362L106.563 21.0172L108.155 13.5385L108.337 13.6753L106.777 20.9798L106.698 20.9202L113.28 17.389L113.462 17.5258ZM111.359 18.5603L111.166 18.6513L107.721 16.0625L107.755 15.8525L111.359 18.5603Z" fill="black"/>
<path d="M102.634 10.2254C103.079 10.4731 103.449 10.7781 103.746 11.1405C104.034 11.5054 104.242 11.9051 104.371 12.3396C104.493 12.7709 104.529 13.2146 104.479 13.6707C104.429 14.1267 104.281 14.5739 104.037 15.0123C103.792 15.4507 103.489 15.811 103.128 16.0933C102.766 16.3756 102.369 16.578 101.938 16.7004C101.501 16.8197 101.053 16.8497 100.595 16.7905C100.127 16.7339 99.6712 16.5817 99.227 16.334C98.829 16.112 98.4866 15.8378 98.1997 15.5114C97.9129 15.185 97.7121 14.8196 97.5973 14.4152L97.7687 14.352C97.8975 14.7718 98.0958 15.1282 98.3635 15.4212C98.6311 15.7142 98.9495 15.9637 99.3187 16.1696C99.734 16.4012 100.162 16.5418 100.604 16.5913C101.042 16.6466 101.467 16.6156 101.881 16.4983C102.291 16.3867 102.669 16.1968 103.015 15.9286C103.353 15.6629 103.635 15.3253 103.864 14.9158C104.092 14.5062 104.233 14.0853 104.285 13.653C104.328 13.2232 104.291 12.8017 104.173 12.3883C104.053 11.9808 103.855 11.6022 103.581 11.2528C103.304 10.9091 102.958 10.6214 102.543 10.3897C102.174 10.1838 101.794 10.044 101.404 9.97016C101.011 9.90213 100.602 9.92356 100.177 10.0345L100.141 9.85541C100.545 9.74063 100.963 9.71664 101.395 9.78346C101.823 9.85604 102.236 10.0033 102.634 10.2254Z" fill="black"/>
<path d="M95.5078 6.88482L92.9909 13.1448L95.3809 14.1057L95.3106 14.2804L90.3468 12.2845L90.417 12.1099L92.807 13.0708L95.324 6.8109L95.5078 6.88482Z" fill="black"/>
<path d="M89.3591 4.64997L87.7058 11.3852L87.5422 11.3451L85.7128 4.95868L85.7994 4.97994L81.2303 9.79569L81.0668 9.75554L82.7201 3.02027L82.9125 3.06751L81.3277 9.52375L81.2507 9.50485L85.748 4.77351L85.8635 4.80185L87.6685 11.0802L87.5819 11.059L89.1667 4.60273L89.3591 4.64997Z" fill="black"/>
<path d="M77.6853 5.96136L73.8272 5.61282L73.8441 5.42534L77.7022 5.77388L77.6853 5.96136ZM77.9444 2.54282L73.5436 2.14526L73.5605 1.95778L78.1587 2.37317L77.5347 9.28027L73.0845 8.87825L73.1015 8.69077L77.3543 9.07496L77.9444 2.54282Z" fill="black"/>
<g clip-path="url(#clip0_1806_2961)">
<path d="M93.4415 33.7276C93.9964 31.0374 90.9844 30.4161 89.5764 30.4762C91.7557 29.3833 93.8794 30.1953 94.5678 30.8047L110.835 43.412C112.385 44.6133 113.116 46.5983 112.719 48.5264L100.677 106.905C100.274 108.859 98.7839 110.406 96.8528 110.875L78.1617 115.414C76.8864 115.677 74.0863 116.397 72.3051 114.206C74.8784 115.263 76.7216 113.656 77.2106 112.413L93.4415 33.7276Z" fill="url(#paint0_linear_1806_2961)"/>
<path d="M89.804 30.4732C91.2827 30.4855 93.9685 31.1753 93.4419 33.7282L89.2969 53.8229L25.8641 84.0144C24.7554 84.5421 23.4304 84.1433 22.7959 83.0909L18.4029 75.805C17.7147 74.6636 18.0863 73.1759 19.2301 72.4927L89.5768 30.4769L89.804 30.4732Z" fill="url(#paint1_linear_1806_2961)"/>
<path d="M81.2862 92.6541L34.9782 39.826C34.1688 38.9026 32.7942 38.7445 31.7949 39.46L24.8775 44.4128C23.7938 45.1887 23.5463 46.702 24.3264 47.782L72.305 114.205V114.205C74.8783 115.262 76.7215 113.655 77.2106 112.412L81.2862 92.6541Z" fill="url(#paint2_linear_1806_2961)"/>
</g>
<defs>
<linearGradient id="paint0_linear_1806_2961" x1="102.68" y1="32.0699" x2="85.0037" y2="117.766" gradientUnits="userSpaceOnUse">
<stop stop-color="#32B5F1"/>
<stop offset="1" stop-color="#2B9FED"/>
</linearGradient>
<linearGradient id="paint1_linear_1806_2961" x1="91.9159" y1="41.126" x2="20.1777" y2="79.8415" gradientUnits="userSpaceOnUse">
<stop stop-color="#0F6FB3"/>
<stop offset="0.270551" stop-color="#1279B7"/>
<stop offset="0.421376" stop-color="#1176B5"/>
<stop offset="0.618197" stop-color="#0E69AC"/>
<stop offset="0.855344" stop-color="#0F70AF"/>
<stop offset="1" stop-color="#0F6DAD"/>
</linearGradient>
<linearGradient id="paint2_linear_1806_2961" x1="28.3646" y1="42.2137" x2="78.9282" y2="105.282" gradientUnits="userSpaceOnUse">
<stop stop-color="#1791D2"/>
<stop offset="1" stop-color="#1173C5"/>
</linearGradient>
<clipPath id="clip0_1806_2961">
<rect width="100" height="100" fill="white" transform="translate(31.1318 10.9297) rotate(11.6552)"/>
</clipPath>
</defs>
</svg>
