<svg width="290" height="781" viewBox="0 0 290 781" fill="none" xmlns="http://www.w3.org/2000/svg">
<path d="M48.4294 486.419C48.3994 486.309 46.9094 486.819 41.6394 489.789C21.7794 500.999 -1.33059 527.339 1.18941 557.049L16.4994 737.419C17.9294 754.329 28.1294 768.939 42.8594 775.189L51.5094 778.859C58.3594 781.769 65.7494 776.229 65.5494 768.339L68.9094 639.919L62.8794 640.559C62.8794 640.559 50.5394 551.439 48.4294 486.419Z" stroke="white" stroke-width="2" stroke-linecap="round"/>
<path d="M48.4247 486.421C48.3965 486.313 46.9074 486.818 41.6422 489.788C21.7752 500.994 -1.32636 527.341 1.19423 557.052L16.4969 737.423C17.9313 754.332 28.1247 768.936 42.8554 775.188L51.509 778.86C58.355 781.766 65.7451 776.229 65.55 768.341L68.9049 639.922L62.883 640.563C62.883 640.563 50.5405 551.441 48.4247 486.421Z" fill="black"/>
<path d="M232.965 639.494C257.965 482.827 275.365 148.694 144.965 65.494C14.5651 148.694 31.965 482.827 56.965 639.494H232.965Z" stroke="white" stroke-width="2"/>
<path d="M232.965 639.494C257.965 482.827 275.365 148.694 144.965 65.494C14.5651 148.694 31.965 482.827 56.965 639.494H232.965Z" fill="black"/>
<path d="M145.275 67.5V1" stroke="white" stroke-width="2" stroke-linecap="round"/>
<path d="M138.928 271.494C172.042 271.494 198.928 298.38 198.928 331.494C198.928 364.608 172.042 391.495 138.928 391.495C105.813 391.495 78.9272 364.608 78.9272 331.494C78.9272 298.38 105.813 271.494 138.928 271.494Z" stroke="white" stroke-width="19"/>
<path d="M138.928 271.494C172.042 271.494 198.928 298.38 198.928 331.494C198.928 364.608 172.042 391.495 138.928 391.495C105.813 391.495 78.9272 364.608 78.9272 331.494C78.9272 298.38 105.813 271.494 138.928 271.494Z" stroke="black" stroke-width="17"/>
<path d="M226.071 206.994C242.52 272.962 247.276 344.624 246.858 413.994C246.358 496.994 244.391 530.962 233.747 636.994" fill="#0A0A0A"/>
<path d="M226.071 206.994C242.52 272.962 247.276 344.624 246.858 413.994C246.358 496.994 244.391 530.962 233.747 636.994" stroke="white"/>
<path d="M144.965 66.088C112.637 86.833 89.4101 123.124 73.1581 168.419C56.8631 213.835 47.6001 268.249 43.1891 324.983C34.3841 438.247 44.9261 560.67 57.3921 638.994H232.538C245.004 560.67 255.546 438.247 246.741 324.983C242.331 268.249 233.067 213.835 216.772 168.419C200.52 123.124 177.293 86.833 144.965 66.088Z" stroke="white" stroke-linecap="round"/>
<path d="M71.4651 638.994L83.4651 666.494H201.965L215.465 638.994H71.4651Z" fill="black"/>
<path d="M71.4651 638.994L83.4651 666.494H201.965L215.465 638.994H71.4651Z" stroke="white" stroke-width="0.991" stroke-linecap="round"/>
<path d="M228.209 205.994C212.139 143.353 185.823 92.307 144.966 66.088C104.108 92.307 77.794 143.353 61.723 205.994H228.209Z" stroke="white"/>
<path d="M201.465 666.494H83.4651V692.494H201.465V666.494Z" fill="black"/>
<path d="M201.465 666.494H83.4651V692.494H201.465V666.494Z" stroke="white"/>
<path d="M241.96 486.489C242.09 486.489 242.39 486.819 247.66 489.789C267.56 500.999 290.69 527.339 288.17 557.049L272.84 737.419C271.41 754.329 261.2 768.939 246.45 775.189L237.78 778.859C230.92 781.769 223.52 776.229 223.72 768.339L220.36 639.919L228.13 640.449C228.13 640.449 238.75 556.799 241.96 486.489Z" stroke="white" stroke-width="2" stroke-linecap="round"/>
<path d="M241.959 486.491C242.093 486.488 242.389 486.818 247.662 489.788C267.557 500.994 290.691 527.341 288.167 557.052L272.843 737.423C271.406 754.332 261.198 768.936 246.447 775.188L237.781 778.86C230.925 781.766 223.525 776.229 223.72 768.341L220.36 639.922L228.134 640.447C228.134 640.447 238.747 556.804 241.959 486.491Z" fill="black"/>
</svg>
