<svg width="1502" height="327" viewBox="0 0 1502 327" fill="none" xmlns="http://www.w3.org/2000/svg">
<path d="M100.628 265.67C90.7245 267.816 80.9469 268.024 71.2953 266.296C61.774 264.539 54.126 261.352 48.3511 256.737L50.537 253.603C55.9384 257.754 63.0598 260.713 71.9013 262.481C80.8731 264.22 90.1153 264.06 99.6279 261.999C109.531 259.853 117.314 256.734 122.976 252.642C128.768 248.523 132.669 243.857 134.678 238.647C136.789 233.278 137.238 227.792 136.024 222.189C134.612 215.674 131.919 210.8 127.944 207.568C123.942 204.206 119.094 201.982 113.402 200.896C107.681 199.68 101.603 199.019 95.1682 198.912C88.7049 198.676 82.1764 198.453 75.5827 198.245C69.1193 198.008 63.0132 197.216 57.2644 195.87C51.4873 194.393 46.5551 191.778 42.4677 188.025C38.3804 184.272 35.5602 178.812 34.0074 171.645C32.7087 165.651 33.0583 159.709 35.0564 153.819C37.1848 147.9 41.219 142.592 47.159 137.895C53.2293 133.169 61.6071 129.648 72.2925 127.333C79.5899 125.752 87.011 125.372 94.5559 126.193C102.203 126.855 108.912 128.54 114.682 131.246L113.21 134.839C106.862 131.985 100.153 130.301 93.0834 129.786C86.0141 129.272 79.4172 129.678 73.2926 131.005C63.78 133.066 56.2068 136.207 50.5731 140.429C44.9111 144.521 41.0898 149.237 39.1091 154.578C37.1001 159.788 36.7168 165.26 37.9591 170.993C39.399 177.639 42.1203 182.643 46.1229 186.005C50.0974 189.237 54.9449 191.461 60.6655 192.677C66.3578 193.763 72.4357 194.424 78.8991 194.661C85.4645 194.739 91.993 194.962 98.4846 195.329C104.948 195.566 111.068 196.422 116.845 197.899C122.594 199.246 127.498 201.73 131.557 205.353C135.616 208.976 138.408 214.305 139.933 221.342C141.232 227.336 140.817 233.293 138.688 239.211C136.56 245.129 132.395 250.465 126.195 255.219C119.966 259.843 111.444 263.327 100.628 265.67Z" fill="black"/>
<path d="M215.389 242.485L191.751 108.352L140.54 117.377L139.881 113.634L246.242 94.8902L246.901 98.6326L195.69 107.658L219.329 241.791L215.389 242.485Z" fill="black"/>
<path d="M354.383 221.761C337.856 223.911 324.129 220.722 313.204 212.194C302.412 203.648 295.742 189.591 293.197 170.023L282.695 89.3029L286.661 88.7869L297.137 169.308C299.546 187.819 305.64 201.077 315.422 209.082C325.335 217.069 338.159 220.04 353.893 217.993C369.627 215.946 381.197 209.802 388.605 199.56C396.144 189.302 398.71 174.917 396.302 156.407L385.825 75.8853L389.792 75.3692L400.294 156.089C402.84 175.657 399.923 190.962 391.544 202.001C383.297 213.024 370.91 219.611 354.383 221.761Z" fill="black"/>
<path d="M463.519 208.415L452.992 68.8117L505.842 64.8263C520.6 63.7134 533.727 65.7988 545.223 71.0826C556.71 76.2334 565.907 83.83 572.815 93.8723C579.723 103.915 583.684 115.65 584.696 129.079C585.709 142.507 583.553 154.704 578.229 165.668C572.906 176.633 564.957 185.59 554.382 192.538C543.798 199.353 531.127 203.317 516.369 204.43L463.519 208.415ZM467.222 204.325L515.684 200.671C529.911 199.598 542.06 195.807 552.132 189.298C562.205 182.789 569.729 174.399 574.704 164.129C579.669 153.726 581.67 142.143 580.708 129.379C579.745 116.616 576.034 105.53 569.575 96.1223C563.106 86.5818 554.404 79.349 543.47 74.4239C532.535 69.4989 519.955 67.5728 505.728 68.6456L457.266 72.3002L467.222 204.325Z" fill="black"/>
<path d="M665.431 196.66L664.11 147.678L665.19 150.65L604.676 58.2487L609.275 58.1246L666.866 146.003L665.266 146.046L718.035 55.1902L722.633 55.0662L667.19 150.596L668.108 147.57L669.43 196.553L665.431 196.66Z" fill="black"/>
<path d="M844.701 196.479L803.378 54.3653L807.773 54.5735L848.049 193.434L845.851 193.33L900.269 58.9541L904.265 59.1433L945.739 198.061L943.741 197.966L996.961 63.5335L1001.16 63.7322L946.587 201.305L942.591 201.115L901.659 63.4249L902.458 63.4627L848.696 196.669L844.701 196.479Z" fill="black"/>
<path d="M1091.05 214.978C1080.85 213.84 1071.57 211.06 1063.2 206.639C1054.99 202.1 1047.99 196.288 1042.21 189.203C1036.56 182.133 1032.42 174.157 1029.78 165.277C1027.15 156.398 1026.4 146.922 1027.52 136.851C1028.65 126.781 1031.47 117.704 1035.99 109.623C1040.52 101.541 1046.32 94.6753 1053.39 89.0245C1060.59 83.3885 1068.69 79.3284 1077.69 76.8442C1086.83 74.2423 1096.51 73.5106 1106.71 74.6492C1116.91 75.7877 1126.12 78.6264 1134.34 83.1653C1142.7 87.5865 1149.7 93.3322 1155.35 100.402C1161.14 107.488 1165.34 115.47 1167.98 124.35C1170.61 133.23 1171.36 142.705 1170.24 152.776C1169.11 162.847 1166.29 171.923 1161.77 180.005C1157.24 188.086 1151.38 194.945 1144.18 200.581C1137.1 206.232 1129 210.358 1119.85 212.96C1110.85 215.444 1101.25 216.117 1091.05 214.978ZM1091.47 211.202C1101.01 212.266 1110.08 211.601 1118.66 209.205C1127.25 206.809 1134.92 202.969 1141.68 197.686C1148.46 192.271 1153.94 185.773 1158.14 178.192C1162.49 170.493 1165.2 161.873 1166.26 152.332C1167.33 142.792 1166.58 133.854 1164.02 125.519C1161.61 117.066 1157.69 109.518 1152.26 102.875C1146.84 96.099 1140.21 90.5964 1132.37 86.3669C1124.52 82.1374 1115.83 79.4904 1106.29 78.4257C1096.75 77.3611 1087.68 78.0269 1079.1 80.4229C1070.51 82.8189 1062.83 86.7246 1056.06 92.1399C1049.3 97.4228 1043.74 103.914 1039.4 111.612C1035.2 119.193 1032.56 127.754 1031.5 137.295C1030.43 146.836 1031.11 155.833 1033.52 164.285C1036.08 172.62 1040.06 180.176 1045.48 186.952C1050.91 193.595 1057.55 199.031 1065.39 203.261C1073.24 207.49 1081.93 210.137 1091.47 211.202Z" fill="black"/>
<path d="M1204.99 228.894L1227.73 90.7526L1274.5 98.4509C1285.82 100.313 1295.18 103.747 1302.6 108.751C1310.17 113.646 1315.58 119.806 1318.82 127.23C1322.05 134.654 1322.88 143.169 1321.3 152.773C1319.74 162.245 1316.23 170.045 1310.76 176.172C1305.31 182.167 1298.21 186.335 1289.45 188.676C1280.84 190.907 1270.87 191.092 1259.56 189.229L1214.96 181.888L1217.03 180.405L1208.94 229.543L1204.99 228.894ZM1303.07 245.038L1275.21 188.968L1280.14 189.78L1308.01 245.85L1303.07 245.038ZM1217.09 180.01L1215.58 178.139L1260.57 185.545C1276.75 188.208 1289.72 186.626 1299.46 180.798C1309.22 174.838 1315.19 165.279 1317.35 152.123C1319.54 138.835 1316.95 127.87 1309.59 119.226C1302.23 110.583 1290.46 104.929 1274.28 102.265L1229.28 94.8595L1231.32 93.573L1217.09 180.01Z" fill="black"/>
<path d="M1361.43 219.377L1362.56 214.097L1476.56 138.035L1481.84 139.163L1406.93 189.218L1404.13 190.868L1361.43 219.377ZM1350.7 254.306L1379.94 117.395L1383.85 118.23L1354.61 255.141L1350.7 254.306ZM1451.81 275.907L1402.44 188.257L1405.91 186.341L1457.1 277.035L1451.81 275.907Z" fill="black"/>
</svg>
